<?xml version="1.0" encoding="utf-8"?>
<!-- Generator: Adobe Illustrator 26.2.1, SVG Export Plug-In . SVG Version: 6.00 Build 0)  -->
<svg version="1.1" id="Layer_1" xmlns="http://www.w3.org/2000/svg" xmlns:xlink="http://www.w3.org/1999/xlink" x="0px" y="0px"
	 viewBox="0 0 367.11 432.31" style="enable-background:new 0 0 367.11 432.31;" xml:space="preserve">
<style type="text/css">
	.st0{fill:#FFFFFF;stroke:#000000;stroke-width:6;stroke-miterlimit:10;}
	.st1{stroke:#000000;stroke-width:9;stroke-miterlimit:10;}
	.st2{stroke:#000000;stroke-width:10;stroke-miterlimit:10;}
	.st3{fill:#FFFFFF;}
	.st4{fill:#FFFFFF;stroke:#000000;stroke-width:8;stroke-miterlimit:10;}
	.st5{fill:#FFFFFF;stroke:#000000;stroke-width:5;stroke-miterlimit:10;}
	.st6{fill:#E379B0;}
	.st7{fill:#A9DDE0;}
	.st8{fill:#9AD9E2;}
	.st9{stroke:#000000;stroke-width:5;stroke-linecap:round;stroke-miterlimit:10;}
	.st10{fill:none;stroke:#000000;stroke-width:5;stroke-linecap:round;stroke-miterlimit:10;}
	.st11{fill:none;stroke:#E379B0;stroke-width:4;stroke-miterlimit:10;}
</style>
<path class="st0" d="M341.12,423.63H26.57c-9.87,0-17.87-8-17.87-17.87V26.02c0-9.87,8-17.87,17.87-17.87h314.55
	c9.87,0,17.87,8,17.87,17.87v379.74C358.99,415.63,350.99,423.63,341.12,423.63z"/>
<path class="st1" d="M220.45,228.09c0,0,24.6,12.34,35.11-11.88s11.27-9.99,8.23,9.58c-3.04,19.57-29.08,19.72-29.08,19.72
	L220.45,228.09z"/>
<path class="st2" d="M145.91,227.43c0,0-24.6,12.34-35.11-11.88s-11.27-9.99-8.23,9.58c3.04,19.57,29.08,19.72,29.08,19.72
	L145.91,227.43z"/>
<g>
	<path d="M238.49,260.18c0,0,14.7-6.85,37.8-0.51c23.1,6.34,37.68,31.04,41.97,42.52c4.9,13.08-53.18,3.67-66.44-6.7
		c-13.25-10.37-13.4-21.27-13.4-21.27L238.49,260.18z"/>
	<path class="st3" d="M288.73,300.83c12.48,2.02,23.42,2.67,21.98-0.41s-10.94-20-24.17-28.1c-0.72-0.44-7.43-4.24-9.58-4.61
		c-3,2.69,4.32,9.18,4.32,9.18s-7.45,0.34-11.68-4.82c-1.97,1.94,2.26,6.41,2.26,6.41s-9.08-0.12-13.22-6.14
		c0,0-1.02,3.52,3.54,7.57c-10.53-3.13-14.14-13.29-15.4-12.95l-0.05,9.79c0.06,0.82,4.58,11.9,10.84,14.66
		S275.98,298.76,288.73,300.83z"/>
</g>
<g>
	<path d="M126.38,260.18c0,0-14.7-6.85-37.8-0.51C65.47,266,50.9,290.7,46.61,302.18c-4.9,13.08,53.18,3.67,66.44-6.7
		s13.4-21.27,13.4-21.27L126.38,260.18z"/>
	<path class="st3" d="M76.15,300.83c-12.48,2.02-23.42,2.67-21.98-0.41s10.94-20,24.17-28.1c0.72-0.44,7.43-4.24,9.58-4.61
		c3,2.69-4.32,9.18-4.32,9.18s7.45,0.34,11.68-4.82c1.97,1.94-2.26,6.41-2.26,6.41s9.08-0.12,13.22-6.14c0,0,1.02,3.52-3.54,7.57
		c10.53-3.13,14.14-13.29,15.4-12.95l0.05,9.79c-0.06,0.82-4.58,11.9-10.84,14.66C101.04,294.16,88.9,298.76,76.15,300.83z"/>
</g>
<path class="st4" d="M233.12,258.36c6.58-7.62,3.74-17.97-5.59-22.76c-9.34-4.79-10.07-8.31-24.17-10.98
	c-12.78-2.42-21.69-3.27-21.69-3.27c-8.26-0.06-7.57,0.62-21.54,3.27c-14.1,2.67-14.84,6.2-24.17,10.98
	c-9.34,4.79-12.17,15.14-5.59,22.76c-13.61,15.93-10.88,32.45-2.18,38.19c7.71,5.08,45.29-20.36,53.83-26.27
	c4.14,2.95,45.02,31.72,53.29,26.27C244,290.82,246.72,274.29,233.12,258.36z"/>
<path d="M198.69,218.17c-16.95-1.98-25.91-0.94-33.91,0c-16.95,1.98-23.34,13.83-14.78,18.9c8.56,5.07,9.23,4.24,8.32,16.74
	c-0.91,12.5,23.32,6.83,23.32,6.83s24.25,3.34,23.51-6.83c-0.91-12.5-0.24-11.67,8.32-16.74C222.04,232,215.64,220.15,198.69,218.17
	z"/>
<circle class="st5" cx="229.92" cy="255.4" r="12.66"/>
<circle cx="228.66" cy="251.98" r="9.23"/>
<path d="M250.9,306.54c-9.1-40.23-58.42-41.75-68.53-41.59c-0.01,0-58.16-3.51-68.37,41.59c-8.32,36.76,0.06,54.64,8.32,53.77
	c10.44-1.1,17.31-7.33,21.51-12.41c11.64-14.11,39.85-12.24,39.85-12.24s25.75-1.87,37.39,12.24c4.2,5.08,11.07,11.31,21.51,12.41
	C250.83,361.18,259.21,343.29,250.9,306.54z"/>
<path class="st3" d="M134.14,295.22c0,0,6.32-10.02,17.92-8c11.6,2.02,12.16,13.44,9.83,18.92c-2.33,5.49-12.77,5.63-15.36,1
	c-2.59-4.63-0.54-6.39-5.29-9.44C135.65,294.13,134.14,295.22,134.14,295.22z"/>
<path class="st3" d="M231.68,295.22c0,0-6.32-10.02-17.92-8c-11.6,2.02-12.16,13.44-9.83,18.92c2.33,5.49,12.77,5.63,15.36,1
	c2.59-4.63,0.54-6.39,5.29-9.44C230.17,294.13,231.68,295.22,231.68,295.22z"/>
<path class="st6" d="M136.3,139.74c0,0-3.23,7.72-6.24,12.52c-3.02,4.8,11.7,6.82,7.96-1.04
	C134.27,143.37,136.3,139.74,136.3,139.74z"/>
<path class="st6" d="M242.95,126.45c0,0,1.78,8.18,3.87,13.45c2.1,5.27-12.74,4.59-7.64-2.46S242.95,126.45,242.95,126.45z"/>
<path class="st7" d="M230.94,190.03c0,0-0.66,8.34-2.03,13.84c-1.37,5.5,13.24,2.84,7.24-3.46
	C230.14,194.11,230.94,190.03,230.94,190.03z"/>
<path class="st7" d="M149.07,211.74c-0.24-1.61-0.27-3.23-0.27-5.48c0-18.98,14.84-34.37,33.14-34.37
	c18.3,0,33.14,15.39,33.14,34.37c0,2.01-0.17,3.97-0.49,5.89c4.94,0.53,8.79,4.7,8.79,9.78c0,5.43-4.41,9.84-9.84,9.84
	c-3.56,0-6.67-1.89-8.39-4.72c-1.39,3.01-4.42,5.1-7.95,5.1c-2.48,0-4.71-1.03-6.3-2.69c-1.66,3.26-5.04,5.51-8.95,5.51
	c-3.85,0-7.19-2.17-8.88-5.35c-1.6,1.7-3.86,2.77-6.38,2.77c-3.61,0-6.71-2.19-8.05-5.32c-1.78,2.82-4.91,4.7-8.5,4.7
	c-5.55,0-10.05-4.5-10.05-10.05C140.09,216.54,144.02,212.28,149.07,211.74z"/>
<path class="st6" d="M215.47,172.76c0.45-1.57,0.7-3.17,1.01-5.39c2.57-18.81-10.05-36.06-28.18-38.54
	c-18.13-2.48-34.92,10.76-37.49,29.57c-0.27,1.99-0.37,3.96-0.31,5.9c-4.97-0.15-9.34,3.47-10.03,8.5
	c-0.74,5.38,3.03,10.35,8.42,11.08c3.53,0.48,6.86-0.98,8.96-3.54c0.97,3.17,3.69,5.65,7.18,6.13c2.46,0.34,4.81-0.39,6.61-1.81
	c1.2,3.46,4.25,6.14,8.13,6.67c3.82,0.52,7.42-1.18,9.52-4.1c1.35,1.9,3.45,3.27,5.94,3.61c3.58,0.49,6.95-1.26,8.7-4.18
	c1.38,3.04,4.23,5.32,7.78,5.81c5.5,0.75,10.56-3.1,11.31-8.59C223.71,178.73,220.39,173.97,215.47,172.76z"/>
<path class="st8" d="M156.83,120.66c0.03-1.63,0.27-3.23,0.65-5.44c3.16-18.72,20.35-31.42,38.4-28.38
	c18.05,3.05,30.12,20.69,26.95,39.41c-0.33,1.98-0.83,3.89-1.46,5.72c4.78,1.34,7.88,6.1,7.04,11.11c-0.9,5.36-5.98,8.97-11.34,8.06
	c-3.51-0.59-6.26-2.98-7.49-6.06c-1.87,2.74-5.21,4.3-8.69,3.71c-2.44-0.41-4.47-1.8-5.77-3.7c-2.18,2.94-5.89,4.59-9.74,3.94
	c-3.8-0.64-6.73-3.34-7.86-6.76c-1.86,1.41-4.27,2.09-6.75,1.67c-3.56-0.6-6.26-3.28-7.05-6.58c-2.22,2.49-5.63,3.82-9.16,3.22
	c-5.47-0.92-9.16-6.11-8.23-11.58C147.18,123.9,151.77,120.34,156.83,120.66z"/>
<path class="st6" d="M234.27,99.69c0.77-1.44,1.35-2.95,2.11-5.06c6.43-17.86-2.31-37.37-19.53-43.57
	c-17.22-6.2-36.39,3.25-42.83,21.11c-0.68,1.89-1.18,3.8-1.53,5.7c-4.83-1.18-9.86,1.45-11.58,6.23
	c-1.84,5.11,0.81,10.75,5.92,12.59c3.35,1.21,6.91,0.48,9.5-1.6c0.28,3.3,2.43,6.3,5.75,7.49c2.33,0.84,4.78,0.62,6.84-0.39
	c0.45,3.63,2.88,6.89,6.56,8.21c3.62,1.31,7.5,0.4,10.17-2.03c0.93,2.14,2.69,3.91,5.06,4.77c3.4,1.22,7.06,0.21,9.38-2.27
	c0.72,3.26,3.03,6.09,6.4,7.3c5.22,1.88,10.98-0.83,12.85-6.05C241.09,107.24,238.83,101.9,234.27,99.69z"/>
<path class="st3" d="M229.4,65.16c-1.56,6.06-9.34,5.59-16.36,3.78c-7.02-1.81-13.55-7.22-11.98-13.28c0.97-3.75,5.9-7.21,9.76-6.21
	c3.11,0.8,4.74-0.23,7.42,0.47c3.51,0.91,7.73,5.67,9.77,8.05C229.73,59.99,230.19,62.13,229.4,65.16z"/>
<g>
	<path class="st9" d="M225.4,55.62c-1.63,2.24-4.62,2.84-6.68,1.34s-2.41-4.53-0.78-6.77s3.65-2.06,5.04,0.91
		C226.01,51.35,227.03,53.38,225.4,55.62z"/>
	<path class="st10" d="M221.3,53.42c5.33-7.33,13.19-10.68,17.57-7.49"/>
</g>
<path class="st6" d="M147.95,350.64c0,0,5.89,1.87,16.21,5.58c30.18,10.85,69.49-2.25,66.08-29.16c-2.53-20-37.41-12.53-44.98,3.2
	C175.15,351.28,147.95,350.64,147.95,350.64z"/>
<path d="M212.11,359.33c-18.92,10.29-40.43,10.74-59.07,0.5c-15.63-8.59-24.02,4.78-24.02,4.78s12.5,17.35,29.5,18.68
	s23.81-6.8,23.81-6.8s6.02,8.28,23.03,6.95c17.01-1.33,30.28-18.83,30.28-18.83S227.78,350.8,212.11,359.33z"/>
<circle class="st3" cx="225.94" cy="248.31" r="2.56"/>
<circle class="st5" cx="135.3" cy="254.29" r="12.66"/>
<circle cx="136.55" cy="250.87" r="9.23"/>
<path class="st3" d="M141.83,247.19c0,1.4-1.14,2.54-2.54,2.54s-2.54-1.14-2.54-2.54c0-1.4,1.14-2.54,2.54-2.54
	S141.83,245.79,141.83,247.19z"/>
<path class="st11" d="M340.23,412.75H27.46c-4.66,0-8.44-3.78-8.44-8.44V27.46c0-4.66,3.78-8.44,8.44-8.44h312.77
	c4.66,0,8.44,3.78,8.44,8.44v376.85C348.67,408.98,344.89,412.75,340.23,412.75z"/>
</svg>
