<?xml version="1.0" encoding="UTF-8"?><svg id="Layer_1" xmlns="http://www.w3.org/2000/svg" xmlns:xlink="http://www.w3.org/1999/xlink" viewBox="0 0 561.92 403.76"><defs><style>.cls-1{fill:#ffd42a;}.cls-2{fill:#fff;}.cls-3{fill:#29b6f6;}.cls-4{fill:url(#a);}.cls-5{fill:#c18956;}.cls-6{fill:#ffc4d8;}.cls-7{fill:#ffe680;}.cls-8{fill:#ffd4aa;}.cls-9{fill:#fca9c5;}.cls-10{fill:#f48fb1;}.cls-11{fill:#ddbfa3;}.cls-12{fill:#624d37;}.cls-13{stroke:#423121;stroke-linecap:round;stroke-linejoin:round;}.cls-13,.cls-14{fill:none;}.cls-15{fill:#ff80a5;}.cls-16{fill:#f8bbd0;}.cls-17{fill:#fea;}.cls-18{fill:#f06292;}.cls-19{fill:#2d2521;}.cls-19,.cls-20{fill-rule:evenodd;}.cls-20{fill:#2e2421;}.cls-21{fill:#fc0;}.cls-22{fill:#fff6d5;}.cls-23{fill:#f76ba1;}.cls-24{fill:#c9996d;}.cls-25{fill:#a27850;}</style><pattern id="a" x="0" y="0" width="37.34" height="33.12" patternTransform="translate(-4250.15 -4163.54) scale(.47)" patternUnits="userSpaceOnUse" viewBox="0 0 37.34 33.12"><g><rect class="cls-14" width="37.34" height="33.12"/><g transform="matrix(.64852 0 0 .64852 -3.5239 -445.38)"><path class="cls-1" d="M9.47,29.13s5.88,7.82,9.39,1.56c3.51-6.26-8.92-14.89-8.92-14.89,0,0-12.02,5.12-9.62,12.81,2.4,7.69,9.16,.52,9.16,.52h0Z"/><path class="cls-1" d="M27.33,13.33s5.88,7.82,9.39,1.56C40.23,8.64,27.8,0,27.8,0,27.8,0,15.77,5.13,18.17,12.81c2.4,7.69,9.16,.52,9.16,.52h0Z"/></g></g></pattern></defs><path id="path28360" class="cls-3" d="M373.7,166.36h-.09l.09,.09v-.09Z"/><g><path id="path28350" class="cls-16" d="M444.06,172.48l.04,5.97c14.6,1.14,28.87-3.89,38.64-18.33,.48-2.99-.42-.14,.94-6.25-12.43,13.69-25.62,19.52-39.62,18.62h0Z"/><path id="path28352" class="cls-16" d="M403.86,154.17s-.34,1.39,.01,5.92c10.94,9.96,27.25,17.83,41.8,18.49,.09-1.98-.07-4.06-.24-6.04-12.66-.26-27.66-7.4-41.58-18.37h0Z"/><g><path id="path28354" class="cls-10" d="M508.47,153.71l-24.63,.27c.02,.43,.04,.87,.05,1.3,.17,25.93-17.65,47.06-39.8,47.2-22.15,.15-40.25-20.75-40.42-46.68,.01-.43,.03-.87,.05-1.3l-24.55,.2-46.68,44.94,36.62,37.45,10.51-10.28,.73,111.62c14.59,3.94,28.36,15.78,35.87,30.85,5.09,10.25,6.8,21.05,4.8,30.28l48.21-.32c-2.12-9.2-.55-20.02,4.4-30.34,7.4-15.35,21.26-27.47,35.97-31.47l-.73-111.21,10.38,9.89,36.13-37.92-46.91-44.47Z"/><path id="path28362" class="cls-16" d="M505.51,336.84c-9.19,28.41-14.48,37.31-36.86,56.41,0,0-.58,.71,.61,6.02,13.22-10.58,35.88-37.98,39.88-59.84,.65-3.74-.58,.43-3.62-2.59h0Z"/><path id="path28364" class="cls-16" d="M384.38,337.77c9.56,28.29,14.97,37.11,37.6,55.93,0,0,0,.7-1.12,6.04-13.36-10.41-35.79-37.51-40.07-59.32-.7-3.73,.58,.42,3.59-2.64h0Z"/><path id="path28366" class="cls-16" d="M462.39,390.44l6.1-1.91c.61,2.97,.86,6.78,.96,10.79l-6.21,.04c.23-2.76-.02-5.65-.85-8.92h0Z"/><path id="path28368" class="cls-16" d="M427.68,390.66l-6.12-1.83c-.57,2.98-.77,6.79-.82,10.81l6.21-.04c-.26-2.75-.05-5.65,.73-8.93h0Z"/><path id="path28370" class="cls-16" d="M380.01,333.61c-.29,6.05,1.43,9.59,1.43,9.59,14.29,14.5,39.12,29.8,39.97,46.39,16.37,4.35,32.12,4.11,47.29-.47,0-.08,0-.16,.01-.25,10.05-23.87,22.68-34,39.51-46.51,0,0,2.24-3.84,1.45-9.61-13.4,10.22-37.87,24.78-42.54,46.38-16.63,4.95-27.11,4.64-42.59-.47-8.35-22.02-30.94-34.96-44.53-45.05h0Z"/><path id="rect28372" class="cls-16" d="M516.81,235.08c8.95-15.72,23.05-27.41,37.97-38.47,4.91,1.19,6.43,3.94,7.14,7.05-14.37,11.48-29.41,22.44-37.97,38.47-4.87-.25-7.12-2.71-7.14-7.05Z"/><path id="rect28374" class="cls-16" d="M371.41,236.03c-10.52-15-22.67-28.34-38.47-37.97-3.49,1.09-5.21,4.18-7.05,7.14,16.62,9.66,27.41,23.92,38.47,37.97,3.31-1.23,5.77-3.48,7.05-7.14Z"/><path id="path28376" class="cls-16" d="M404.11,154.21c19.57,58.5,64.67,55.56,79.64-.52l6.77-.04c-16.23,61.05-71.33,70.03-93.75,.61l7.35-.05Z"/><g id="g28384" transform="matrix(0.02966925,-0.01733839,0.01733839,0.02966925,38.899743,258.60386)"><path id="circle28378" class="cls-18" d="M435.2,386.82c.01,1.58-1.26,2.86-2.84,2.88s-2.86-1.26-2.88-2.84,1.26-2.86,2.84-2.88,2.86,1.26,2.88,2.84Z"/><path id="circle28380" class="cls-18" d="M448.21,387.53c.01,1.58-1.26,2.86-2.84,2.88s-2.86-1.26-2.88-2.84,1.26-2.86,2.84-2.88,2.86,1.26,2.88,2.84Z"/><path id="circle28382" class="cls-18" d="M461.19,386.65c.01,1.58-1.26,2.86-2.84,2.88s-2.86-1.26-2.88-2.84,1.26-2.86,2.84-2.88,2.86,1.26,2.88,2.84Z"/></g></g></g><g transform="translate(0 -62.362)"><path class="cls-8" d="M100.89,273.25c-5.43,10.52-24.98,14.4-17.64,36.33,1.32,5.75,17.78,25.08,46.74-11.82-7.32-10.02-13.63-20.83-29.1-24.51h0Z"/><path class="cls-8" d="M264.56,290.88l31.39-28.22c3.92,15.79,18.4,30.8-1.06,48.32-30.13,18.16-18.64-9.17-30.33-20.1h0Z"/><path class="cls-7" d="M255.39,186.48c-11.78,3.57-30.8,6.14-31.74,13.05-23.08,11.76-40.61,7.32-56.08-1.41-1.03-7.72-5.11-13.31-15.52-14.46-33.06,15.15-31.59,24.55-38.09,35.27-4.94,19.49-7.73,44.69-15.17,57.5,16.02,2.37,21.5,14.64,27.51,26.1,6.04-6.97,11.87-13.58,15.17-27.86-1.04,18.48,.1,33.71,2.82,46.56-1.01,18.26,2.28,38.45-16.58,48.67-13.84,8.47-13.67,17.4,.71,26.81,25.76,9.72,41.55,1.46,53.26-14.11,15.19-19.9,13.29-36.38,15.17-53.61,2.98,17.22,4.36,37.09,9.88,50.09,2.7,12.37,14.2,21.7,44.09,24.69,36.14-1.22,44.17-23.93,27.86-29.98-24.2-10.19-21.91-21.35-21.52-32.45,.74-21.09,2.96-41-.71-65.61,3.62,7.73,6.31,18.71,11.64,20.46,9.28-13.07,18.01-28.37,29.98-30.69-11.43-27.97-15.92-66.38-42.68-79.01h0Z"/><path class="cls-22" d="M192.23,282.18c-.12,0-.21,.1-.22,.22-1.59,14.91,.19,28.69,4.25,41.71,.02,.13,.14,.21,.27,.19s.21-.14,.19-.27c0-.02-.01-.05-.02-.07-4.05-12.97-5.81-26.68-4.22-41.52,.02-.13-.07-.25-.2-.26-.02,0-.03,0-.05,0h0Z"/><path class="cls-17" d="M294.4,259.97c-22.2,3.4-27.1,24.48-29.64,30.19-.21,.48,0,1.03,.48,1.24,.48,.21,1.03,0,1.24-.48,2.86-6.41,7.09-25.85,28.2-29.08,.52-.08,.87-.56,.8-1.07s-.56-.87-1.07-.8h0Z"/><path class="cls-17" d="M102.54,270.9c-.51,.08-.87,.56-.79,1.07,.07,.43,.42,.76,.85,.79,10.77,.74,16.27,3.41,19.87,6.77,3.6,3.36,5.35,7.58,8.36,11.55,.29,.43,.87,.55,1.31,.26,.43-.29,.55-.87,.26-1.31-.02-.03-.04-.06-.07-.09-2.83-3.73-4.63-8.11-8.58-11.79-3.95-3.68-9.98-6.51-21.02-7.27-.06,0-.13,0-.19,0h0Z"/><path class="cls-22" d="M151.65,233.85c-.08,.01-.14,.06-.18,.13-5.94,12.08-7.98,26.08-10.24,39.93-.05,.12,.02,.26,.14,.3,.12,.05,.26-.02,.3-.14,.01-.03,.02-.06,.01-.09,2.27-13.86,4.32-27.8,10.22-39.79,.07-.11,.03-.26-.08-.32-.05-.03-.11-.04-.17-.03h0Z"/><path class="cls-22" d="M244.42,234.21c-.13,.01-.23,.13-.21,.26,0,.05,.02,.09,.05,.13,7.89,10,10.01,26.77,11.6,37.64,0,.13,.1,.24,.23,.24s.24-.1,.24-.23c0-.03,0-.06-.01-.09-1.58-10.86-3.67-27.67-11.69-37.84-.05-.07-.12-.11-.21-.1h0Z"/><path class="cls-8" d="M95.61,82.43c1.36-12.25,32.03-80.49,126.27-64.19,94.24,16.3,89.59,102.99,89.59,102.99,0,0,13.4,5.17,8.47,21.87s-19.05,8.47-19.05,8.47c-10.57,16.63-35.37,41.47-75.53,45.57,.68,19.16-66.91,15.04-59.83-3.57-43.44-21.41-64.03-49.29-69.93-80.09,0,0-14.65,6.45-15.52-11.99-.87-18.44,15.52-19.05,15.52-19.05h0Z"/><path class="cls-20" d="M212.81,121.21c-.17-2.21,.28-4.47,.94-6.59,.31-1.01,.59-2.17,1.41-2.83,.5-.41,1.34-.82,1.88-.47,1.47,.95,.96,3.43,.94,5.18-.02,2.4-.28,4.95-1.41,7.07-.52,.98-1.28,2.63-2.36,2.36-1.59-.4-1.29-3.08-1.41-4.71Z"/><path class="cls-12" d="M229.85,29.51c2.78-.97,5.07-3.23,5.63-6.45,.32-1.83-.06-3.67-1.03-5.23-.97-1.56-2.7-2.85-4.82-3.03-1.38-.12-2.7,.24-3.83,1.08-1.13,.84-2.07,2.43-1.88,4.18,.18,1.16,1.35,2.07,2.52,1.98,1.17-.09,2.17-1.18,2.17-2.36,.12-.09,.5-.19,.62-.18,.55,.05,.9,.29,1.23,.82,.33,.53,.5,1.33,.39,1.95-.39,2.2-2.96,3.47-5.21,2.97-3.31-.75-5.13-4.53-4.28-7.83,1.15-4.44,6.18-6.8,10.58-5.56,4.67,1.32,7.69,5.25,7.31,10.11,1.62,.73,3.27,1.24,4.63,1.93,.97-7.38-3.69-14.59-10.67-16.57-6.8-1.92-14.54,1.72-16.41,8.9-1.48,5.71,1.66,12.22,7.79,13.6,1.75,.4,3.59,.28,5.26-.31h0Z"/><path class="cls-19" d="M184.55,115.56c-.08-2.4,.18-5,1.41-7.07,.63-1.05,1.6-2.29,2.83-2.36,.57-.03,1.15,.44,1.41,.94,.74,1.38,.18,3.15,0,4.71-.24,2.08-.7,4.15-1.41,6.12-.36,.99-.52,2.27-1.41,2.83-.4,.25-1.04,.29-1.41,0-1.42-1.09-1.35-3.39-1.41-5.18Z"/><path class="cls-7" d="M226.98,157.58c0,17.98-14.57,32.55-32.55,32.55s-32.55-14.57-32.55-32.55,14.57-32.55,32.55-32.55,32.55,14.57,32.55,32.55Z"/><path class="cls-21" d="M206.4,157.58c0,6.61-5.36,11.97-11.97,11.97s-11.97-5.36-11.97-11.97,5.36-11.97,11.97-11.97,11.97,5.36,11.97,11.97Z"/><path class="cls-22" d="M192.06,151.11c-8.99,0-16.32,7.34-16.32,16.32s7.34,16.32,16.32,16.32,16.32-7.34,16.32-16.32-7.34-16.32-16.32-16.32Zm0,4.71c6.44,0,11.61,5.17,11.61,11.61s-5.17,11.61-11.61,11.61-11.61-5.17-11.61-11.61,5.17-11.61,11.61-11.61Z"/><path class="cls-22" d="M167.62,154.21c-1.98-3.93,5.26-26.27,23.32-25.19-11.26,4.91-18.01,14.33-23.32,25.19Z"/><path class="cls-2" d="M165.2,193.18c14.45,19.35,53.11,12.36,60.36,3.88,14.6,50.93,.84,84.3-33.3,83.95-24.09-.73-58.31-30.87-27.06-87.83h0Z"/><path class="cls-21" d="M191.56,237.14s12.65-16.84,20.2-3.37c7.55,13.47-19.2,32.05-19.2,32.05,0,0-25.87-11.02-20.7-27.56,5.17-16.54,19.7-1.12,19.7-1.12h0Z"/><path class="cls-17" d="M103.07,303.94c-21.11,.53-30.43,22.08-40.7,41.93-7.98,12.35-8.9,23.86-54.37,40.65-8.17,3.35-13.97,6.32,2.74,5.74,6.24-.78,12.47-1.25,18.71,1.25,3.76,2.22,8.93,1.6,13.97,1.25,7.09-2.34,15.86-.52,24.2,.25,11.89-1.71,24.47,4.21,35.16-10.73,6.23-20.34,9.55-39.54,5.24-54.62-6.35-15-2.8-20.67,1.99-25.18-2.45-.42-4.75-.6-6.93-.54h0Zm19.4,2.47c-1.75,1.77-5.94,5.64-10.52,8.64-2.11,5.39-1.01,6.27-1.19,10.38,3.56,12.27,2.49,14.06,2.25,18.96,1.02,.1,17.03-4.18,14.22-30.67-1.6-5.11-2.51-6.42-4.76-7.3h0Z"/><path class="cls-4" d="M103.07,303.94c-21.11,.53-30.43,22.08-40.7,41.93-7.98,12.35-8.9,23.86-54.37,40.65-8.17,3.35-13.97,6.32,2.74,5.74,6.24-.78,12.47-1.25,18.71,1.25,3.76,2.22,8.93,1.6,13.97,1.25,7.09-2.34,15.86-.52,24.2,.25,11.89-1.71,24.47,4.21,35.16-10.73,6.23-20.34,9.55-39.54,5.24-54.62-6.35-15-2.8-20.67,1.99-25.18-2.45-.42-4.75-.6-6.93-.54h0Zm19.31,2.65c-1.98,1.99-6.56,6.17-10.52,8.46-2.11,5.39-.92,6.27-1.11,10.38,3.56,12.27,2.49,14.06,2.25,18.96,1.02,.1,17.03-4.18,14.22-30.67-.84-4.73-3.58-7.44-4.85-7.12h0Z"/><path class="cls-25" d="M316.23,302.7s4.92-7.58,10.76-1.76c5.84,5.81-1.76,11.46-1.76,11.46l-8.99-9.7Z"/><path class="cls-24" d="M313.23,334.8c7.41,6.88,6.47,20.76,24.87,30.86,4.83,5.43-2.53,13.34-5.47,11.29-13.83-5.13-16.17-12.08-21.69-18.52l2.29-23.63Z"/><path class="cls-5" d="M305.17,396.21c2.86-.87,6.16-2.25,11.36-5.73,2.06-2.71,2.38-4.98-.61-7.35-1.4-1.09-4.88-.07-7.59,1.74-2.77,1.93-5.77-1.76-6.56-6.16,1.58-.7,10.16-2.38,14.81-18.34,.92-11.65,1.14-20.39-4.06-28.75l-18.34-.88c.93,22.68-24.25,35.98,3.01,63.83,2.09,1.68,4.48,2.75,7.97,1.63h0Z"/><path class="cls-24" d="M286.6,333.39c-10.54,11.73-11.84,24.97-10.93,32.8-1.64,11.87-7.11,21.27-1.76,32.27,2.07,1.81,11.45,4.67,18.87,2.82,2.3-.19,3.56-2.3,3.53-5.29-1.38-3.21-4.32-3.55-8.99-4.41,1.57-7.95,4.61-10.53,7.41-13.4,7.33-3.66,12.56-4.82,16.75-21.34,1.67-6.73,1.55-12.57-2.29-25.4-8.52-3.17-16.83-5.52-22.57,1.94h0Z"/><path class="cls-11" d="M315.88,350.77c.22,12.62-5,24.63-15.07,21.94-6.92-1.85-6.03-8.73-5.74-20.9s3.68-22.09,10.83-21.94,9.76,8.73,9.97,20.9h0Z"/><path class="cls-5" d="M277.79,316.81c.02,8.9,.68,16.45,4.06,22.22,.96,4.33,12.87,2.95,11.99-4.06-1.24-7.01-2.53-13.47-4.23-21.87-4.63,2.49-8.72,4.26-11.82,3.7h0Z"/><path class="cls-25" d="M296.74,302.7s-4.92-7.58-10.76-1.76c-5.84,5.81,1.76,11.46,1.76,11.46l8.99-9.7Z"/><path class="cls-24" d="M326.64,317.16c0,9.93-9,17.99-20.1,17.99s-20.1-8.05-20.1-17.99,9-17.99,20.1-17.99,20.1,8.05,20.1,17.99Z"/><path class="cls-11" d="M316.67,323.78c0,4.53-3.96,5.38-9.27,5.38s-9.98-.85-9.98-5.38,4.31-8.2,9.62-8.2,9.62,3.67,9.62,8.2Z"/><path class="cls-20" d="M304.19,313.86c.12-.57,.09-1.17,0-1.74-.04-.27-.07-.58-.26-.78-.12-.12-.32-.26-.47-.19-.42,.19-.37,.85-.43,1.31-.08,.62-.11,1.29,.1,1.88,.1,.27,.23,.73,.52,.7,.43-.04,.45-.75,.54-1.17h0Z"/><path class="cls-19" d="M311.71,313.44c.11-.62,.14-1.3-.1-1.88-.12-.3-.33-.65-.64-.71-.15-.03-.31,.07-.4,.19-.24,.33-.16,.81-.17,1.22-.02,.55,.03,1.1,.14,1.64,.06,.27,.05,.61,.26,.78,.09,.08,.26,.11,.37,.05,.41-.23,.47-.83,.56-1.29h0Z"/><path class="cls-13" d="M302.12,322.45c-1.54,1.71,1.94,4.78,3.7,1.76"/><path class="cls-25" d="M310.59,319.28c0,.88-1.42,1.59-3.17,1.59s-3.17-.71-3.17-1.59,1.42-1.59,3.17-1.59,3.17,.71,3.17,1.59Z"/></g><g><path id="path1803" class="cls-9" d="M421.2,143.98c21.53-15.79,69.77-7.74,77.14-23.9,0,0,48.61-104.45-60.06-120.08-18.89,.32-27.69,16.77-43.78,23.68-4.79,3.36-22.58,3.56-25.23,4.54-4.31,0-20,2.38-14.08,22.5,0,0,1.64,16.69,18.63,18.39,0,0,1.33-.49,1.04,2.8-1.62,3.78-5.21,14.44,.03,20.48,5.57,7.5,13.24,7.86,15.08,8.77q1.84,.91,1.04,2.8c.52,1.4-7.39,26.82,30.21,40.02h0Z"/><path id="path1805" class="cls-15" d="M403.91,61.4c-12.82,6.1-26.4,9.52-26.92,8.12-1.84-.91-14.81,.69-20.32-14.8-2.52-6.81,21.91-9.46,31-12.81,121.61-34.58,110.35-26.71,16.24,19.5h0Z"/><path id="path1807" class="cls-15" d="M458.26,71.6c-25.08,9.03-61.25,16.02-66.98,29.06-3.89,13.95-.84,30.36,14.01,34.43,0,0-5.27-26.51,62.45-33.76,58.08-51.26,48.4-48.35-9.47-29.73h0Z"/><path id="path1841" class="cls-10" d="M504.1,45.34c-23.64,33.42-96.72,24.74-112.82,55.32-3.89,13.95-.84,30.36,14.01,34.43,22.29-44.38,56.98-17.35,95.87-52.25,16.34-16.96,2.94-37.5,2.94-37.5h0Z"/><path id="path1809" class="cls-6" d="M410.66,125.15c-1.04-2.8-4.21-3.23-5.53-2.74s-3.46,2.87-2.42,5.68c.52,1.4,3.69,1.82,5.01,1.34s3.46-2.87,2.94-4.27Z"/><path id="path1811" class="cls-6" d="M422.05,132.09c-1.04-2.8-2.88-3.72-4.21-3.23-2.46,.91-3.27,2.8-2.24,5.61,.33,1.47,2.17,2.38,4.82,1.41,1.33-.49,2.13-2.38,1.62-3.78Z"/><path id="path1813" class="cls-6" d="M405.03,109.92c-.52-1.4-2.36-2.31-5.01-1.34-1.33,.49-2.13,2.38-1.62,3.78,1.04,2.8,2.88,3.72,4.21,3.23,2.65-.98,3.46-2.87,2.42-5.68Z"/><path id="path1815" class="cls-6" d="M406.2,96.75c-1.04-2.8-4.21-3.23-5.53-2.74-1.14,.42-3.27,2.8-2.24,5.61,.33,1.47,3.5,1.89,4.82,1.41s3.46-2.87,2.94-4.27Z"/><path id="path1817" class="cls-6" d="M394.36,88.6c-.52-1.4-2.36-2.31-3.69-1.82-2.65,.98-3.53,2.67-3.02,4.07,1.04,2.8,2.88,3.72,5.53,2.74,1.33-.49,2.13-2.38,1.17-4.99h0Z"/><path id="path1819" class="cls-6" d="M387.05,76.96c-.52-1.4-3.69-1.82-5.01-1.34s-3.27,2.8-2.94,4.27c1.04,2.8,4.21,3.23,5.53,2.74s3.46-2.87,2.42-5.68Z"/><path id="path1839" class="cls-10" d="M497.15,30.61s-20.09-10.11-48.4,6.5c-28.83,15.2-29.64,17.09-44.84,24.3-12.82,6.1-26.4,9.52-26.92,8.12-1.84-.91-14.81,.69-20.32-14.8-2.52-6.81,21.91-9.46,31-12.81,8.84-4.63,18.64-6.66,40.84-19.41,22.93-14.84,62.51-8.52,68.65,8.11Z"/><path id="path1821" class="cls-6" d="M386.88,64.27c-.52-1.4-2.29-2.11-4.82-1.41-1.33,.49-2.13,2.38-1.62,3.78,.85,2.87,2.69,3.79,4.02,3.3,2.65-.98,3.46-2.87,2.42-5.68Z"/><path id="path1823" class="cls-6" d="M376.08,58.93c-.52-1.4-2.36-2.31-3.69-1.82-2.65,.98-3.53,2.67-3.02,4.07,1.04,2.8,2.88,3.72,5.53,2.74,1.33-.49,2.13-2.38,1.17-4.99Z"/><path id="path1825" class="cls-6" d="M368.77,47.29c-.52-1.4-2.88-3.72-5.53-2.74-1.33,.49-1.62,3.78-1.1,5.19s2.88,3.72,4.21,3.23c2.65-.98,2.94-4.27,2.42-5.68Z"/><path id="path1827" class="cls-6" d="M371.78,35.03c-.52-1.4-2.81-3.52-4.13-3.03-2.73,.78-3.02,4.07-2.5,5.48s2.88,3.72,5.53,2.74c1.33-.49,1.62-3.78,1.1-5.19Z"/><path id="path1829" class="cls-23" d="M394.5,23.68s-3.17-.42-6.44,2.38c-2.13,2.38,25.54,94.82,53.63,106.75,0,0,8.08-1.56,7.56-2.96s-23.44-3.91-54.75-106.16h0Z"/><path id="path1831" class="cls-23" d="M419.2,148.85c-.38-9.19,11.45-19.21,26.07-19.83,14.89-.49,26.08,7.17,26.54,16.56,.97,10.79-19.89,25.81-29.46-3.01-5.09,33.51-22.17,17.07-23.15,6.28Zm29.44-5.41c3.07,2.64,7.77,6.76,10.91,5.08,1.91-7.08-9.16-12.55-9.16-12.55,0,0-4.11,5.16-1.75,7.47Zm-12.03,4.42c.3-4.04,0-5.14,1.52-8.95-8.99,.13-7.21,9.04-8.54,9.53-.88,1.69,5.11,2.76,7.01-.58h0Z"/></g></svg>