<?xml version="1.0" encoding="UTF-8"?><svg id="Layer_1" xmlns="http://www.w3.org/2000/svg" xmlns:xlink="http://www.w3.org/1999/xlink" viewBox="0 0 3570 3108.28"><defs><style>.cls-1{fill:#efeced;}.cls-2,.cls-3{fill:#fff;}.cls-4{fill:#766369;}.cls-5{fill:#d2ccce;}.cls-6{fill:#bcb6b6;}.cls-7{fill:#2a202a;}.cls-8{clip-path:url(#clippath-2);}.cls-9{fill:#948a8b;}.cls-10{fill:#231f20;opacity:.35;}.cls-11{fill:#3b3139;}.cls-12{clip-path:url(#clippath-1);}.cls-13{clip-path:url(#clippath-4);}.cls-14,.cls-15{fill:#77646a;}.cls-16{fill:#aacacd;}.cls-17{fill:#fbb040;}.cls-18{fill:#dcd6d8;}.cls-19{fill:#ccc8c8;}.cls-20{fill:#87b0b2;}.cls-21{clip-path:url(#clippath);}.cls-3{opacity:.25;}.cls-22{fill:none;}.cls-23{clip-path:url(#clippath-3);}.cls-15{font-family:MyriadPro-Regular, 'Myriad Pro';font-size:323.52px;}.cls-24{clip-path:url(#clippath-5);}.cls-25{fill:#bdb7b6;}.cls-26{fill:#a59b9d;}</style><clipPath id="clippath"><rect class="cls-22" x="194.35" y="970.63" width="588.26" height="1914.89"/></clipPath><clipPath id="clippath-1"><path class="cls-22" d="M-2246.72,1176.81h530.69l-530.69,619.93v1058.66h958.71L-380.56,1968.32v583.75h-54.12v42.92c0,25.68,20.81,46.5,46.5,46.5h.32v22.01h-.32c-25.69,0-46.5,20.82-46.5,46.5v42.92l-37.69,59.15v43.33H-39.37v-43.33l-37.68-59.15v-42.92c0-25.68-20.82-46.5-46.5-46.5h-.32v-22.01h.32c25.68,0,46.5-20.82,46.5-46.5v-42.92h-54.12V1334.74h54.12v-42.92c0-25.68-20.82-46.5-46.5-46.5h-.32v-22.01h.32c25.68,0,46.5-20.82,46.5-46.5H300.69c0,25.68,20.82,46.5,46.5,46.5h.32v22.01h-.32c-25.68,0-46.5,20.82-46.5,46.5v42.92h54.13v1217.33h-54.13v42.92c0,25.68,20.82,46.5,46.5,46.5h.32v22.01h-.32c-25.68,0-46.5,20.82-46.5,46.5v42.92l-37.68,59.15v43.33h433v-43.33l-37.68-59.15v-42.92c0-25.68-20.82-46.5-46.5-46.5h-.33v-22.01h.33c25.68,0,46.5-20.82,46.5-46.5v-42.92h-54.13V1334.74h54.13v-42.92c0-25.68-20.82-46.5-46.5-46.5h-.33v-22.01h.33c25.68,0,46.5-20.82,46.5-46.5v-42.92l37.68-59.15v-43.34H-2246.72v145.41Z"/></clipPath><clipPath id="clippath-2"><rect class="cls-22" x="942.82" y="973.16" width="588.26" height="1914.89"/></clipPath><clipPath id="clippath-3"><path class="cls-22" d="M-1498.24,1179.34H-967.55l-530.69,619.93v1058.66H-539.53L367.92,1970.85v583.75h-54.12v42.92c0,25.68,20.81,46.5,46.5,46.5h.32v22.01h-.32c-25.69,0-46.5,20.82-46.5,46.5v42.92l-37.69,59.15v43.33h433v-43.33l-37.68-59.15v-42.92c0-25.68-20.82-46.5-46.5-46.5h-.32v-22.01h.32c25.68,0,46.5-20.82,46.5-46.5v-42.92h-54.12V1337.27h54.12v-42.92c0-25.68-20.82-46.5-46.5-46.5h-.32v-22.01h.32c25.68,0,46.5-20.82,46.5-46.5h377.74c0,25.68,20.82,46.5,46.5,46.5h.32v22.01h-.32c-25.68,0-46.5,20.82-46.5,46.5v42.92h54.13v1217.33h-54.13v42.92c0,25.68,20.82,46.5,46.5,46.5h.32v22.01h-.32c-25.68,0-46.5,20.82-46.5,46.5v42.92l-37.68,59.15v43.33h433v-43.33l-37.68-59.15v-42.92c0-25.68-20.82-46.5-46.5-46.5h-.33v-22.01h.33c25.68,0,46.5-20.82,46.5-46.5v-42.92h-54.13V1337.27h54.13v-42.92c0-25.68-20.82-46.5-46.5-46.5h-.33v-22.01h.33c25.68,0,46.5-20.82,46.5-46.5v-42.92l37.68-59.15v-43.34H-1498.24v145.41Z"/></clipPath><clipPath id="clippath-4"><rect class="cls-22" x="2259.25" y="971.45" width="588.26" height="1914.89"/></clipPath><clipPath id="clippath-5"><path class="cls-22" d="M-181.82,1177.63H348.87L-181.82,1797.56v1058.66H776.89l907.45-887.08v583.75h-54.12v42.92c0,25.68,20.81,46.5,46.5,46.5h.32v22.01h-.32c-25.69,0-46.5,20.82-46.5,46.5v42.92l-37.69,59.15v43.33h433v-43.33l-37.68-59.15v-42.92c0-25.68-20.82-46.5-46.5-46.5h-.32v-22.01h.32c25.68,0,46.5-20.82,46.5-46.5v-42.92h-54.12V1335.56h54.12v-42.92c0-25.68-20.82-46.5-46.5-46.5h-.32v-22.01h.32c25.68,0,46.5-20.82,46.5-46.5h377.74c0,25.68,20.82,46.5,46.5,46.5h.32v22.01h-.32c-25.68,0-46.5,20.82-46.5,46.5v42.92h54.13v1217.33h-54.13v42.92c0,25.68,20.82,46.5,46.5,46.5h.32v22.01h-.32c-25.68,0-46.5,20.82-46.5,46.5v42.92l-37.68,59.15v43.33h433v-43.33l-37.68-59.15v-42.92c0-25.68-20.82-46.5-46.5-46.5h-.33v-22.01h.33c25.68,0,46.5-20.82,46.5-46.5v-42.92h-54.13V1335.56h54.13v-42.92c0-25.68-20.82-46.5-46.5-46.5h-.33v-22.01h.33c25.68,0,46.5-20.82,46.5-46.5v-42.92l37.68-59.15v-43.34H-181.82v145.41Z"/></clipPath></defs><rect class="cls-9" x="278.87" y="1028.29" width="3012.26" height="2079.99"/><rect class="cls-9" x="134.79" y="2852.28" width="3301.45" height="256"/><rect class="cls-14" x="134.18" y="3062.31" width="3302.06" height="45.98"/><rect class="cls-14" x="133.76" y="2852.28" width="3302.48" height="45.98"/><rect class="cls-19" x="1188.03" y="2852.28" width="1175.94" height="85.33"/><rect class="cls-6" x="1017.7" y="2937.62" width="1516.6" height="85.33"/><rect class="cls-26" x="851.51" y="3022.95" width="1866.99" height="85.33"/><g><path class="cls-11" d="M1785,1916.58c-137.69,0-249.66,97-252.66,217.65h505.32c-3-120.65-114.97-217.65-252.66-217.65Z"/><rect class="cls-7" x="1444.78" y="2503.87" width="680.5" height="14.79" transform="translate(4296.29 726.23) rotate(90)"/><rect class="cls-11" x="1532.28" y="2171.02" width="245.36" height="680.5"/><g><rect class="cls-14" x="1566.28" y="2204.46" width="177.36" height="178.82"/><rect class="cls-14" x="1566.28" y="2422.46" width="177.36" height="178.82"/><rect class="cls-14" x="1566.28" y="2640.46" width="177.36" height="178.82"/></g><rect class="cls-11" x="1792.43" y="2171.02" width="245.3" height="680.5"/><g><rect class="cls-14" x="1826.39" y="2204.46" width="177.36" height="178.82"/><rect class="cls-14" x="1826.39" y="2422.46" width="177.36" height="178.82"/><rect class="cls-14" x="1826.39" y="2640.46" width="177.36" height="178.82"/></g><path class="cls-14" d="M1801.86,2104.23h202.19c-8.1-38.18-29.41-73.39-61.82-101.35-38.06-32.84-87.39-52.33-140.38-55.75v157.1Z"/><path class="cls-14" d="M1768.2,1947.12c-53.01,3.41-102.37,22.9-140.44,55.75-32.41,27.96-53.72,63.17-61.82,101.35h202.26v-157.11Z"/><circle class="cls-17" cx="1760.74" cy="2506.78" r="12.68" transform="translate(-1256.85 1979.25) rotate(-45)"/><circle class="cls-17" cx="1809.55" cy="2506.78" r="12.68" transform="translate(-1045.92 3691.99) rotate(-76.72)"/></g><g><rect class="cls-4" x="2853.63" y="1922.53" width="120.73" height="32.61"/><rect class="cls-4" x="2998.35" y="1655.58" width="36.38" height="32.61"/><rect class="cls-4" x="2576.85" y="2120.49" width="60.32" height="32.61"/><rect class="cls-4" x="2998.37" y="2318.98" width="36.36" height="32.61"/><rect class="cls-4" x="2650.34" y="2387.43" width="60.35" height="32.61"/><rect class="cls-4" x="2037.75" y="2433.8" width="99.14" height="32.61"/><rect class="cls-4" x="2053.8" y="2351.67" width="120.73" height="32.61"/><rect class="cls-4" x="2109.84" y="1947.83" width="120.73" height="32.61"/><rect class="cls-4" x="2008.92" y="1655.89" width="120.73" height="32.61"/><rect class="cls-4" x="1419.3" y="1938.83" width="120.73" height="32.61"/><rect class="cls-4" x="966.34" y="1931.53" width="120.73" height="32.61"/><rect class="cls-4" x="859.31" y="1692.8" width="61.56" height="32.61"/><rect class="cls-4" x="859.29" y="1633.45" width="104.73" height="32.61"/><rect class="cls-4" x="859.29" y="2179.37" width="96.91" height="32.61"/><rect class="cls-4" x="949.8" y="2362.13" width="120.73" height="32.61"/><rect class="cls-4" x="900.8" y="2443.4" width="120.73" height="32.61"/><rect class="cls-4" x="698.41" y="2733.49" width="120.73" height="32.61"/><rect class="cls-4" x="2630.92" y="2713.57" width="98.06" height="32.61"/><rect class="cls-4" x="2576.81" y="1487.89" width="84" height="32.61"/><rect class="cls-4" x="1995.92" y="1405.48" width="120.73" height="32.61"/><rect class="cls-4" x="2037.06" y="1319.53" width="120.73" height="32.61"/><rect class="cls-4" x="1490.86" y="1297.72" width="120.73" height="32.61"/><rect class="cls-4" x="1419.3" y="1210.25" width="120.73" height="32.61"/><rect class="cls-4" x="718.91" y="1099.16" width="120.73" height="32.61"/><rect class="cls-4" x="792.09" y="1178.58" width="120.73" height="32.61"/><rect class="cls-4" x="2737.82" y="1131.97" width="120.73" height="32.61"/><rect class="cls-4" x="2576.54" y="2194.07" width="100.11" height="32.61"/></g><g><path class="cls-2" d="M1385.98,2159.06v429.14h-287.67v-429.14c0-1.07,.01-2.13,.04-3.21,1.71-77.95,65.43-140.63,143.8-140.63s142.09,62.67,143.8,140.63c.02,1.07,.04,2.13,.04,3.21Z"/><path class="cls-25" d="M1083.6,2588.21h317.09c12.05,0,21.83,9.78,21.83,21.83v43.3h-360.74v-43.3c0-12.05,9.78-21.83,21.83-21.83Z"/><rect class="cls-18" x="1061.77" y="2617.68" width="360.74" height="35.66"/><rect class="cls-20" x="1258.06" y="2187.69" width="96.09" height="168.19"/><rect class="cls-16" x="1262.78" y="2192.41" width="86.65" height="158.76"/><path class="cls-20" d="M1354.1,2155.86h-96.04v-107.66c53.22,7.6,94.48,52.75,96.04,107.66Z"/><path class="cls-16" d="M1262.78,2151.14v-97.36c22.7,4.45,43.54,16.27,59.17,33.66,15.89,17.69,25.45,40.15,27.19,63.7h-86.36Z"/><rect class="cls-20" x="1130.14" y="2187.69" width="96.09" height="168.19"/><rect class="cls-16" x="1134.86" y="2192.41" width="86.65" height="158.76"/><path class="cls-20" d="M1226.23,2048.2v107.66h-96.04c.79-27.82,11.77-53.14,29.34-72.33,3.48-3.82,7.24-7.39,11.22-10.69,15.53-12.89,34.58-21.66,55.47-24.64Z"/><path class="cls-16" d="M1135.16,2151.14c1.74-23.56,11.3-46.02,27.19-63.7,15.62-17.39,36.47-29.21,59.17-33.66v97.36h-86.36Z"/><rect class="cls-20" x="1258.06" y="2387.71" width="96.09" height="168.66"/><rect class="cls-16" x="1262.78" y="2392.43" width="86.65" height="159.23"/><rect class="cls-20" x="1130.14" y="2387.71" width="96.09" height="168.66"/><rect class="cls-16" x="1134.86" y="2392.43" width="86.65" height="159.23"/><polygon class="cls-3" points="1226.23 2246.11 1226.23 2273.87 1130.14 2217.73 1130.14 2189.97 1226.23 2246.11"/><polygon class="cls-3" points="1354.15 2320.84 1354.15 2348.61 1258.06 2292.46 1258.06 2264.7 1354.15 2320.84"/><path class="cls-3" d="M1226.23,2105.25v17.26l-66.69-38.98c3.48-3.82,7.24-7.39,11.22-10.69l55.47,32.41Z"/><polygon class="cls-3" points="1312.86 2155.86 1283.33 2155.86 1258.06 2141.1 1258.06 2123.84 1312.86 2155.86"/><polygon class="cls-3" points="1226.23 2409.78 1226.23 2450.1 1130.14 2393.96 1130.14 2387.71 1188.44 2387.71 1226.23 2409.78"/><polygon class="cls-3" points="1354.15 2484.53 1354.15 2524.85 1258.06 2468.71 1258.06 2428.39 1354.15 2484.53"/></g><g><path class="cls-2" d="M1385.98,1371.06v429.14h-287.67v-429.14c0-1.07,.01-2.13,.04-3.21,1.71-77.95,65.43-140.63,143.8-140.63s142.09,62.67,143.8,140.63c.02,1.07,.04,2.13,.04,3.21Z"/><path class="cls-25" d="M1083.6,1800.21h317.09c12.05,0,21.83,9.78,21.83,21.83v43.3h-360.74v-43.3c0-12.05,9.78-21.83,21.83-21.83Z"/><rect class="cls-18" x="1061.77" y="1829.68" width="360.74" height="35.66"/><rect class="cls-20" x="1258.06" y="1399.69" width="96.09" height="168.19"/><rect class="cls-16" x="1262.78" y="1404.41" width="86.65" height="158.76"/><path class="cls-20" d="M1354.1,1367.86h-96.04v-107.66c53.22,7.6,94.48,52.75,96.04,107.66Z"/><path class="cls-16" d="M1262.78,1363.14v-97.36c22.7,4.45,43.54,16.27,59.17,33.66,15.89,17.69,25.45,40.15,27.19,63.7h-86.36Z"/><rect class="cls-20" x="1130.14" y="1399.69" width="96.09" height="168.19"/><rect class="cls-16" x="1134.86" y="1404.41" width="86.65" height="158.76"/><path class="cls-20" d="M1226.23,1260.2v107.66h-96.04c.79-27.82,11.77-53.14,29.34-72.33,3.48-3.82,7.24-7.39,11.22-10.69,15.53-12.89,34.58-21.66,55.47-24.64Z"/><path class="cls-16" d="M1135.16,1363.14c1.74-23.56,11.3-46.02,27.19-63.7,15.62-17.39,36.47-29.21,59.17-33.66v97.36h-86.36Z"/><rect class="cls-20" x="1258.06" y="1599.71" width="96.09" height="168.66"/><rect class="cls-16" x="1262.78" y="1604.43" width="86.65" height="159.23"/><rect class="cls-20" x="1130.14" y="1599.71" width="96.09" height="168.66"/><rect class="cls-16" x="1134.86" y="1604.43" width="86.65" height="159.23"/><polygon class="cls-3" points="1226.23 1458.11 1226.23 1485.87 1130.14 1429.73 1130.14 1401.97 1226.23 1458.11"/><polygon class="cls-3" points="1354.15 1532.84 1354.15 1560.61 1258.06 1504.46 1258.06 1476.7 1354.15 1532.84"/><path class="cls-3" d="M1226.23,1317.25v17.26l-66.69-38.98c3.48-3.82,7.24-7.39,11.22-10.69l55.47,32.41Z"/><polygon class="cls-3" points="1312.86 1367.86 1283.33 1367.86 1258.06 1353.1 1258.06 1335.84 1312.86 1367.86"/><polygon class="cls-3" points="1226.23 1621.78 1226.23 1662.1 1130.14 1605.96 1130.14 1599.71 1188.44 1599.71 1226.23 1621.78"/><polygon class="cls-3" points="1354.15 1696.53 1354.15 1736.85 1258.06 1680.71 1258.06 1640.39 1354.15 1696.53"/></g><g><path class="cls-2" d="M2471.69,2159.06v429.14h-287.67v-429.14c0-1.07,.01-2.13,.04-3.21,1.71-77.95,65.43-140.63,143.8-140.63s142.09,62.67,143.8,140.63c.02,1.07,.04,2.13,.04,3.21Z"/><path class="cls-25" d="M2169.31,2588.21h317.09c12.05,0,21.83,9.78,21.83,21.83v43.3h-360.74v-43.3c0-12.05,9.78-21.83,21.83-21.83Z"/><rect class="cls-18" x="2147.48" y="2617.68" width="360.74" height="35.66"/><rect class="cls-20" x="2343.77" y="2187.69" width="96.09" height="168.19"/><rect class="cls-16" x="2348.49" y="2192.41" width="86.65" height="158.76"/><path class="cls-20" d="M2439.81,2155.86h-96.04v-107.66c53.22,7.6,94.48,52.75,96.04,107.66Z"/><path class="cls-16" d="M2348.49,2151.14v-97.36c22.7,4.45,43.54,16.27,59.17,33.66,15.89,17.69,25.45,40.15,27.19,63.7h-86.36Z"/><rect class="cls-20" x="2215.85" y="2187.69" width="96.09" height="168.19"/><rect class="cls-16" x="2220.57" y="2192.41" width="86.65" height="158.76"/><path class="cls-20" d="M2311.94,2048.2v107.66h-96.04c.79-27.82,11.77-53.14,29.34-72.33,3.48-3.82,7.24-7.39,11.22-10.69,15.53-12.89,34.58-21.66,55.47-24.64Z"/><path class="cls-16" d="M2220.86,2151.14c1.74-23.56,11.3-46.02,27.19-63.7,15.62-17.39,36.47-29.21,59.17-33.66v97.36h-86.36Z"/><rect class="cls-20" x="2343.77" y="2387.71" width="96.09" height="168.66"/><rect class="cls-16" x="2348.49" y="2392.43" width="86.65" height="159.23"/><rect class="cls-20" x="2215.85" y="2387.71" width="96.09" height="168.66"/><rect class="cls-16" x="2220.57" y="2392.43" width="86.65" height="159.23"/><polygon class="cls-3" points="2311.94 2246.11 2311.94 2273.87 2215.85 2217.73 2215.85 2189.97 2311.94 2246.11"/><polygon class="cls-3" points="2439.86 2320.84 2439.86 2348.61 2343.77 2292.46 2343.77 2264.7 2439.86 2320.84"/><path class="cls-3" d="M2311.94,2105.25v17.26l-66.69-38.98c3.48-3.82,7.24-7.39,11.22-10.69l55.47,32.41Z"/><polygon class="cls-3" points="2398.57 2155.86 2369.04 2155.86 2343.77 2141.1 2343.77 2123.84 2398.57 2155.86"/><polygon class="cls-3" points="2311.94 2409.78 2311.94 2450.1 2215.85 2393.96 2215.85 2387.71 2274.15 2387.71 2311.94 2409.78"/><polygon class="cls-3" points="2439.86 2484.53 2439.86 2524.85 2343.77 2468.71 2343.77 2428.39 2439.86 2484.53"/></g><g><path class="cls-2" d="M2471.69,1371.06v429.14h-287.67v-429.14c0-1.07,.01-2.13,.04-3.21,1.71-77.95,65.43-140.63,143.8-140.63s142.09,62.67,143.8,140.63c.02,1.07,.04,2.13,.04,3.21Z"/><path class="cls-25" d="M2169.31,1800.21h317.09c12.05,0,21.83,9.78,21.83,21.83v43.3h-360.74v-43.3c0-12.05,9.78-21.83,21.83-21.83Z"/><rect class="cls-18" x="2147.48" y="1829.68" width="360.74" height="35.66"/><rect class="cls-20" x="2343.77" y="1399.69" width="96.09" height="168.19"/><rect class="cls-16" x="2348.49" y="1404.41" width="86.65" height="158.76"/><path class="cls-20" d="M2439.81,1367.86h-96.04v-107.66c53.22,7.6,94.48,52.75,96.04,107.66Z"/><path class="cls-16" d="M2348.49,1363.14v-97.36c22.7,4.45,43.54,16.27,59.17,33.66,15.89,17.69,25.45,40.15,27.19,63.7h-86.36Z"/><rect class="cls-20" x="2215.85" y="1399.69" width="96.09" height="168.19"/><rect class="cls-16" x="2220.57" y="1404.41" width="86.65" height="158.76"/><path class="cls-20" d="M2311.94,1260.2v107.66h-96.04c.79-27.82,11.77-53.14,29.34-72.33,3.48-3.82,7.24-7.39,11.22-10.69,15.53-12.89,34.58-21.66,55.47-24.64Z"/><path class="cls-16" d="M2220.86,1363.14c1.74-23.56,11.3-46.02,27.19-63.7,15.62-17.39,36.47-29.21,59.17-33.66v97.36h-86.36Z"/><rect class="cls-20" x="2343.77" y="1599.71" width="96.09" height="168.66"/><rect class="cls-16" x="2348.49" y="1604.43" width="86.65" height="159.23"/><rect class="cls-20" x="2215.85" y="1599.71" width="96.09" height="168.66"/><rect class="cls-16" x="2220.57" y="1604.43" width="86.65" height="159.23"/><polygon class="cls-3" points="2311.94 1458.11 2311.94 1485.87 2215.85 1429.73 2215.85 1401.97 2311.94 1458.11"/><polygon class="cls-3" points="2439.86 1532.84 2439.86 1560.61 2343.77 1504.46 2343.77 1476.7 2439.86 1532.84"/><path class="cls-3" d="M2311.94,1317.25v17.26l-66.69-38.98c3.48-3.82,7.24-7.39,11.22-10.69l55.47,32.41Z"/><polygon class="cls-3" points="2398.57 1367.86 2369.04 1367.86 2343.77 1353.1 2343.77 1335.84 2398.57 1367.86"/><polygon class="cls-3" points="2311.94 1621.78 2311.94 1662.1 2215.85 1605.96 2215.85 1599.71 2274.15 1599.71 2311.94 1621.78"/><polygon class="cls-3" points="2439.86 1696.53 2439.86 1736.85 2343.77 1680.71 2343.77 1640.39 2439.86 1696.53"/></g><g><path class="cls-2" d="M859.29,2159.06v429.14h-287.67v-429.14c0-1.07,.01-2.13,.04-3.21,1.71-77.95,65.43-140.63,143.8-140.63s142.09,62.67,143.8,140.63c.02,1.07,.04,2.13,.04,3.21Z"/><path class="cls-25" d="M556.92,2588.21h317.09c12.05,0,21.83,9.78,21.83,21.83v43.3h-360.74v-43.3c0-12.05,9.78-21.83,21.83-21.83Z"/><rect class="cls-18" x="535.09" y="2617.68" width="360.74" height="35.66"/><rect class="cls-20" x="731.38" y="2187.69" width="96.09" height="168.19"/><rect class="cls-16" x="736.09" y="2192.41" width="86.65" height="158.76"/><path class="cls-20" d="M827.41,2155.86h-96.04v-107.66c53.22,7.6,94.48,52.75,96.04,107.66Z"/><path class="cls-16" d="M736.09,2151.14v-97.36c22.7,4.45,43.54,16.27,59.17,33.66,15.89,17.69,25.45,40.15,27.19,63.7h-86.36Z"/><rect class="cls-20" x="603.46" y="2187.69" width="96.09" height="168.19"/><rect class="cls-16" x="608.17" y="2192.41" width="86.65" height="158.76"/><path class="cls-20" d="M699.54,2048.2v107.66h-96.04c.79-27.82,11.77-53.14,29.34-72.33,3.48-3.82,7.24-7.39,11.22-10.69,15.53-12.89,34.58-21.66,55.47-24.64Z"/><path class="cls-16" d="M608.47,2151.14c1.74-23.56,11.3-46.02,27.19-63.7,15.62-17.39,36.47-29.21,59.17-33.66v97.36h-86.36Z"/><rect class="cls-20" x="731.38" y="2387.71" width="96.09" height="168.66"/><rect class="cls-16" x="736.09" y="2392.43" width="86.65" height="159.23"/><rect class="cls-20" x="603.46" y="2387.71" width="96.09" height="168.66"/><rect class="cls-16" x="608.17" y="2392.43" width="86.65" height="159.23"/><polygon class="cls-3" points="699.54 2246.11 699.54 2273.87 603.46 2217.73 603.46 2189.97 699.54 2246.11"/><polygon class="cls-3" points="827.46 2320.84 827.46 2348.61 731.38 2292.46 731.38 2264.7 827.46 2320.84"/><path class="cls-3" d="M699.54,2105.25v17.26l-66.69-38.98c3.48-3.82,7.24-7.39,11.22-10.69l55.47,32.41Z"/><polygon class="cls-3" points="786.17 2155.86 756.64 2155.86 731.38 2141.1 731.38 2123.84 786.17 2155.86"/><polygon class="cls-3" points="699.54 2409.78 699.54 2450.1 603.46 2393.96 603.46 2387.71 661.76 2387.71 699.54 2409.78"/><polygon class="cls-3" points="827.46 2484.53 827.46 2524.85 731.38 2468.71 731.38 2428.39 827.46 2484.53"/></g><g><path class="cls-2" d="M859.29,1371.06v429.14h-287.67v-429.14c0-1.07,.01-2.13,.04-3.21,1.71-77.95,65.43-140.63,143.8-140.63s142.09,62.67,143.8,140.63c.02,1.07,.04,2.13,.04,3.21Z"/><path class="cls-25" d="M556.92,1800.21h317.09c12.05,0,21.83,9.78,21.83,21.83v43.3h-360.74v-43.3c0-12.05,9.78-21.83,21.83-21.83Z"/><rect class="cls-18" x="535.09" y="1829.68" width="360.74" height="35.66"/><rect class="cls-20" x="731.38" y="1399.69" width="96.09" height="168.19"/><rect class="cls-16" x="736.09" y="1404.41" width="86.65" height="158.76"/><path class="cls-20" d="M827.41,1367.86h-96.04v-107.66c53.22,7.6,94.48,52.75,96.04,107.66Z"/><path class="cls-16" d="M736.09,1363.14v-97.36c22.7,4.45,43.54,16.27,59.17,33.66,15.89,17.69,25.45,40.15,27.19,63.7h-86.36Z"/><rect class="cls-20" x="603.46" y="1399.69" width="96.09" height="168.19"/><rect class="cls-16" x="608.17" y="1404.41" width="86.65" height="158.76"/><path class="cls-20" d="M699.54,1260.2v107.66h-96.04c.79-27.82,11.77-53.14,29.34-72.33,3.48-3.82,7.24-7.39,11.22-10.69,15.53-12.89,34.58-21.66,55.47-24.64Z"/><path class="cls-16" d="M608.47,1363.14c1.74-23.56,11.3-46.02,27.19-63.7,15.62-17.39,36.47-29.21,59.17-33.66v97.36h-86.36Z"/><rect class="cls-20" x="731.38" y="1599.71" width="96.09" height="168.66"/><rect class="cls-16" x="736.09" y="1604.43" width="86.65" height="159.23"/><rect class="cls-20" x="603.46" y="1599.71" width="96.09" height="168.66"/><rect class="cls-16" x="608.17" y="1604.43" width="86.65" height="159.23"/><polygon class="cls-3" points="699.54 1458.11 699.54 1485.87 603.46 1429.73 603.46 1401.97 699.54 1458.11"/><polygon class="cls-3" points="827.46 1532.84 827.46 1560.61 731.38 1504.46 731.38 1476.7 827.46 1532.84"/><path class="cls-3" d="M699.54,1317.25v17.26l-66.69-38.98c3.48-3.82,7.24-7.39,11.22-10.69l55.47,32.41Z"/><polygon class="cls-3" points="786.17 1367.86 756.64 1367.86 731.38 1353.1 731.38 1335.84 786.17 1367.86"/><polygon class="cls-3" points="699.54 1621.78 699.54 1662.1 603.46 1605.96 603.46 1599.71 661.76 1599.71 699.54 1621.78"/><polygon class="cls-3" points="827.46 1696.53 827.46 1736.85 731.38 1680.71 731.38 1640.39 827.46 1696.53"/></g><g><path class="cls-2" d="M2998.37,2159.06v429.14h-287.67v-429.14c0-1.07,.01-2.13,.04-3.21,1.71-77.95,65.43-140.63,143.8-140.63s142.09,62.67,143.8,140.63c.02,1.07,.04,2.13,.04,3.21Z"/><path class="cls-25" d="M2696,2588.21h317.09c12.05,0,21.83,9.78,21.83,21.83v43.3h-360.74v-43.3c0-12.05,9.78-21.83,21.83-21.83Z"/><rect class="cls-18" x="2674.17" y="2617.68" width="360.74" height="35.66"/><rect class="cls-20" x="2870.46" y="2187.69" width="96.09" height="168.19"/><rect class="cls-16" x="2875.17" y="2192.41" width="86.65" height="158.76"/><path class="cls-20" d="M2966.49,2155.86h-96.04v-107.66c53.22,7.6,94.48,52.75,96.04,107.66Z"/><path class="cls-16" d="M2875.17,2151.14v-97.36c22.7,4.45,43.54,16.27,59.17,33.66,15.89,17.69,25.45,40.15,27.19,63.7h-86.36Z"/><rect class="cls-20" x="2742.54" y="2187.69" width="96.09" height="168.19"/><rect class="cls-16" x="2747.25" y="2192.41" width="86.65" height="158.76"/><path class="cls-20" d="M2838.62,2048.2v107.66h-96.04c.79-27.82,11.77-53.14,29.34-72.33,3.48-3.82,7.24-7.39,11.22-10.69,15.53-12.89,34.58-21.66,55.47-24.64Z"/><path class="cls-16" d="M2747.55,2151.14c1.74-23.56,11.3-46.02,27.19-63.7,15.62-17.39,36.47-29.21,59.17-33.66v97.36h-86.36Z"/><rect class="cls-20" x="2870.46" y="2387.71" width="96.09" height="168.66"/><rect class="cls-16" x="2875.17" y="2392.43" width="86.65" height="159.23"/><rect class="cls-20" x="2742.54" y="2387.71" width="96.09" height="168.66"/><rect class="cls-16" x="2747.25" y="2392.43" width="86.65" height="159.23"/><polygon class="cls-3" points="2838.62 2246.11 2838.62 2273.87 2742.54 2217.73 2742.54 2189.97 2838.62 2246.11"/><polygon class="cls-3" points="2966.54 2320.84 2966.54 2348.61 2870.46 2292.46 2870.46 2264.7 2966.54 2320.84"/><path class="cls-3" d="M2838.62,2105.25v17.26l-66.69-38.98c3.48-3.82,7.24-7.39,11.22-10.69l55.47,32.41Z"/><polygon class="cls-3" points="2925.25 2155.86 2895.72 2155.86 2870.46 2141.1 2870.46 2123.84 2925.25 2155.86"/><polygon class="cls-3" points="2838.62 2409.78 2838.62 2450.1 2742.54 2393.96 2742.54 2387.71 2800.84 2387.71 2838.62 2409.78"/><polygon class="cls-3" points="2966.54 2484.53 2966.54 2524.85 2870.46 2468.71 2870.46 2428.39 2966.54 2484.53"/></g><g><path class="cls-2" d="M2998.37,1371.06v429.14h-287.67v-429.14c0-1.07,.01-2.13,.04-3.21,1.71-77.95,65.43-140.63,143.8-140.63s142.09,62.67,143.8,140.63c.02,1.07,.04,2.13,.04,3.21Z"/><path class="cls-25" d="M2696,1800.21h317.09c12.05,0,21.83,9.78,21.83,21.83v43.3h-360.74v-43.3c0-12.05,9.78-21.83,21.83-21.83Z"/><rect class="cls-18" x="2674.17" y="1829.68" width="360.74" height="35.66"/><rect class="cls-20" x="2870.46" y="1399.69" width="96.09" height="168.19"/><rect class="cls-16" x="2875.17" y="1404.41" width="86.65" height="158.76"/><path class="cls-20" d="M2966.49,1367.86h-96.04v-107.66c53.22,7.6,94.48,52.75,96.04,107.66Z"/><path class="cls-16" d="M2875.17,1363.14v-97.36c22.7,4.45,43.54,16.27,59.17,33.66,15.89,17.69,25.45,40.15,27.19,63.7h-86.36Z"/><rect class="cls-20" x="2742.54" y="1399.69" width="96.09" height="168.19"/><rect class="cls-16" x="2747.25" y="1404.41" width="86.65" height="158.76"/><path class="cls-20" d="M2838.62,1260.2v107.66h-96.04c.79-27.82,11.77-53.14,29.34-72.33,3.48-3.82,7.24-7.39,11.22-10.69,15.53-12.89,34.58-21.66,55.47-24.64Z"/><path class="cls-16" d="M2747.55,1363.14c1.74-23.56,11.3-46.02,27.19-63.7,15.62-17.39,36.47-29.21,59.17-33.66v97.36h-86.36Z"/><rect class="cls-20" x="2870.46" y="1599.71" width="96.09" height="168.66"/><rect class="cls-16" x="2875.17" y="1604.43" width="86.65" height="159.23"/><rect class="cls-20" x="2742.54" y="1599.71" width="96.09" height="168.66"/><rect class="cls-16" x="2747.25" y="1604.43" width="86.65" height="159.23"/><polygon class="cls-3" points="2838.62 1458.11 2838.62 1485.87 2742.54 1429.73 2742.54 1401.97 2838.62 1458.11"/><polygon class="cls-3" points="2966.54 1532.84 2966.54 1560.61 2870.46 1504.46 2870.46 1476.7 2966.54 1532.84"/><path class="cls-3" d="M2838.62,1317.25v17.26l-66.69-38.98c3.48-3.82,7.24-7.39,11.22-10.69l55.47,32.41Z"/><polygon class="cls-3" points="2925.25 1367.86 2895.72 1367.86 2870.46 1353.1 2870.46 1335.84 2925.25 1367.86"/><polygon class="cls-3" points="2838.62 1621.78 2838.62 1662.1 2742.54 1605.96 2742.54 1599.71 2800.84 1599.71 2838.62 1621.78"/><polygon class="cls-3" points="2966.54 1696.53 2966.54 1736.85 2870.46 1680.71 2870.46 1640.39 2966.54 1696.53"/></g><g><circle class="cls-2" cx="1785" cy="1443.92" r="265.19"/><path class="cls-20" d="M1747.58,1457.78h-196.35c3.01,51.81,22.81,100.43,56.81,139.54l139.54-139.54Z"/><path class="cls-16" d="M1608.34,1589.95c-30.15-36.32-47.96-80.07-51.75-127.17h178.92l-127.17,127.17Z"/><path class="cls-20" d="M1769.5,1210.25c-51.2,3.32-99.21,23.07-137.9,56.71l137.9,137.9v-194.62Z"/><path class="cls-16" d="M1638.97,1267.26c35.87-29.78,79.07-47.54,125.53-51.62v177.15l-125.53-125.53Z"/><path class="cls-20" d="M1747.58,1426.78l-138-138c-34.21,38.58-54.46,86.65-58.15,138h196.15Z"/><path class="cls-16" d="M1556.86,1421.78c4.43-46.64,22.65-89.88,52.98-125.67l125.67,125.67h-178.65Z"/><path class="cls-20" d="M1800.5,1210.25v194.62l137.9-137.9c-38.69-33.64-86.71-53.39-137.9-56.71Z"/><path class="cls-16" d="M1805.5,1215.64c46.47,4.08,89.66,21.84,125.53,51.62l-125.53,125.53v-177.15Z"/><path class="cls-20" d="M1769.5,1479.7l-139.64,139.64c38.99,34.57,87.67,54.87,139.64,58.25v-197.89Z"/><path class="cls-16" d="M1764.5,1672.19c-47.28-4.15-91.09-22.42-127.31-53.11l127.31-127.31v180.42Z"/><path class="cls-20" d="M1822.42,1426.78h196.15c-3.69-51.35-23.94-99.42-58.15-138l-138,138Z"/><path class="cls-16" d="M1834.49,1421.78l125.67-125.67c30.32,35.79,48.55,79.03,52.98,125.67h-178.65Z"/><path class="cls-20" d="M1800.5,1479.7v197.89c51.97-3.37,100.65-23.68,139.64-58.25l-139.64-139.64Z"/><path class="cls-16" d="M1805.5,1491.78l127.31,127.31c-36.22,30.69-80.03,48.97-127.31,53.11v-180.42Z"/><path class="cls-20" d="M1822.42,1457.78l139.54,139.54c34-39.1,53.81-87.73,56.81-139.54h-196.35Z"/><path class="cls-16" d="M1834.49,1462.78h178.92c-3.79,47.09-21.6,90.85-51.75,127.17l-127.17-127.17Z"/></g><g class="cls-21"><g class="cls-12"><path class="cls-10" d="M3204.67,1173.18h-530.69l530.69,619.93v1058.66h-958.71l-907.45-887.08v583.75h54.12v42.92c0,25.68-20.81,46.5-46.5,46.5h-.32v22.01h.32c25.69,0,46.5,20.82,46.5,46.5v42.92l37.69,59.15v43.33h-433v-43.33l37.68-59.15v-42.92c0-25.68,20.82-46.5,46.5-46.5h.32v-22.01h-.32c-25.68,0-46.5-20.82-46.5-46.5v-42.92h54.12V1331.11h-54.12v-42.92c0-25.68,20.82-46.5,46.5-46.5h.32v-22.01h-.32c-25.68,0-46.5-20.82-46.5-46.5h-377.74c0,25.68-20.82,46.5-46.5,46.5h-.32v22.01h.32c25.68,0,46.5,20.82,46.5,46.5v42.92h-54.13v1217.33h54.13v42.92c0,25.68-20.82,46.5-46.5,46.5h-.32v22.01h.32c25.68,0,46.5,20.82,46.5,46.5v42.92l37.68,59.15v43.33H261.94v-43.33l37.68-59.15v-42.92c0-25.68,20.82-46.5,46.5-46.5h.33v-22.01h-.33c-25.68,0-46.5-20.82-46.5-46.5v-42.92h54.13V1331.11h-54.13v-42.92c0-25.68,20.82-46.5,46.5-46.5h.33v-22.01h-.33c-25.68,0-46.5-20.82-46.5-46.5v-42.92l-37.68-59.15v-43.34H3204.67v145.41Z"/></g></g><rect class="cls-10" x="491.7" y="848.14" width="2529.06" height="303.32"/><g class="cls-8"><g class="cls-23"><path class="cls-10" d="M3953.15,1175.71h-530.69l530.69,619.93v1058.66h-958.71l-907.45-887.08v583.75h54.12v42.92c0,25.68-20.81,46.5-46.5,46.5h-.32v22.01h.32c25.69,0,46.5,20.82,46.5,46.5v42.92l37.69,59.15v43.33h-433v-43.33l37.68-59.15v-42.92c0-25.68,20.82-46.5,46.5-46.5h.32v-22.01h-.32c-25.68,0-46.5-20.82-46.5-46.5v-42.92h54.12V1333.64h-54.12v-42.92c0-25.68,20.82-46.5,46.5-46.5h.32v-22.01h-.32c-25.68,0-46.5-20.82-46.5-46.5h-377.74c0,25.68-20.82,46.5-46.5,46.5h-.32v22.01h.32c25.68,0,46.5,20.82,46.5,46.5v42.92h-54.13v1217.33h54.13v42.92c0,25.68-20.82,46.5-46.5,46.5h-.32v22.01h.32c25.68,0,46.5,20.82,46.5,46.5v42.92l37.68,59.15v43.33h-433v-43.33l37.68-59.15v-42.92c0-25.68,20.82-46.5,46.5-46.5h.33v-22.01h-.33c-25.68,0-46.5-20.82-46.5-46.5v-42.92h54.13V1333.64h-54.13v-42.92c0-25.68,20.82-46.5,46.5-46.5h.33v-22.01h-.33c-25.68,0-46.5-20.82-46.5-46.5v-42.92l-37.68-59.15v-43.34H3953.15v145.41Z"/></g></g><g class="cls-13"><g class="cls-24"><path class="cls-10" d="M5269.57,1174h-530.69l530.69,619.93v1058.66h-958.71l-907.45-887.08v583.75h54.12v42.92c0,25.68-20.81,46.5-46.5,46.5h-.32v22.01h.32c25.69,0,46.5,20.82,46.5,46.5v42.92l37.69,59.15v43.33h-433v-43.33l37.68-59.15v-42.92c0-25.68,20.82-46.5,46.5-46.5h.32v-22.01h-.32c-25.68,0-46.5-20.82-46.5-46.5v-42.92h54.12V1331.93h-54.12v-42.92c0-25.68,20.82-46.5,46.5-46.5h.32v-22.01h-.32c-25.68,0-46.5-20.82-46.5-46.5h-377.74c0,25.68-20.82,46.5-46.5,46.5h-.32v22.01h.32c25.68,0,46.5,20.82,46.5,46.5v42.92h-54.13v1217.33h54.13v42.92c0,25.68-20.82,46.5-46.5,46.5h-.32v22.01h.32c25.68,0,46.5,20.82,46.5,46.5v42.92l37.68,59.15v43.33h-433v-43.33l37.68-59.15v-42.92c0-25.68,20.82-46.5,46.5-46.5h.33v-22.01h-.33c-25.68,0-46.5-20.82-46.5-46.5v-42.92h54.13V1331.93h-54.13v-42.92c0-25.68,20.82-46.5,46.5-46.5h.33v-22.01h-.33c-25.68,0-46.5-20.82-46.5-46.5v-42.92l-37.68-59.15v-43.34h2942.73v145.41Z"/></g></g><g><g><g><rect class="cls-1" x="269.19" y="1331.62" width="249.39" height="1217.33"/><path class="cls-18" d="M261.56,1242.2h264.64c25.66,0,46.5,20.84,46.5,46.5v42.92H215.06v-42.92c0-25.66,20.84-46.5,46.5-46.5Z"/><path class="cls-18" d="M215.06,1130.77h357.64v42.92c0,25.66-20.84,46.5-46.5,46.5H261.56c-25.66,0-46.5-20.84-46.5-46.5v-42.92h0Z"/><rect class="cls-6" x="261.89" y="1220.19" width="263.99" height="22.01"/><rect class="cls-6" x="261.89" y="2638.37" width="263.99" height="22.01"/><polygon class="cls-6" points="572.7 1130.77 215.06 1130.77 177.38 1071.62 610.38 1071.62 572.7 1130.77"/><rect class="cls-18" x="177.38" y="1028.28" width="433" height="43.33"/><path class="cls-18" d="M261.56,2548.95h264.64c25.66,0,46.5,20.84,46.5,46.5v42.92H215.06v-42.92c0-25.66,20.84-46.5,46.5-46.5Z" transform="translate(787.76 5187.32) rotate(180)"/><path class="cls-18" d="M215.06,2660.38h357.64v42.92c0,25.66-20.84,46.5-46.5,46.5H261.56c-25.66,0-46.5-20.84-46.5-46.5v-42.92h0Z" transform="translate(787.76 5410.18) rotate(180)"/><polygon class="cls-6" points="215.06 2749.8 572.7 2749.8 610.38 2808.95 177.38 2808.95 215.06 2749.8"/><rect class="cls-18" x="177.38" y="2808.95" width="433" height="43.33" transform="translate(787.76 5661.24) rotate(180)"/><g><rect class="cls-25" x="290.07" y="1358.79" width="34.94" height="1166.69" rx="17.47" ry="17.47"/><rect class="cls-25" x="347.63" y="1358.79" width="34.94" height="1166.69" rx="17.47" ry="17.47"/><path class="cls-25" d="M422.66,2525.48h0c-9.65,0-17.47-7.82-17.47-17.47V1376.26c0-9.65,7.82-17.47,17.47-17.47h0c9.65,0,17.47,7.82,17.47,17.47v1131.74c0,9.65-7.82,17.47-17.47,17.47Z"/><path class="cls-25" d="M480.22,2525.48h0c-9.65,0-17.47-7.82-17.47-17.47V1376.26c0-9.65,7.82-17.47,17.47-17.47h0c9.65,0,17.47,7.82,17.47,17.47v1131.74c0,9.65-7.82,17.47-17.47,17.47Z"/></g></g><g><rect class="cls-1" x="1007.66" y="1331.62" width="249.39" height="1217.33"/><path class="cls-18" d="M1000.03,1242.2h264.64c25.66,0,46.5,20.84,46.5,46.5v42.92h-357.64v-42.92c0-25.66,20.84-46.5,46.5-46.5Z"/><path class="cls-18" d="M953.53,1130.77h357.64v42.92c0,25.66-20.84,46.5-46.5,46.5h-264.64c-25.66,0-46.5-20.84-46.5-46.5v-42.92h0Z"/><polygon class="cls-6" points="1311.17 1130.77 953.53 1130.77 915.85 1071.62 1348.85 1071.62 1311.17 1130.77"/><rect class="cls-18" x="915.85" y="1028.28" width="433" height="43.33"/><path class="cls-18" d="M1000.03,2548.95h264.64c25.66,0,46.5,20.84,46.5,46.5v42.92h-357.64v-42.92c0-25.66,20.84-46.5,46.5-46.5Z" transform="translate(2264.7 5187.32) rotate(180)"/><path class="cls-18" d="M953.53,2660.38h357.64v42.92c0,25.66-20.84,46.5-46.5,46.5h-264.64c-25.66,0-46.5-20.84-46.5-46.5v-42.92h0Z" transform="translate(2264.7 5410.18) rotate(180)"/><polygon class="cls-6" points="953.53 2749.8 1311.17 2749.8 1348.85 2808.95 915.85 2808.95 953.53 2749.8"/><rect class="cls-18" x="915.85" y="2808.95" width="433" height="43.33" transform="translate(2264.7 5661.24) rotate(180)"/><g><path class="cls-25" d="M1046.02,2525.48h0c-9.65,0-17.47-7.82-17.47-17.47V1376.26c0-9.65,7.82-17.47,17.47-17.47h0c9.65,0,17.47,7.82,17.47,17.47v1131.74c0,9.65-7.82,17.47-17.47,17.47Z"/><rect class="cls-25" x="1086.1" y="1358.79" width="34.94" height="1166.69" rx="17.47" ry="17.47"/><rect class="cls-25" x="1143.66" y="1358.79" width="34.94" height="1166.69" rx="17.47" ry="17.47"/><rect class="cls-25" x="1201.21" y="1358.79" width="34.94" height="1166.69" rx="17.47" ry="17.47"/></g><rect class="cls-6" x="1000.35" y="2638.37" width="263.99" height="22.01"/><rect class="cls-6" x="1000.35" y="1220.19" width="263.99" height="22.01"/></g><g><rect class="cls-1" x="3051.43" y="1331.62" width="249.39" height="1217.33"/><path class="cls-18" d="M3043.8,1242.2h264.64c25.66,0,46.5,20.84,46.5,46.5v42.92h-357.64v-42.92c0-25.66,20.84-46.5,46.5-46.5Z"/><path class="cls-18" d="M2997.3,1130.77h357.64v42.92c0,25.66-20.84,46.5-46.5,46.5h-264.64c-25.66,0-46.5-20.84-46.5-46.5v-42.92h0Z"/><polygon class="cls-6" points="3354.94 1130.77 2997.3 1130.77 2959.62 1071.62 3392.62 1071.62 3354.94 1130.77"/><rect class="cls-18" x="2959.62" y="1028.28" width="433" height="43.33"/><path class="cls-18" d="M3043.8,2548.95h264.64c25.66,0,46.5,20.84,46.5,46.5v42.92h-357.64v-42.92c0-25.66,20.84-46.5,46.5-46.5Z" transform="translate(6352.24 5187.32) rotate(180)"/><path class="cls-18" d="M2997.3,2660.38h357.64v42.92c0,25.66-20.84,46.5-46.5,46.5h-264.64c-25.66,0-46.5-20.84-46.5-46.5v-42.92h0Z" transform="translate(6352.24 5410.18) rotate(180)"/><polygon class="cls-6" points="2997.3 2749.8 3354.94 2749.8 3392.62 2808.95 2959.62 2808.95 2997.3 2749.8"/><rect class="cls-18" x="2959.62" y="2808.95" width="433" height="43.33" transform="translate(6352.24 5661.24) rotate(180)"/><g><path class="cls-25" d="M3089.78,2525.48h0c-9.65,0-17.47-7.82-17.47-17.47V1376.26c0-9.65,7.82-17.47,17.47-17.47h0c9.65,0,17.47,7.82,17.47,17.47v1131.74c0,9.65-7.82,17.47-17.47,17.47Z"/><path class="cls-25" d="M3147.34,2525.48h0c-9.65,0-17.47-7.82-17.47-17.47V1376.26c0-9.65,7.82-17.47,17.47-17.47h0c9.65,0,17.47,7.82,17.47,17.47v1131.74c0,9.65-7.82,17.47-17.47,17.47Z"/><rect class="cls-25" x="3187.42" y="1358.79" width="34.94" height="1166.69" rx="17.47" ry="17.47"/><rect class="cls-25" x="3244.98" y="1358.79" width="34.94" height="1166.69" rx="17.47" ry="17.47"/></g><rect class="cls-6" x="3044.12" y="1220.19" width="263.99" height="22.01"/><rect class="cls-6" x="3044.12" y="2638.37" width="263.99" height="22.01"/></g><g><rect class="cls-1" x="2324.91" y="1331.62" width="249.39" height="1217.33"/><path class="cls-18" d="M2317.29,1242.2h264.64c25.66,0,46.5,20.84,46.5,46.5v42.92h-357.64v-42.92c0-25.66,20.84-46.5,46.5-46.5Z"/><path class="cls-18" d="M2270.79,1130.77h357.64v42.92c0,25.66-20.84,46.5-46.5,46.5h-264.64c-25.66,0-46.5-20.84-46.5-46.5v-42.92h0Z"/><polygon class="cls-6" points="2628.42 1130.77 2270.79 1130.77 2233.1 1071.62 2666.1 1071.62 2628.42 1130.77"/><rect class="cls-18" x="2233.1" y="1028.28" width="433" height="43.33"/><path class="cls-18" d="M2317.29,2548.95h264.64c25.66,0,46.5,20.84,46.5,46.5v42.92h-357.64v-42.92c0-25.66,20.84-46.5,46.5-46.5Z" transform="translate(4899.21 5187.32) rotate(180)"/><path class="cls-18" d="M2270.79,2660.38h357.64v42.92c0,25.66-20.84,46.5-46.5,46.5h-264.64c-25.66,0-46.5-20.84-46.5-46.5v-42.92h0Z" transform="translate(4899.21 5410.18) rotate(180)"/><polygon class="cls-6" points="2270.79 2749.8 2628.42 2749.8 2666.1 2808.95 2233.1 2808.95 2270.79 2749.8"/><rect class="cls-18" x="2233.1" y="2808.95" width="433" height="43.33" transform="translate(4899.21 5661.24) rotate(180)"/><g><path class="cls-25" d="M2363.27,2525.48h0c-9.65,0-17.47-7.82-17.47-17.47V1376.26c0-9.65,7.82-17.47,17.47-17.47h0c9.65,0,17.47,7.82,17.47,17.47v1131.74c0,9.65-7.82,17.47-17.47,17.47Z"/><path class="cls-25" d="M2420.83,2525.48h0c-9.65,0-17.47-7.82-17.47-17.47V1376.26c0-9.65,7.82-17.47,17.47-17.47h0c9.65,0,17.47,7.82,17.47,17.47v1131.74c0,9.65-7.82,17.47-17.47,17.47Z"/><path class="cls-25" d="M2478.38,2525.48h0c-9.65,0-17.47-7.82-17.47-17.47V1376.26c0-9.65,7.82-17.47,17.47-17.47h0c9.65,0,17.47,7.82,17.47,17.47v1131.74c0,9.65-7.82,17.47-17.47,17.47Z"/><path class="cls-25" d="M2535.94,2525.48h0c-9.65,0-17.47-7.82-17.47-17.47V1376.26c0-9.65,7.82-17.47,17.47-17.47h0c9.65,0,17.47,7.82,17.47,17.47v1131.74c0,9.65-7.82,17.47-17.47,17.47Z"/></g><rect class="cls-6" x="2317.61" y="2638.37" width="263.99" height="22.01"/><rect class="cls-6" x="2317.61" y="1220.19" width="263.99" height="22.01"/></g></g><g><rect class="cls-9" x="103" y="708.28" width="3364" height="64"/><rect class="cls-5" y="554.29" width="3570" height="154"/><rect class="cls-14" x="313.87" y="250.23" width="2942.26" height="46.05"/><path class="cls-25" d="M313.87,296.28v258H3256.13V296.28H313.87Zm163.63,216.34h-36v-174.67h36v174.67Zm82.67,0h-36v-174.67h36v174.67Zm82.67,0h-36v-174.67h36v174.67Zm82.67,0h-36v-174.67h36v174.67Zm82.67,0h-36v-174.67h36v174.67Zm82.67,0h-36v-174.67h36v174.67Zm82.67,0h-36v-174.67h36v174.67Zm82.67,0h-36v-174.67h36v174.67Zm82.67,0h-36v-174.67h36v174.67Zm82.67,0h-36v-174.67h36v174.67Zm82.67,0h-36v-174.67h36v174.67Zm82.67,0h-36v-174.67h36v174.67Zm82.67,0h-36v-174.67h36v174.67Zm82.67,0h-36v-174.67h36v174.67Zm82.67,0h-36v-174.67h36v174.67Zm82.67,0h-36v-174.67h36v174.67Zm82.67,0h-36v-174.67h36v174.67Zm82.67,0h-36v-174.67h36v174.67Zm82.67,0h-36v-174.67h36v174.67Zm82.67,0h-36v-174.67h36v174.67Zm82.67,0h-36v-174.67h36v174.67Zm82.67,0h-36v-174.67h36v174.67Zm82.67,0h-36v-174.67h36v174.67Zm82.67,0h-36v-174.67h36v174.67Zm82.67,0h-36v-174.67h36v174.67Zm82.67,0h-36v-174.67h36v174.67Zm82.67,0h-36v-174.67h36v174.67Zm82.67,0h-36v-174.67h36v174.67Zm82.67,0h-36v-174.67h36v174.67Zm82.67,0h-36v-174.67h36v174.67Zm82.67,0h-36v-174.67h36v174.67Zm82.67,0h-36v-174.67h36v174.67Zm82.67,0h-36v-174.67h36v174.67Z"/><polygon class="cls-9" points="633.57 554.29 1774.14 0 2936.43 554.29 633.57 554.29"/><polygon class="cls-14" points="874.62 499.29 1776.42 61.04 2695.38 499.29 874.62 499.29"/><polygon class="cls-5" points="931.12 486.29 1776.47 75.47 2637.92 486.29 931.12 486.29"/><rect class="cls-25" x="300.64" y="187.57" width="156.99" height="62.67"/><rect class="cls-25" x="3112.37" y="187.57" width="156.99" height="62.67"/><g><path class="cls-5" d="M145.35,772.28H3424.65v227.08c0,15.96-12.96,28.92-28.92,28.92H174.27c-15.96,0-28.92-12.96-28.92-28.92v-227.08h0Z"/><g><rect class="cls-9" x="254.74" y="817.03" width="82.27" height="169.51" rx="41.13" ry="41.13"/><rect class="cls-9" x="429.93" y="817.03" width="82.27" height="169.51" rx="41.13" ry="41.13"/><rect class="cls-9" x="605.12" y="817.03" width="82.27" height="169.51" rx="41.13" ry="41.13"/><rect class="cls-9" x="780.31" y="817.03" width="82.27" height="169.51" rx="41.13" ry="41.13"/><path class="cls-9" d="M996.64,986.54h0c-22.72,0-41.13-18.42-41.13-41.13v-87.24c0-22.72,18.42-41.13,41.13-41.13h0c22.72,0,41.13,18.42,41.13,41.13v87.24c0,22.72-18.42,41.13-41.13,41.13Z"/><rect class="cls-9" x="1130.69" y="817.03" width="82.27" height="169.51" rx="41.13" ry="41.13"/><rect class="cls-9" x="1305.89" y="817.03" width="82.27" height="169.51" rx="41.13" ry="41.13"/><rect class="cls-9" x="1481.08" y="817.03" width="82.27" height="169.51" rx="41.13" ry="41.13"/><rect class="cls-9" x="1656.27" y="817.03" width="82.27" height="169.51" rx="41.13" ry="41.13"/><rect class="cls-9" x="1831.46" y="817.03" width="82.27" height="169.51" rx="41.13" ry="41.13"/><rect class="cls-9" x="2006.65" y="817.03" width="82.27" height="169.51" rx="41.13" ry="41.13"/><rect class="cls-9" x="2181.84" y="817.03" width="82.27" height="169.51" rx="41.13" ry="41.13"/><rect class="cls-9" x="2357.04" y="817.03" width="82.27" height="169.51" rx="41.13" ry="41.13"/><path class="cls-9" d="M2573.36,986.54h0c-22.72,0-41.13-18.42-41.13-41.13v-87.24c0-22.72,18.42-41.13,41.13-41.13h0c22.72,0,41.13,18.42,41.13,41.13v87.24c0,22.72-18.42,41.13-41.13,41.13Z"/><rect class="cls-9" x="2707.42" y="817.03" width="82.27" height="169.51" rx="41.13" ry="41.13"/><rect class="cls-9" x="2882.61" y="817.03" width="82.27" height="169.51" rx="41.13" ry="41.13"/><rect class="cls-9" x="3057.8" y="817.03" width="82.27" height="169.51" rx="41.13" ry="41.13"/><rect class="cls-9" x="3232.99" y="817.03" width="82.27" height="169.51" rx="41.13" ry="41.13"/></g></g><text class="cls-15" transform="translate(1556.76 446.96)"><tspan x="0" y="0">H</tspan></text><text class="cls-15" transform="translate(1787.86 446.96)"><tspan x="0" y="0">H</tspan></text></g></g></svg>