<?xml version="1.0" encoding="utf-8"?>
<!-- Generator: Adobe Illustrator 26.2.1, SVG Export Plug-In . SVG Version: 6.00 Build 0)  -->
<svg version="1.1" id="Layer_1" xmlns="http://www.w3.org/2000/svg" xmlns:xlink="http://www.w3.org/1999/xlink" x="0px" y="0px"
	 viewBox="0 0 458.81 456.51" style="enable-background:new 0 0 458.81 456.51;" xml:space="preserve">
<style type="text/css">
	.st0{fill:#FFFFFF;stroke:#000000;stroke-width:10;stroke-miterlimit:10;}
	.st1{fill:#F6A92A;stroke:#FFFFFF;stroke-width:6;stroke-miterlimit:10;}
	.st2{fill:#018C45;stroke:#FFFFFF;stroke-width:6;stroke-miterlimit:10;}
	.st3{fill:#8C181B;}
	.st4{fill:#FFFFFF;}
	.st5{fill:#21409A;stroke:#FFFFFF;stroke-width:5;stroke-miterlimit:10;}
	.st6{fill:none;stroke:#000000;stroke-width:7;stroke-miterlimit:10;}
	.st7{fill:none;}
</style>
<rect x="15.09" y="16.62" class="st0" width="428.45" height="424.34"/>
<path class="st1" d="M225.66,260.55c17.35-53.44,69.59-93.02,132.41-96.41c-33.78-28.94-79.52-46.71-129.88-46.71
	c-89.79,0-164.89,56.5-183.71,132.1c23.62-14.83,52.18-23.5,82.94-23.5C165.17,226.02,199.59,239.08,225.66,260.55z"/>
<path class="st2" d="M222.67,271.46c0.84-3.69,1.83-7.34,2.99-10.92c-26.07-21.47-60.49-34.53-98.24-34.53
	c-30.76,0-59.31,8.68-82.94,23.5c-1.78,7.15-3.05,14.48-3.79,21.94H222.67z"/>
<path class="st2" d="M358.06,164.14c-62.82,3.39-115.05,42.98-132.41,96.41c-1.16,3.58-2.15,7.22-2.99,10.92h14.81h178.21
	C411.52,229.36,390.22,191.68,358.06,164.14z"/>
<g>
	<path class="st3" d="M243.71,286.94v-52.51c0-7.63-6.73-13.84-15.01-13.84s-15.01,6.21-15.01,13.84v52.51h-60.94v-167.8
		l-10.29-5.06h-1.84l-0.01-0.91l-2.78-1.37l2.76-1.63V36.84h40.58v24.99h27.25V36.84h40.58v24.99h27.25V36.84h40.58v73.32l2.75,1.6
		l-2.75,1.38v0.94h-1.88l-11.32,5.57v167.3H243.71z"/>
	<path class="st4" d="M314.31,39.34v72.24h-0.04l0.04,0.02l-13.19,6.49v166.35h-54.91v-50.01c0-8.99-7.88-16.34-17.51-16.34
		s-17.51,7.35-17.51,16.34v50.01h-55.94V117.58l-12.17-5.99l0.04-0.02h-0.04V39.34h35.58v24.99h32.25V39.34h35.58v24.99h32.25V39.34
		H314.31 M319.31,34.34h-5h-35.58h-5v5v19.99h-22.25V39.34v-5h-5h-35.58h-5v5v19.99h-22.25V39.34v-5h-5h-35.58h-5v5v69.39
		l-5.51,3.23l5.51,2.74v1.88h3.79l8.37,4.12v163.75v5h5h55.94h5v-5v-50.01c0-6.25,5.61-11.34,12.51-11.34s12.51,5.09,12.51,11.34
		v50.01v5h5h54.91h5v-5V121.2l9.4-4.62h3.76l0.01-1.86l5.56-2.74l-5.54-3.25v-69.4V34.34L319.31,34.34z"/>
</g>
<path class="st5" d="M228.7,210.82c-11.03,0-20.06,8.42-20.06,18.72v57.28h40.12v-57.28C248.76,219.25,239.73,210.82,228.7,210.82z"
	/>
<path class="st6" d="M16.62,406.22"/>
<path class="st6" d="M16.62,240.77"/>
<g>
	<g>
		<polygon points="131.74,427.55 131.74,326.88 95.19,326.88 95.19,367.73 83.86,367.73 83.86,211.02 95.19,211.02 95.19,315.55 
			131.74,315.55 131.74,270.84 143.07,270.84 143.07,427.55 		"/>
		<path class="st4" d="M93.19,213.02v104.53h40.56v-44.71h7.33v152.7h-7.33V324.88H93.19v40.85h-7.33v-152.7H93.19 M97.19,209.02h-4
			h-7.33h-4v4v152.7v4h4h7.33h4v-4v-36.85h32.56v96.67v4h4h7.33h4v-4v-152.7v-4h-4h-7.33h-4v4v40.71H97.19V213.02V209.02
			L97.19,209.02z"/>
	</g>
	<g>
		<path d="M169.97,350.73c-12.19,0-20.7-9.08-20.7-22.07c0-13.38,8.78-22.72,21.35-22.72c12.24,0,20.78,9.08,20.78,22.07
			C191.4,343.62,180.29,350.73,169.97,350.73z M170.46,315.26c-7.39,0-10.01,7.09-10.01,13.16c0,7.53,4.14,12.99,9.85,12.99
			s9.85-5.53,9.85-13.16C180.15,323.76,178.12,315.26,170.46,315.26z"/>
		<path class="st4" d="M170.62,307.94c11.21,0,18.78,8.14,18.78,20.07c0,14.43-10,20.72-19.43,20.72c-10.56,0-18.7-7.74-18.7-20.07
			C151.27,315.59,159.82,307.94,170.62,307.94 M170.3,343.41c6.77,0,11.85-6.37,11.85-15.16c0-6.61-3.31-14.99-11.69-14.99
			c-8.38,0-12.01,7.74-12.01,15.16C158.45,336.96,163.36,343.41,170.3,343.41 M170.62,303.94c-13.75,0-23.35,10.16-23.35,24.72
			c0,6.99,2.25,13.03,6.51,17.44c4.13,4.28,9.88,6.63,16.19,6.63c11.28,0,23.43-7.74,23.43-24.72
			C193.4,313.83,184.03,303.94,170.62,303.94L170.62,303.94z M170.3,339.41c-4.55,0-7.85-4.62-7.85-10.99
			c0-1.14,0.22-11.16,8.01-11.16c6.08,0,7.69,7.19,7.69,10.99C178.15,334.71,174.85,339.41,170.3,339.41L170.3,339.41z"/>
	</g>
	<g>
		<rect x="196.35" y="288.6" width="11.09" height="61.24"/>
		<path class="st4" d="M205.44,290.6v57.24h-7.09V290.6H205.44 M209.44,286.6h-4h-7.09h-4v4v57.24v4h4h7.09h4v-4V290.6V286.6
			L209.44,286.6z"/>
	</g>
	<g>
		<rect x="215.37" y="288.6" width="11.09" height="61.24"/>
		<path class="st4" d="M224.47,290.6v57.24h-7.09V290.6H224.47 M228.47,286.6h-4h-7.09h-4v4v57.24v4h4h7.09h4v-4V290.6V286.6
			L228.47,286.6z"/>
	</g>
	<g>
		<path d="M230.94,358.38l1.87-0.6c0.9-0.29,3.25-1.16,5.52-3.09c0.85-0.67,3.59-3.05,5.43-7.19c0.11-0.26,0.32-0.71,0.38-0.93
			c-0.02-0.12-0.1-0.42-0.36-1.12l-15.51-38.64h12.09l9.03,24.36c0.23,0.67,0.46,1.35,0.69,2.04c0.23-0.72,0.46-1.45,0.71-2.16
			l8.2-24.25h11.84l-11.68,30.53c-4.82,12.7-8.47,20.48-13.94,25.22c-4.35,3.85-8.49,4.84-9.66,5.05l-1.76,0.32L230.94,358.38z"/>
		<path class="st4" d="M267.92,308.82l-10.64,27.81c-5.08,13.38-8.55,20.23-13.38,24.43c-3.47,3.06-6.93,4.27-8.71,4.6l-1.77-5.97
			c1.77-0.56,4.11-1.69,6.21-3.47c1.94-1.53,4.35-4.27,5.97-7.9c0.32-0.73,0.56-1.29,0.56-1.69c0-0.4-0.16-0.97-0.48-1.85
			l-14.43-35.95h7.74l8.55,23.06c0.89,2.58,1.85,5.64,2.5,7.98h0.16c0.72-2.34,1.53-5.32,2.5-8.14l7.74-22.89H267.92 M273.73,304.82
			h-5.81h-7.5h-2.87l-0.92,2.72l-6.61,19.56l-7.29-19.67l-0.97-2.61h-2.78h-7.74h-5.92l2.2,5.49l14.4,35.89
			c0.04,0.11,0.07,0.2,0.1,0.28c-0.04,0.09-0.07,0.16-0.1,0.22c-1.65,3.71-4.09,5.83-4.79,6.39l-0.05,0.04l-0.05,0.04
			c-2,1.69-4.05,2.46-4.84,2.71l-3.74,1.19l1.12,3.76l1.77,5.97l1.02,3.44l3.53-0.64c1.29-0.24,5.88-1.33,10.64-5.53
			c5.76-4.99,9.54-13,14.47-26l10.64-27.8L273.73,304.82L273.73,304.82z"/>
	</g>
	<g>
		<path d="M298.51,427.72v-77.88l-0.03-2v-22.41c0-6.38-2.36-9.61-7.03-9.61c-3.94,0-6.67,2.88-7.62,5.73l-0.05,0.14
			c-0.27,0.66-0.33,1.49-0.33,2.62v25.54h-11.09V288.6h0.01v-77.58h11.07v77.58l0.02,2v19.14c0.71-0.58,1.47-1.1,2.27-1.54
			c2.56-1.48,5.42-2.27,8.23-2.27c7.21,0,15.62,4.89,15.62,18.69l0,103.09H298.51z"/>
		<path class="st4" d="M281.44,213.02v77.58h0.02v24.35h0.16c1.13-2.02,2.9-3.79,5.08-5c2.1-1.21,4.6-2.02,7.26-2.02
			c5.24,0,13.62,3.22,13.62,16.69v23.22h0v77.88h-7.07v-77.88h-0.03v-22.41c0-6.29-2.34-11.61-9.03-11.61
			c-4.6,0-8.22,3.22-9.51,7.09c-0.4,0.97-0.48,2.02-0.48,3.39v23.54h-7.09V290.6h0.01v-77.58H281.44 M285.44,209.02h-4h-7.07h-4v4
			v73.58l-0.01,4v57.24v4h4h7.09h4v-4V324.3c0-1,0.05-1.55,0.18-1.85l0.06-0.14l0.05-0.14c0.7-2.1,2.79-4.36,5.72-4.36
			c1.5,0,5.03,0,5.03,7.61v22.41v4h0.03v73.88v4h4h7.07h4v-4v-77.88l0-23.22c0-14.29-8.85-20.69-17.62-20.69
			c-2.89,0-5.81,0.74-8.5,2.13V290.6v-4h-0.02v-73.58V209.02L285.44,209.02z"/>
	</g>
	<g>
		<path d="M322.49,304.21c-3.52,0-6.27-2.79-6.27-6.35c0-3.67,2.77-6.43,6.43-6.43c3.68,0,6.35,2.71,6.35,6.43
			c0.06,1.65-0.54,3.24-1.68,4.43C326.12,303.53,324.4,304.21,322.49,304.21z"/>
		<path class="st4" d="M322.65,293.43c2.66,0,4.35,1.93,4.35,4.43c0.08,2.42-1.69,4.35-4.51,4.35c-2.5,0-4.27-1.93-4.27-4.35
			C318.21,295.36,320.07,293.43,322.65,293.43 M322.65,289.43c-4.73,0-8.43,3.7-8.43,8.43c0,4.68,3.63,8.35,8.27,8.35
			c2.46,0,4.69-0.9,6.27-2.54c1.51-1.56,2.3-3.65,2.25-5.88C330.97,293.02,327.39,289.43,322.65,289.43L322.65,289.43z"/>
	</g>
	<g>
		<rect x="317.1" y="306.82" width="11.09" height="43.02"/>
		<path class="st4" d="M326.19,308.82v39.02h-7.09v-39.02H326.19 M330.19,304.82h-4h-7.09h-4v4v39.02v4h4h7.09h4v-4v-39.02V304.82
			L330.19,304.82z"/>
	</g>
	<g>
		<rect x="335.96" y="288.6" width="11.09" height="61.24"/>
		<path class="st4" d="M345.06,290.6v57.24h-7.09V290.6H345.06 M349.06,286.6h-4h-7.09h-4v4v57.24v4h4h7.09h4v-4V290.6V286.6
			L349.06,286.6z"/>
	</g>
	<g>
		<rect x="354.99" y="288.6" width="11.09" height="61.24"/>
		<path class="st4" d="M364.08,290.6v57.24h-7.09V290.6H364.08 M368.08,286.6h-4h-7.09h-4v4v57.24v4h4h7.09h4v-4V290.6V286.6
			L368.08,286.6z"/>
	</g>
</g>
<rect x="5.51" y="27.34" class="st7" width="453.06" height="459.57"/>
</svg>
