<?xml version="1.0" encoding="UTF-8"?><svg id="_лой_1" xmlns="http://www.w3.org/2000/svg" xmlns:xlink="http://www.w3.org/1999/xlink" viewBox="0 0 546.81 473.23"><defs><style>.cls-1{fill:#e4e6f5;}.cls-2{fill:#584b40;}.cls-3{fill:#d78973;}.cls-4{fill:url(#linear-gradient-2);}.cls-5{fill:#ac2824;}.cls-6{fill:#9b5a35;}.cls-7{fill:#eea886;}.cls-8{fill:#4e6194;}.cls-9{fill:#574f4b;}.cls-10{fill:#1d2033;}.cls-11{fill:#6899db;}.cls-12{fill:#fccca2;}.cls-13{fill:#efaa88;}.cls-14{fill:#e2d9d4;}.cls-15{fill:#803d5a;}.cls-16{fill:#8d7a6c;}.cls-17{fill:url(#linear-gradient-6);}.cls-18{fill:#323657;}.cls-19{fill:#8b95ca;}.cls-20{fill:#e55353;}.cls-21{fill:#303030;}.cls-22{fill:#4c8ba5;}.cls-23{fill:#f1c5c6;}.cls-24{fill:#e9d7e2;}.cls-25{fill:#f9cdba;}.cls-26{fill:#dbc9c2;}.cls-27{fill:#315566;}.cls-28{fill:#f2c5b1;}.cls-29{fill:#2e344c;}.cls-30{fill:#bcafb0;}.cls-31{fill:#d8cbd2;}.cls-32{fill:#663146;}.cls-33{fill:#68b2c9;}.cls-34{fill:#e8d5ce;}.cls-35{fill:#2c3047;}.cls-36{fill:#d5ddf1;}.cls-37{fill:#302f35;}.cls-38{fill:#796759;}.cls-39{fill:#8ad1f3;}.cls-40{fill:#cf8c6c;}.cls-41{fill:#857b76;}.cls-42{fill:#4d4542;}.cls-43{fill:#c2ab98;}.cls-44{fill:#6c5c4f;}.cls-45{fill:#77c3dc;}.cls-46{fill:#567eb5;}.cls-47{fill:#8e502d;}.cls-48{fill:#db9c7c;}.cls-49{fill:#a17e62;}.cls-50{fill:#7780bd;}.cls-51{fill:url(#linear-gradient-5);}.cls-52{fill:#fab46c;}.cls-53{fill:#ba8b58;}.cls-54{fill:#f5e97a;}.cls-55{fill:#eb9981;}.cls-56{fill:#3f4b73;}.cls-57{fill:#bfc7e6;}.cls-58{fill:#efaf8b;}.cls-59{fill:#5c432c;}.cls-60{fill:#343a57;}.cls-61{fill:url(#linear-gradient-7);}.cls-62{fill:#6ea2e8;}.cls-63{fill:#d16883;}.cls-64{fill:#41414c;}.cls-65{fill:#985e44;}.cls-66{fill:#a77860;}.cls-67{fill:#35704e;}.cls-68{fill:#6b9d95;}.cls-69{fill:#5a5d6f;}.cls-70{fill:#eea987;}.cls-71{fill:#9c7d68;}.cls-72{fill:#dec15f;}.cls-73{fill:#b95972;}.cls-74{fill:#3d476e;}.cls-75{fill:url(#linear-gradient-3);}.cls-76{fill:#fadddf;}.cls-77{fill:url(#linear-gradient);}.cls-78{fill:#e9dc6e;}.cls-79{fill:#589fb5;}.cls-80{fill:#c48b6e;}.cls-81{fill:#62626b;}.cls-82{fill:#3e7287;}.cls-83{fill:url(#linear-gradient-4);}.cls-84{fill:#81a0d3;}.cls-85{fill:#34596b;}.cls-86{fill:url(#linear-gradient-8);}.cls-87{fill:#e66d45;}.cls-88{fill:#c62d2a;}.cls-89{fill:#4d4f5d;}.cls-90{fill:#316243;}</style><linearGradient id="linear-gradient" x1="391.7" y1="362.58" x2="442.36" y2="207.21" gradientTransform="translate(879.6) rotate(-180) scale(1 -1)" gradientUnits="userSpaceOnUse"><stop offset="0" stop-color="#76b9e3"/><stop offset="1" stop-color="#8ebd69"/></linearGradient><linearGradient id="linear-gradient-2" x1="187.05" y1="350.56" x2="260.39" y2="125.65" gradientTransform="matrix(1, 0, 0, 1, 0, 0)" xlink:href="#linear-gradient"/><linearGradient id="linear-gradient-3" x1="367.7" y1="288.19" x2="344.47" y2="29.48" gradientTransform="matrix(1, 0, 0, 1, 0, 0)" xlink:href="#linear-gradient"/><linearGradient id="linear-gradient-4" x1="251.21" y1="339.72" x2="390.59" y2="339.72" gradientTransform="matrix(1, 0, 0, 1, 0, 0)" xlink:href="#linear-gradient"/><linearGradient id="linear-gradient-5" x1="378.91" y1="349.79" x2="478.81" y2="349.79" gradientTransform="matrix(1, 0, 0, 1, 0, 0)" xlink:href="#linear-gradient"/><linearGradient id="linear-gradient-6" x1="144.66" y1="345.29" x2="68.21" y2="188.53" gradientTransform="matrix(1, 0, 0, 1, 0, 0)" xlink:href="#linear-gradient"/><linearGradient id="linear-gradient-7" x1="14.33" y1="379.14" x2="-2.56" y2="344.5" gradientTransform="translate(104.9) rotate(-180) scale(1 -1)" xlink:href="#linear-gradient"/><linearGradient id="linear-gradient-8" x1="120.25" y1="350.92" x2="260.55" y2="350.92" gradientTransform="matrix(1, 0, 0, 1, 0, 0)" xlink:href="#linear-gradient"/></defs><g><rect class="cls-68" x="457.76" y="281.83" width="13.96" height="79.71" transform="translate(929.49 643.36) rotate(180)"/><polygon class="cls-77" points="420.98 271.47 417.08 271.47 440.3 215.2 432.32 215.2 438.56 204.62 435.02 204.62 464.74 149.65 494.47 204.62 490.92 204.62 497.17 215.2 489.19 215.2 512.4 271.47 508.51 271.47 512.4 280.92 494.84 280.92 512.4 323.47 464.74 323.47 417.08 323.47 434.64 280.92 417.08 280.92 420.98 271.47"/></g><g><rect class="cls-68" x="210.47" y="233.66" width="20.21" height="115.39"/><polygon class="cls-4" points="283.93 218.67 289.57 218.67 255.96 137.22 267.51 137.22 258.48 121.9 263.6 121.9 220.58 42.33 177.55 121.9 182.68 121.9 173.64 137.22 185.19 137.22 151.58 218.67 157.23 218.67 151.58 232.35 177 232.35 151.58 293.95 220.58 293.95 289.57 293.95 264.15 232.35 289.57 232.35 283.93 218.67"/></g><g><rect class="cls-68" x="352.47" y="229.27" width="14.79" height="96.35"/><path class="cls-75" d="M342.41,6.22c16.12-16.65,30.12,2.51,31.66,29.54,1.54,27.03,40.15,35.11,27.8,75.86-12.36,40.74,12.35,53.87,13.9,77.04,1.54,23.17-40.15,97.3-91.89,49.42-51.74-47.87,9.27-81.98-3.09-108.94-12.35-26.96-2.32-58.62,3.09-79.47,5.4-20.85,.77-25.1,18.53-43.44Z"/></g><path class="cls-83" d="M390.59,362.79c0-8.53-11.86-12.67-18.48-14.31,.73-2.11,1.19-4.51,1.25-7.24,.39-15.96-29.87-29.59-40.58-22.82-21.92,13.85-9.72,2.68-36.17,.95-26.45-1.72-20.88,20.88-20.88,20.88-24.23,0-24.51,22.54-24.51,22.54h104.54s.18-.04,.48-.12l-.09,.12h34.45Z"/><path class="cls-51" d="M379.58,365.65s-4.63-14.73,10.42-14.73c0,0,7.33-24.38,32.43-14.73,0,0,21.24-7.93,27.03,13.6,0,0,29.34-3.71,29.34,15.86h-99.22Z"/><g><rect class="cls-68" x="103.27" y="221.7" width="7.22" height="140.26"/><path class="cls-17" d="M101.39,163.6s20.3-.73,18.87,36.51c-1.43,37.24,21.35,8.52,24.82,63.61,3.47,55.09-28.96,76.33-56.37,60.5s-25.48-42.45-14.29-64.66c11.2-22.21,0-19.12,4.25-42.29,4.25-23.17,6.04-51.74,22.71-53.67Z"/></g><path class="cls-61" d="M126.42,362.76s3.09-9.85-7.91-9.85c0,0-.58-11.97-12.93-6.18,0,0-10.42-5.41-15.44,2.7,0,0-11.78-.77-11.78,10.04,0,0-7.33-.76-7.33,3.29h55.4Z"/><path class="cls-86" d="M249.39,354.77s2.01-17.64-19.4-15.12c-21.41,2.52-13.72,18.06-35.46,2.94-21.75-15.12-28.44,1.26-28.44,1.26,0,0-11.22-10.27-18.33,1.62-7.1,11.89-27.51,3.45-27.51,20.17h140.29s.67-10.46-11.15-10.88Z"/><g><path class="cls-49" d="M294.57,412.16s-1.44,1.88-.58,3.89c.85,2.01,6.03,6.82,5.57,8.82-.46,2-5.63,1.36-8.61-2.45-2.98-3.81-7.54-7.88-7.29-8.72,.25-.84,5.47-4.91,7.21-5.37,1.74-.46,3.71,3.82,3.71,3.82Z"/><path class="cls-49" d="M372.97,426.59s.74,2.25,2.88,2.69c2.14,.44,9.04-1.1,10.42,.41,1.38,1.51-2.07,5.41-6.9,5.71-4.83,.3-10.76,1.74-11.32,1.06-.55-.68-.94-7.29-.34-8.98,.61-1.7,5.25-.89,5.25-.89Z"/><path class="cls-28" d="M354.4,291.07s-.88,4.47-.54,6.31c.34,1.84-8.84-4.91-8.84-4.91,0,0,1.29-6.09,.78-9.33-.51-3.24,8.59,7.93,8.59,7.93Z"/><path class="cls-28" d="M367.56,377.84s2.2,3.31,2.41,7.51c.21,4.2,2.62,38.57,2.62,38.57l-5.48,.8s-5.29-17.73-7.8-22.45c-2.52-4.72,.74-9.03-1.37-14.11-1.12-2.69-3.63-5.66-3.63-5.66l13.24-4.66Z"/><path class="cls-25" d="M331.08,379.7s-1.04,4.01-4.37,6.57c-3.33,2.57-30.21,24.12-30.21,24.12l-3.77-4.05s11.69-14.3,14.14-19.06c2.45-4.76,10.05-8.83,12.01-10.99,1.96-2.15,2.22-3.83,2.22-3.83l9.99,7.23Z"/><path class="cls-90" d="M355.08,353.6s11.26,16.37,13.47,23.55l-14.14,8.15s-7.74-11.49-11.1-15.93c-3.36-4.44,2.49-28.29,11.78-15.78Z"/><path class="cls-67" d="M351.77,352.65s-10.83,23.28-19.93,29.32c0,0-10.19-5.89-13.6-9.38,0,0,8.81-18.32,10.04-22.96,1.22-4.64,23.49,3.02,23.49,3.02Z"/><path class="cls-28" d="M342.5,297.57l-24.33,17.09s-2.13,1.11-3.26,7.91-2.75,18.38-2.75,18.38c0,0,4.93,1.93,5.57,.42,.64-1.51,4.9-19.47,5.55-20.68,.66-1.21,14.78-9.75,14.78-9.75,0,0,6.71-11.52,4.43-13.38Z"/><path class="cls-72" d="M344.98,292.43s8.83,4.73,9.28,4.92c.45,.19,6.79,10.25,5.75,18.49-1.04,8.24-4.81,15.33-5.89,24.64-.63,5.42,.14,8.85,.9,10.76,.34,.87,.78,2.2-.14,2.08l-27.17-3.78s6.41-20.03,5.11-30.43c-1.07-8.53,5.77-22.2,12.17-26.68Z"/><path class="cls-25" d="M352.98,308.77l7.97,17.46s.74,1.32,5.63-.76c4.89-2.07,15.1-6.71,15.1-6.71,0,0,1.86,3.15,1.25,4.49-.62,1.34-19.9,13.64-24.58,12.65-4.68-.99-13.44-22.34-13.44-22.34l8.06-4.79Z"/><polygon class="cls-90" points="372.59 423.92 372.97 426.59 367.72 427.48 367.12 424.71 372.59 423.92"/><polygon class="cls-67" points="296.51 410.39 294.52 412.23 290.67 408.4 292.73 406.34 296.51 410.39"/><path class="cls-25" d="M381.55,318.88s1.49-1.21,1.93-2.57c.44-1.36,2.83-2.2,4.03-1.9,1.21,.3,2.53-.58,3.07,.16,.55,.74-.65,1.95-.4,2.66,.25,.71,1.68,3.96-.95,5.18-2.62,1.22-5.16,.45-6.51,1.09-1.34,.64-1.19-4.61-1.19-4.61Z"/><path class="cls-28" d="M317.73,341.37s.17,2.51,.96,3.21,1.35,2.58-.23,3.28c-1.58,.7-.91,2.56-1.89,2.91-.97,.35-5.38-.55-6.43-1.02-1.05-.47,1.64-7.3,2.01-8.8,.36-1.47,5.57,.42,5.57,.42Z"/><path class="cls-25" d="M357.62,271.15s2.58,5.18,2.57,6.28c-.01,1.1-1.17,1.13-.59,2.26,.58,1.14,1.76,3.26,1.16,3.97-.6,.71-2.01,.4-2.33,1.9-.32,1.5-2.05,6.09-3.86,6.12-1.8,.03-7.94-3.43-8.32-4.88-.38-1.46-2.58-9.57-3.3-11.13-.72-1.56,12.49-9.44,13.58-6.98l1.08,2.46Z"/><path class="cls-59" d="M357.39,270.63s1.96-1.13,1.31-3.33c-.65-2.19-2.24-5.09-6.06-3.6-3.82,1.5-6.75,4.55-9.37,5.09-2.63,.55-4.39,.77-2.19,6.2,2.19,5.42,4.54,9.42,4.54,9.42,0,0,.51-3.34,1.5-3.18,.99,.16,2.65-2.99,2.65-2.99l.25,.8,1.77-.18s-2.19-5.68-.96-6.44c1.24-.75,6.36-1.16,6.57-1.8Z"/><path class="cls-59" d="M351.78,278.87s1.08,4.88,2.04,4.91c.97,.03,4.27,.58,4.88,1.13,0,0,.48,.41,.26,1.13-.22,.72-.89,4.98,.26,6.36,0,0-.86,1.53-5.01-.06-4.15-1.59-6.31-3.82-6.31-3.82,0,0,3.13-6.64,2.11-9.48l1.77-.18Z"/><path class="cls-25" d="M349.78,277.41s-1.17-2.62-3.41-.73c-1.64,1.37,.41,5.8,2.08,5.67,1.67-.13,2.19-2.64,1.33-4.94Z"/><path class="cls-25" d="M344.91,313.56s-3.47-7.5,.96-9.14c5.13-1.9,7.1,4.35,7.1,4.35l-8.06,4.79Z"/></g><g><path class="cls-6" d="M365.93,397.23s-8.77,8.25-11.75,8.44c-2.99,.19-33.59,9.32-33.59,9.32l-1.44-5.56s8.83-4.79,16.45-9.66c2.67-1.7,10.28-2.61,13.73-5.08,3.01-2.15,6.49-10.47,7.18-10.64,.69-.17,9.43,13.17,9.43,13.17Z"/><path class="cls-6" d="M393.19,382.15s8.25,17.87,9.02,22.47c.77,4.6-.1,8.07,.41,14.41,.51,6.34,3.58,24.65,3.58,24.65l-5.47,1.75s-9.84-21.08-10.07-26.54c-.23-5.46,1.71-9.47,.07-12.55-1.64-3.08-13.11-14.19-13.11-14.19l15.57-10Z"/><path class="cls-57" d="M360.86,373.94s-.73,3.14-1.15,4.1c-.42,.96-7.29,7.84-8.02,8.21l14.06,13.03s7.79-7.44,8.61-10.13c.81-2.7-13.49-15.2-13.49-15.2Z"/><path class="cls-36" d="M385.82,369.91s.2,1.56,1.47,2.52c1.26,.95,7.21,8.69,7.21,8.69l-17.28,13.64s-13.53-9.88-15.63-16.59c-1.39-4.46-.6-8.52,.69-11.98,1.29-3.46,23.54,3.71,23.54,3.71Z"/><path class="cls-47" d="M370.25,324.34s-13.42,17.71-11.5,21.36c1.93,3.64,7.8,5.23,7.8,5.23l3.7-26.58Z"/><path class="cls-47" d="M376.68,306.46s.64,6.53-.95,8.61c-1.59,2.08,9.53,5,9.53,5,0,0-1.33-5.61,.21-7.98,1.27-1.96-8.79-5.63-8.79-5.63Z"/><path class="cls-6" d="M390.11,291.3s1.97,2.58,1.29,8.85c0,0,1.54,4.29,2.35,5.1,.81,.81-1.95,1.32-2.2,1.96-.25,.64-.61,3.58-2.42,5.46-1.82,1.88-11.78-2.73-12.45-5.67-.67-2.94-8.96-16.46,1.53-17.76,10.49-1.31,11.9,2.07,11.9,2.07Z"/><path class="cls-19" d="M375.29,314.84s-1.75,3.63-3.9,7.38c-2.15,3.75-4.33,8.47-4.44,16.9-.11,8.43,.09,18.94-4.68,27.07,0,0,13.14,4.28,23.54,3.71,0,0,3.13-12.99,3.42-17.52,.62-9.46,5.94-8.85,3.97-15.35-1.97-6.49-6.21-14.12-7.04-16.48l-10.88-5.71Z"/><path class="cls-6" d="M382.85,331.57s-4.15,20.96-2.48,21.97c2.33,1.41,17.82,1.77,17.82,1.77l-.41,5.04s-25.13,3.71-26.03-3.79c-.89-7.5,1.06-26.68,1.06-26.68l10.04,1.69Z"/><polygon class="cls-14" points="406.2 443.68 406.7 445.26 401.06 446.94 400.73 445.43 406.2 443.68"/><path class="cls-36" d="M401.06,446.94s4.68-2.1,4.82-2.29c.14-.19,.73-2.37,1.57-2.21,.84,.16,1.4,2.52,2.24,2.74,.84,.23,7.62,2.81,8.5,3.36,.89,.55,5.22-.91,6.03,.22,.8,1.13,1.54,4.08-5.24,4.94-6.78,.86-14.08,3.71-15.68,3.26-1.61-.45-2.24-7.99-2.23-10Z"/><polygon class="cls-14" points="320.59 414.99 318.99 415.4 317.63 409.68 319.15 409.43 320.59 414.99"/><path class="cls-57" d="M317.63,409.68s1.84,4.79,2.02,4.94c.18,.15,2.33,.87,2.12,1.69-.21,.83-2.59,1.26-2.86,2.08-.27,.82-3.22,7.45-3.82,8.31-.6,.86,.62,5.26-.55,6-1.18,.74-4.16,1.31-4.64-5.51-.48-6.81-2.92-14.26-2.38-15.84,.54-1.58,8.11-1.79,10.11-1.68Z"/><path class="cls-37" d="M391.09,293.64s-6.03,4.56-10.28,7.45c-4.26,2.89-4.04,7.1-4.04,7.1,0,0-6.9-9.44-4.12-15.56,3.1-6.82,17.36-6.17,18.45,1.01Z"/><path class="cls-37" d="M371.99,295.62s-8.76-2.29-10.22,4.02c-1.46,6.3,5.2,12.12,9.08,9.73,3.88-2.39,5.17-5.26,4.97-6.31-.2-1.05-3.84-7.44-3.84-7.44Z"/><path class="cls-50" d="M386.18,320.56s.43-2.81,.87-3.57l-11.23-5.11-.53,2.97s6.84,4.59,10.88,5.71Z"/><path class="cls-50" d="M371.99,334.5l10.66,1.23s3.29-9.44-4.16-10.94c0,0-7.47-.72-6.5,9.71Z"/><path class="cls-6" d="M380.21,299.14c-.66-1.26-3.12-.7-2.91,1.19,.21,1.89,2.08,3.84,2.76,2.96,.68-.88,1.12-2.3,.15-4.15Z"/><path class="cls-6" d="M408.03,355.18s.71,1.01,.05,1.81c-.65,.8-.32,1.29-1.15,1.71-.82,.42-.27,1.57-1.14,1.72-.77,.13-2.68-.58-3.66-.61-.06,0-.12,0-.17,0-.06,0-.12,.01-.17,.02-.79,.2-3.77,.62-4.46,.48-.7-.15-1.31-5.07-1.31-5.07,0,0,1.68,.19,3.61-.6,1.78-.73,4.09-2.89,5.36-2.98,.13,0,.25,0,.36,.04,1.11,.38,3.29,2.04,3.32,2.45,.03,.41-.64,1.03-.64,1.03Z"/><path class="cls-47" d="M408.03,355.18s.71,1.01,.05,1.81c-.65,.8-.32,1.29-1.15,1.71-.82,.42-.27,1.57-1.14,1.72-.77,.13-2.68-.58-3.66-.61,.5-.01,1.92-.06,2.07-.28,1.56-2.35,.84-7.68,.84-7.68l-.05-.19c.13,0,.25,0,.36,.04,1.11,.38,3.29,2.04,3.32,2.45,.03,.41-.64,1.03-.64,1.03Z"/></g><g><path class="cls-7" d="M47.98,311.37c-.11,2.85,7,10.42,7,10.42l-4.14,4.37s-.25-.24-.69-.66c-.24-.23-.54-.53-.89-.88-3.71-3.74-12.41-13.27-8.46-16.71,5.96-5.2,17.67-16.39,17.67-16.39l4.56,7.24s-14.97,10.57-15.05,12.61Z"/><path class="cls-7" d="M68.83,280.24c-.18,.38-.33,.81-.44,1.28-.16,.63-.25,1.32-.31,2-.18,2.17,.03,4.28,.03,4.28,0,0-9.19-1.25-7.88-3.47,1.32-2.23-.07-8.54-.07-8.54,0,0,9.67,2.39,8.66,4.45Z"/><path class="cls-7" d="M72.59,318.66c-.33,.51-.63,1.16-.9,1.88-1.51,3.96-2.24,10.44-2.47,12.76-.05,.55-.08,.83-.08,.83-10.74,1.88-22.47-1.07-22.47-1.07,.15-.34,2.07-4.48,2.22-4.8,2.37-5.3,4.19-8.49,4.96-12.31h0c.43-2.15,.54-4.5,.21-7.53-.92-8.77,.76-13.94,2.53-18.1,1.77-4.16,3.9-6.57,3.9-6.57l7.56,3.29c1.15,2.36,4.27,4.89,7.83,10.53,3.79,6,4.28,9.17-3.3,21.09Z"/><path class="cls-20" d="M72.59,318.66c-.33,.51-.63,1.16-.9,1.88,0,0-10.08-2.85-17.83-4.58,.43-2.15,.54-4.5,.21-7.53-.92-8.77,.76-13.94,2.53-18.1,1.77-4.16,3.9-6.57,3.9-6.57l7.56,3.29c1.15,2.36,4.27,4.89,7.83,10.53,3.79,6,4.28,9.17-3.3,21.09Z"/><path class="cls-7" d="M67.67,294.44s-2.29-5.07-6.73-2.83c-4.45,2.24-1.76,7.29-1.76,7.29l8.49-4.46Z"/><polygon class="cls-20" points="54.25 312.09 73.12 316.84 71.68 320.53 53.85 315.95 54.25 312.09"/><path class="cls-7" d="M67.67,294.44s8.47,19.22,10.36,19.44c2.65,.31,14.94-5.25,14.94-5.25l1.48,4.22s-18.2,12.49-21.87,7.56c-4.41-5.93-13.41-21.51-13.41-21.51l8.49-4.46Z"/><path class="cls-55" d="M95.7,304.01s1.27-1.33,1.61-1.78c.34-.44,.86,.48,.54,1.06-.32,.59-2.15,.71-2.15,.71Z"/><path class="cls-7" d="M102.13,308.06s-.44,.68-.77,.91c0,0-.63,.38-1.07,.68-.14,.09-.26,.18-.33,.24-.3,.26-.89,.89-1.77,1.34-.87,.45-4.08,1.77-4.08,1.77l-1.23-2.2-1-1.72s2.79-4.46,3.57-4.96c.08-.05,.15-.09,.23-.13,.69-.37,1.32-.4,1.7-.56,.14-.06,1.55-.55,1.89-.35,.47,.27,.64,.66,.6,1.04,0,0,.88,.57,1.01,1.27,0,0,.83,.5,.72,1.46,0,0,.77,.61,.54,1.21Z"/><path class="cls-7" d="M52.82,363.32s-7.25,8.64-10,9.15c-2.76,.51-30.22,12.38-30.22,12.38l-1.96-5.02s7.69-5.43,14.24-10.8c2.29-1.88,9.28-3.56,12.21-6.24,2.56-2.33,4.88-10.46,5.5-10.69,.62-.23,10.23,11.22,10.23,11.22Z"/><path class="cls-7" d="M75.9,345.83s10.26,16.17,11.48,20.36c1.22,4.2,.8,7.52,1.98,13.37,1.18,5.84,6.05,22.54,6.05,22.54l-4.9,2.23s-11.48-18.53-12.3-23.58c-.82-5.05,.54-9-1.32-11.68-1.87-2.68-13.76-11.76-13.76-11.76l12.77-11.47Z"/><path class="cls-18" d="M45.67,341.18s-.47,4.04-.76,4.98c-.29,.94-4.87,10.99-5.48,13.06l9.32,8.6s10.55-10.34,11.01-12.94c.46-2.6-14.09-13.69-14.09-13.69Z"/><path class="cls-18" d="M69.04,333.93s.22,3.16,1.27,4.21c3.49,3.47,9.99,14.81,9.99,14.81l-10.46,9.66s-20.48-10.53-23.17-16.54c-1.79-4-.82-9.65,0-13,.82-3.36,22.36,.87,22.36,.87Z"/><polygon class="cls-7" points="95.42 402.1 96.05 403.51 90.99 405.69 90.51 404.33 95.42 402.1"/><path class="cls-20" d="M90.99,405.69s4.12-2.47,4.23-2.66c.11-.19,.42-2.29,1.22-2.23,.8,.06,1.58,2.19,2.38,2.3,.8,.12,7.4,1.77,8.28,2.19,.89,.41,4.76-1.43,5.63-.46,.87,.96,1.88,3.62-4.33,5.17-6.21,1.54-12.69,5-14.23,4.76-1.54-.24-2.97-7.19-3.18-9.06Z"/><polygon class="cls-7" points="12.59 384.85 11.15 385.41 9.25 380.23 10.64 379.83 12.59 384.85"/><path class="cls-20" d="M9.25,380.23s2.24,4.25,2.42,4.37c.19,.12,2.26,.55,2.16,1.34-.1,.79-2.27,1.46-2.43,2.25-.16,.79-2.18,7.29-2.64,8.15-.46,.86,1.16,4.83,.15,5.65-1.01,.82-3.72,1.68-4.92-4.61-1.2-6.29-4.29-12.95-3.97-14.48,.33-1.53,7.35-2.57,9.23-2.67Z"/><path class="cls-21" d="M58.95,260.04s-4.73-4.87-9.37-.51c-4.65,4.35-.06,15.18-3.79,17.45-3.73,2.27-16.36-1.75-16.35,6.79,0,0,3.15-5.23,8.88-3.03,5.73,2.19,13.61,1.49,13.84-6.69,.23-8.18,3.91-5.35,4.72-7.62,.82-2.27,2.07-6.38,2.07-6.38Z"/><path class="cls-52" d="M58.42,259.95s-2.28,1.45-2.14,6.55c0,0-2.46-5.12,2.14-6.55Z"/><path class="cls-7" d="M72.56,261.34s2.1,1.83,1.91,7.73c0,0,.88,4.59,1.66,5.34,.77,.75-1.81,1.26-2.04,1.86-.23,.6-.53,3.37-2.22,5.15-1.69,1.79-11.1-2.44-11.76-5.2-.66-2.76-7.86-14.23,1.98-15.57,9.84-1.33,10.48,.69,10.48,.69Z"/><path class="cls-21" d="M74.44,267.03s.05-11.66-12.17-8.87c-11.63,2.66-3.45,15.64-1.53,19.82,0,0-.82-6.79,4.79-7.45,5.62-.67,6.57-1.99,8.91-3.5Z"/><path class="cls-70" d="M64.49,268.91c-.8-1.17-3.17-.32-2.74,1.52,.42,1.84,2.51,3.55,3.08,2.6,.57-.95,.84-2.4-.34-4.12Z"/><path class="cls-7" d="M60.5,283.74s13.95,15.24,14.2,12.03c0,0-6.23-8.15-6.64-8.74-.41-.59-7.56-3.29-7.56-3.29Z"/><path class="cls-7" d="M68,313.57c-.93,.53-1.97,.81-3.02,.78h0c-2.95-.09-6.07-2.59-7.45-8.71-3.41-15.08,4.65-14.49,4.65-14.49,3.1,0,4.85,1.16,8.76,11.91,1.76,4.82-.07,8.87-2.93,10.51Z"/><path class="cls-80" d="M68,313.57h0c-.93,.53-1.97,.81-3.02,.78h0l-4.11-12.54,7.13,11.77Z"/><path class="cls-66" d="M68.39,281.52c-.16,.63-.25,1.32-.31,2-3.95-1.8-5.63-4.74-5.63-4.74,2.16,1.55,5.93,2.74,5.93,2.74Z"/><path class="cls-66" d="M52.24,320.94c-.21,.49-2.08,4.55-2.08,4.55-.24-.23-.54-.53-.89-.88l2.97-3.67Z"/></g><g><path class="cls-25" d="M165.46,321.74s3.95,2.35,4.74,2.13c.79-.22,3.09-.15,3.65-.5,.56-.36,2.34-.25,2.68-.34,.33-.09,2.09-.7,1.81-.2-.62,1.14-1.23,1.17-2.93,1.68,0,0-.9,.42-.14,.78,.76,.36,1.33,.44,1.94,.55,.62,.11,3.01,.77,3.35,1.14,.13,.14,.1,.62-.12,.77,0,0,.37,.4,.17,.77-.2,.37-.89,.48-.89,.48,0,0,.17,.64-.59,.93-.75,.29-3.44-.44-3.64-.52-.2-.08-1.73-.63-1.86-.45-.13,.19,1.38,1.03,1.38,1.03,0,0,1.65,1.17,1.53,1.35-.12,.18-.78,.2-1.89-.31-1.11-.51-2.27-1.23-2.51-1.22-.24,.02-1.08-.25-1.67-.58-.59-.32-3.02-1.56-3.4-1.77-.38-.21-3.22-1.87-3.22-1.87l1.6-3.86Z"/><polygon class="cls-14" points="115.68 382.79 114.57 383.59 111.84 379.61 112.95 378.8 115.68 382.79"/><path class="cls-89" d="M111.84,379.47s1.87,2.66,2.44,3.29c.57,.63,1.69,.58,1.53,1.38-.17,.8-2.06,4.48-1.7,6.17,.37,1.73,2.02,6.47-.21,7.96-2.23,1.48-8.52-13.32-9.69-14.5-1.16-1.18,7.63-4.3,7.63-4.3Z"/><polygon class="cls-14" points="174.77 391.99 175.18 393.32 170.75 394.75 170.25 393.47 174.77 391.99"/><path class="cls-73" d="M148.06,355.09s-6.76,9.19-8.85,10.55c-2.08,1.36-23.26,17.46-23.26,17.46l-4.64-5.52s6.76-5.62,11.23-11.77c1.57-2.15,4.06-5.43,6.01-8.43,1.7-2.61,1.65-2.48,3.25-6.02,.25-.55,16.27,3.72,16.27,3.72Z"/><path class="cls-73" d="M137.99,332.3s-1.65,6-2.73,9.94c-1.42,5.16-2.25,6.32-3.46,9.13l14.5,5.73s6.98-7.58,6.82-9.97c-.16-2.38-15.12-14.84-15.12-14.84Z"/><path class="cls-89" d="M153.79,297.94s-13.42,10.6-12.93,12.18c.68,2.21,9.2,11.14,9.2,11.14l-3.5,2.64s-17.54-11.97-14.01-17.25c3.54-5.29,14.94-16.01,14.94-16.01l6.3,7.31Z"/><path class="cls-63" d="M172.21,371.07c-.42-5.38,.29-8.33-.34-12.23-.64-3.9-6.38-19.94-6.38-19.94,0,0-1.67-4.14-3.12-6.6-.68-1.15-.98-2.86-.98-2.86,0,0-21.45-6.14-22.52-3.21-1.07,2.93-1.73,6.38-.57,10.16,1.73,5.69,12.92,14.08,12.92,14.08,0,0,7.89,8.84,9.25,11.45,1.36,2.61,1.67,4.4,1.87,9.03,.19,4.63,5.24,23.53,5.24,23.53l7.61-2.49s-2.54-15.53-2.96-20.92Z"/><path class="cls-28" d="M150.77,275.55s.53,5.54-.79,7.3c-1.31,1.77,7.88,4.25,7.88,4.25,0,0-1.1-4.76,.17-6.77,1.05-1.66-7.26-4.78-7.26-4.78Z"/><path class="cls-25" d="M161.87,262.68s1.63,2.19,1.06,7.51c0,0,1.27,3.64,1.94,4.33,.67,.69-1.61,1.12-1.82,1.66-.21,.54-.5,3.03-2,4.63-1.5,1.6-9.74-2.31-10.29-4.81-.55-2.5-7.4-13.96,1.27-15.07,8.67-1.11,9.84,1.76,9.84,1.76Z"/><path class="cls-54" d="M149.62,282.66s-1.45,3.08-3.22,6.27c-1.77,3.18-3.58,7.19-3.67,14.34-.09,7.15,.08,16.07-3.87,22.97,0,0,14.25,3.68,22.84,3.19,0,0,3.19-7.86,2.77-11.68-1.29-11.68,2.45-9.42,.83-14.93-1.63-5.51-6-13.3-6.68-15.31l-9-4.85Z"/><path class="cls-69" d="M169.24,323.67l-.73,1.94-.19,.5-.64,1.71s-20.3-3.58-21.04-9.95c-.74-6.37,.31-22.15,.31-22.15l4.51,.59,.52,.07,4.39,.57s-2.86,17.69-1.48,18.55c1.93,1.2,14.34,8.18,14.34,8.18Z"/><path class="cls-78" d="M158.62,287.51s.02-2.38,.39-3.02l-9.28-4.34-.17,2.65s5.72,3.76,9.06,4.71Z"/><path class="cls-69" d="M155.83,300.54l-4.17-.49-.53-.06-4.41-.52c-.73-8.02,4.09-8.52,5.28-8.52,.11,0,.19,0,.23,0h.03c.09,.02,.17,.04,.26,.06,6.03,1.48,3.3,9.53,3.3,9.53Z"/><path class="cls-30" d="M168.51,325.6l-.19,.5c-.74-.26-15.63-5.61-17.32-7.8-1.07-1.38-.5-10.86,.14-18.33,.11-1.3,.22-2.55,.33-3.67,.25-2.65,.47-4.67,.54-5.36,.11,0,.19,0,.23,0h.03c.09,.02,.17,.04,.26,.06-.18,1.67-.37,3.49-.54,5.36-.11,1.21-.22,2.44-.33,3.67-.7,8.38-1.1,16.83-.25,17.93,1.29,1.66,11.75,5.72,17.1,7.63Z"/><path class="cls-69" d="M170.52,394.75s3.04-1.02,3.8-1.38,1.05-1.48,1.75-1.07c.69,.41,3.53,3.39,5.2,3.55,1.71,.17,6.62,0,7.31,2.64,.69,2.64-14.95,4.26-16.4,5.04-1.45,.78-1.66-8.77-1.66-8.77Z"/><path class="cls-65" d="M162.69,264.73s-.63,2.37-9.01,4.6c0,0-2.32,3.67-3.83,4.23,0,0-5.93-7.75-.99-12.21,4.94-4.46,12.71-3.18,13.83,3.38Z"/><path class="cls-65" d="M147.87,270.08c-.14,.14-.26,.29-.36,.43h0c-1.62,2.24,1.3,4.24-1.67,12.89-3.16,9.2-16.53,5.21-9.22,.74,7.31-4.46,4.22-12.58,5.73-16.3,1.13-2.78,3.12-2.5,4.05-2.18,.31,.11,.51,.22,.51,.22,0,0,3.35,1.76,.97,4.19Z"/><path class="cls-25" d="M153.68,269.33c-.55-1.07-2.58-.59-2.41,1.01,.17,1.6,1.72,3.26,2.28,2.51,.56-.75,.93-1.95,.12-3.52Z"/><path class="cls-63" d="M147.87,270.08l-.26,.35-.26,.33s-1.1-3.61-1.15-5.15c.31,.11,.7,.28,.7,.28,0,0,.51,2.64,.97,4.19Z"/></g><g><path class="cls-2" d="M262.67,387.29s2.72,1.16,5.12,1.47c2.39,.31,8.15-.68,9.8,.88,1.65,1.56-1.85,6.13-7.15,6.85-5.3,.72-12.09,1.89-12.76,1.19-.67-.7-1.27-7.06-.73-8.98,.53-1.92,5.72-1.4,5.72-1.4Z"/><path class="cls-82" d="M248.98,321.8s11.1,13.85,13.53,20.1l-12.07,8.19s-10.07-8.85-13.36-12.59c-3.29-3.74,2.8-26.25,11.89-15.7Z"/><polygon class="cls-27" points="262.03 384.36 262.67 387.29 256.94 388.69 256.06 385.68 262.03 384.36"/><path class="cls-82" d="M262.52,341.9s4.6,7.11,2.07,28.33c0,0-1.12,12.92-.57,14.23,.55,1.31-9.72,3.08-9.75,1.69-.03-1.38-.93-30.79-3.83-36.06-2.55-4.64,12.07-8.19,12.07-8.19Z"/><path class="cls-44" d="M196.16,375.82s-.57,1.31-.06,3.36c.51,2.05,3.63,7.72,2.88,9.56-.75,1.84-5.59,.44-7.86-3.66-2.27-4.1-6-8.68-5.63-9.45,.36-.77,5.98-3.86,7.71-4.03,1.74-.17,2.96,4.22,2.96,4.22Z"/><path class="cls-22" d="M253.51,328.75s-8.62,21.2-15.6,28.01c0,0-11.38-4.02-14.95-6.51,0,0,6.16-17,6.47-21.28,.31-4.28,24.09-.21,24.09-.21Z"/><polygon class="cls-85" points="198.28 374.43 196.11 375.88 193.01 371.62 195.3 369.98 198.28 374.43"/><path class="cls-22" d="M237.91,356.76c-4.6,5.99-39.13,18.55-39.13,18.55,0,0-1.73-1.73-3.11-3.37-.29-.34-.56-.68-.8-.99-.3-.4-.55-.77-.71-1.07-.88-1.69,8.09-6.91,8.09-6.91,20.92-14.99,22.27-17.17,22.27-17.17,0,0,2.11,.58,4.71,1.59,.37,.15,.76,.3,1.14,.46,4.78,2,10.34,5.27,7.54,8.91Z"/><path class="cls-39" d="M236.37,328.92s-.97,4.96-2.45,9.98c-1.16,3.91-2.34,6.9-3.55,8.95-.92,1.56-1.85,2.58-2.78,3.05-4.7,2.36-31.06,20.45-31.92,21.04-.29-.34-.56-.68-.8-.99,1.31-.9,27.35-18.73,32.16-21.15,.75-.38,1.49-1.24,2.19-2.41,2.8-4.67,5.08-14.31,5.86-18.47h1.29Z"/><path class="cls-28" d="M253.37,278.98s-.86,3.96-.58,5.59c.27,1.64-7.76-4.51-7.76-4.51,0,0,1.25-5.38,.85-8.27-.39-2.89,7.5,7.19,7.5,7.19Z"/><path class="cls-28" d="M244.22,281.29l-18.38,19.18s-2.58,1.79-.49,6.93c2.32,5.71,10.49,14.34,10.49,14.34,0,0,3.11-.69,3.41-2.12,.3-1.44-7.15-13.91-6.78-15.08s10.17-10.74,10.17-10.74c0,0,3.9-11.26,1.58-12.49Z"/><path class="cls-2" d="M255.53,331.73c-.41,.73-1.99,3.98-2.81,3.86l-24.14-4.79s6.07-17.78,5.08-27.1c-.72-6.81,4.24-17.17,9.43-22.09,.63-.6,1.26-1.11,1.89-1.54,0,0,7.81,4.38,8.2,4.55,.13,.05,.8,1.05,1.6,2.62h0c1.67,3.27,3.94,9.03,3.22,13.99-1.07,7.34,1.47,13.07,.34,21.37-.65,4.83-1.28,6.36-2.82,9.12Z"/><path class="cls-25" d="M273.06,321.41c-.04,.06-.12,.11-.25,.15-.45,.17-1.44,.27-2.76,.31-5.39,.18-16.33-.59-19.34-1.83-3.95-1.63-8.18-21.8-8.18-21.8l8.52-3.14,3.48,13.82c.33,1.29,1.04,2.44,2.05,3.3,1.07,.9,2.54,1.95,3.93,2.3,2.69,.67,6.46,1.51,9.21,2.1,1.28,.28,2.33,.5,2.94,.63,.37,.08,.59,.12,.59,.12,0,0,.55,2.97-.21,4.04Z"/><path class="cls-25" d="M273.1,317.34s1.43-.51,2.2-1.53c.78-1.02,3.03-1.02,3.96-.41,.93,.61,2.3,.26,2.54,1.04,.24,.78-1.12,1.46-1.12,2.13,0,.67,.24,3.83-2.33,4.09-2.57,.25-4.49-1.14-5.81-1-1.32,.14,.54-4.31,.54-4.31Z"/><path class="cls-25" d="M256.73,263.76s2.54,4.16,2.51,5.17c-.03,1.01-1.1,1.02-.58,2.08,.52,1.06,1.57,3.04,1,3.68-.57,.64-1.49,.29-1.81,1.67-.32,1.38-1.21,4.41-2.87,4.41-1.67,0-8.43-2.07-8.76-3.42-.33-1.35-2.21-8.88-2.85-10.33-.64-1.45,5.97-6.27,9.63-5.49,2.43,.51,3.73,2.24,3.73,2.24Z"/><path class="cls-38" d="M253.93,301.77l-11.25,2.21s-.15-.78-.3-1.97c-.43-3.37-.9-10.04,1.88-11.47,6.63-3.43,8.77,4.94,9.42,9.08,.2,1.28,.25,2.15,.25,2.15Z"/><path class="cls-53" d="M257.89,265.77s-1.28-5.63-8.67-4.87c-7.01,.72-6.83,6.34-6.28,9.28,1.36,7.17,3.02,6.13,3.02,6.13,0,0-.52-2.04,.56-4.59,.17-.39,3.26,1.19,3.26,1.19l2.27,.61s-5.08-10.9,5.83-7.75Z"/><path class="cls-25" d="M249.61,269.79s-1.03-2.44-3.14-.73c-1.53,1.24,.28,5.36,1.82,5.27,1.54-.09,2.07-2.39,1.32-4.53Z"/><path class="cls-16" d="M272.73,321.64c-.45,.17-1.37,.19-2.69,.24l-.31-5.26c1.28,.28,2.33,.5,2.94,.63,.14,.98,.26,2.85,.05,4.39Z"/><path class="cls-43" d="M253.93,301.77l-11.25,2.21s-.15-.78-.3-1.97l11.29-2.39c.2,1.28,.25,2.15,.25,2.15Z"/><path class="cls-43" d="M254.78,287.25c-7.22-2.78-11.69-5.64-11.69-5.64,.63-.6,1.26-1.11,1.89-1.54,0,0,7.81,4.38,8.2,4.55,.13,.05,.8,1.05,1.6,2.62Z"/></g><g><path class="cls-58" d="M322.47,314.81s-1.16,4.51-4.52,5.67l8.79,5.59s-.68-3.81,1.9-5.61c2.46-1.72-6.16-5.64-6.16-5.64Z"/><path class="cls-58" d="M325.18,392.96s9.5,11.51,10.2,13.68c1.36,4.25-2.81,9.54-5.01,12.26-2.2,2.72-17.37,13.84-25.69,25.23,0,0-4.39-1.81-4.62-4.25,0,0,12.93-21.31,15.64-24.19,2.72-2.87,5.16-7.29,3.97-7.89-1.19-.61-8.6-2.46-12.72-4.38-4.11-1.92,18.23-10.46,18.23-10.46Z"/><path class="cls-5" d="M306.87,374.23s-.68,1.66,1.02,3.59c1.7,1.94,17.87,14.63,17.29,15.14-.58,.5-14.03,12.1-14.03,12.1,0,0-18.94-6.28-20.78-13.76-1.83-7.47,16.49-17.07,16.49-17.07Z"/><path class="cls-58" d="M313.74,322.96s-15.36,5.35-23.84,7.3c-8.48,1.95-31.11,17.21-31.11,17.21l1.96,4.19s20.59-8.76,22.93-9.98c2.34-1.23,17.51-3.59,19.66-5.3,2.15-1.72,10.4-13.41,10.4-13.41Z"/><path class="cls-58" d="M341.75,305.29s-1.19,5.69-1.88,6.55c-.69,.86-1.62,.16-1.87,1.42-.25,1.26,.31,3.62-1.55,3.85-.93,.12-.54-.12-1.73,.86-1.19,.98-4.59,3.64-6.03,2.54-1.44-1.1-7.03-3.91-6.43-5.29,.6-1.39,1.42-14.21,1.82-15.88,.4-1.67,19.02,.74,18.34,3.35l-.68,2.61Z"/><path class="cls-29" d="M341.62,306.78s.78-1.22,1.39-3.44c.61-2.22-2.68-5.15-4.84-6.02-3.82-1.54-4.69-1.64-7.35-1.2-1.32,.22-5.92-1.36-6.92,4.43-1,5.79-1.12,10.44-1.12,10.44,0,0,2.2-2.58,2.96-1.92,.76,.66,3.6-1,3.6-1l.04,.67,1.6,.79s1.15-5.29,2.61-5.28c1.45,.01,7.53,2.96,8.04,2.52Z"/><g><path class="cls-58" d="M262.44,350.95s-3.14,1.38-3.46,1.67-.95,2.23-.89,2.88c.06,.64-.09,3.68-.44,3.73-.35,.05-1.31-1.71-1.22-2.73,.08-.93-.16-1.27-.39-1.31-.23-.04-1.31-.11-1.65,.15-1.94,1.52-4.51,4.47-4.93,4.55-.4,.08-.83-.57,.66-2.1,1.49-1.54,2.73-2.81,2.44-2.73-.29,.07-3.24,2.25-3.34,2.33-.1,.07-2.58,1.81-3.06,1.4-.47-.4-.27-.96-.27-.96,0,0-.54-.23-.59-.68-.06-.45,.75-1.3,1.39-1.85,0,0-.7-.01-.57-.64,.13-.63,3.42-3.68,3.66-4.04,.24-.36,3.6-2.51,5.67-2.71,2.07-.2,5.55-1.38,5.55-1.38l1.42,4.44Z"/><path class="cls-3" d="M250.55,351.22h.12c.05,.73,1.94,3.31,1.95,3.33l-.1,.07c-.08-.11-1.93-2.63-1.98-3.4Z"/><path class="cls-3" d="M254.99,350.31l.12,.03c-.3,1.86,.99,4.42,1,4.44l-.11,.05s-1.31-2.62-1.01-4.52Z"/></g><path class="cls-58" d="M352.51,331.35s.92-4.66,1.38-5.56c.46-.9,2.51-3.26,2.98-4.48,.47-1.23,.39-2.2,1.11-3.63,.72-1.44,1.18-1.86,1.61-3.1,.43-1.24,.73-2.57,.03-2.26-.71,.31-1.22,1.99-1.81,2.85-.59,.86-1.16,2.34-1.21,1.66-.04-.67,.47-2.98,.71-3.76,.24-.78,.4-2.07,.3-2.71-.07-.43-1.11-.62-1.11-.62,0,0,.12-1.13-.42-1.3-.55-.17-1.1-.02-1.14,.34,0,0-1.19-.87-1.49-.08-.3,.79-1.55,5.49-1.82,5.97-.27,.48-1.58,2.29-1.93,1.78-.35-.52-1.54-2.9-3.08-3.02-1.54-.12-.6,.64,.41,1.95,1.02,1.32,1.88,5.11,2.31,5.65,.43,.54,.57,1.74,.58,2.59,.01,1.06-2.62,7.21-2.62,7.21l5.23,.5Z"/><path class="cls-88" d="M317.94,320.48s7.22-1.3,11.91,12.14c.18,.53,1.44,2.46,.46,10.18-1.05,8.33-4.74,7.37-9.95,15.55-3.15,4.95-6.91,11.79-7.98,13.74-.48,.87-5.85-.47-6.64-.52-.1,0-5.21-.38-5.3-.43l-14.61-1.42s14.68-17.33,16.4-29.21c1.15-7.94,9.01-17.21,15.7-20.04Z"/><path class="cls-88" d="M285.84,369.73s-3.93,4.44-5.68,9.8c-1.75,5.36-7.01,16.09-7.01,16.09l11.49,8.18s17-13.64,20.91-20.87c3.92-7.23,6.83-10.83,6.83-10.83l-26.54-2.36Z"/><path class="cls-58" d="M284.63,403.8s-3.65,2.5-4.55,4c-.9,1.51-10.2,10.04-14.16,13.69-3.96,3.65-17.9,17.69-17.9,17.69l-3.34-3.61s15.52-21.61,17.14-26.18c1.62-4.58,11.32-13.76,11.32-13.76l11.49,8.18Z"/><path class="cls-58" d="M321.23,322.51s11.11,13.57,4.27,20.81c-7.21,7.62-12.41,6.13-14.77,2.09-6.13-10.48,4.25-27.69,10.5-22.9Z"/><path class="cls-58" d="M322.28,325.45l17.39,23.22s10.32-23.43,10.24-24.85c-.07-1.42,4.32,1.43,4.32,1.43,0,0-7.13,30.75-9.82,33.35-2.7,2.61-5.42,.92-6.91,.05-1.43-.84-23.49-22.87-23.49-22.87,0,0-1.12-15.87,8.26-10.33Z"/><path class="cls-5" d="M300.81,439.83s3.04,1.45,3.8,1.33c.76-.12,2.28,.27,2.69,.79s1.34,5.29,2.68,6.11c1.34,.82,9.48,3.81,8.4,6.09-1.08,2.28-4.98,2.22-11.56,.52-6.58-1.7-11.29-4.35-11.53-5.09-.23-.74,2.84-6.88,3.28-8,.44-1.12,1.88-1.92,2.23-1.76Z"/><path class="cls-88" d="M244.68,435.56s3.5,2.76,4.07,2.88c.57,.12,.06,1.28-.3,2.65-.36,1.38,.37,9.04,.68,9.38,.31,.34,6.74,2.31,6.35,3.45-.39,1.14-6.54,2.82-9.92,2.07-3.38-.75-6.07-12.16-6.81-13.51-.73-1.35,.72-7.76,5.93-6.93Z"/><path class="cls-88" d="M340.66,309.77s-14.06-3.22-17.65-2.36c0,0-.12-2.32,.28-2.65,.4-.33,12.57,1.11,17.99,2.66,0,0-.02,1.42-.61,2.35Z"/><path class="cls-58" d="M329.45,306.72s-.24-2.87-3-1.82c-2.01,.76-1.52,5.63,.1,6.06,1.62,.43,2.95-1.78,2.89-4.24Z"/></g><g><polygon class="cls-7" points="149.07 433.27 146.2 434.03 148.61 441.07 151.4 440.38 149.07 433.27"/><path class="cls-7" d="M214.2,388.09c-.71,1.24-1.81,3.52-3.01,6.13-.49,1.07-1,2.2-1.5,3.32-2.44,5.47-4.8,11.04-4.8,11.04,0,0-11.71,20.76-16.96,23.24-10.35,4.89-37.1,8.74-37.1,8.74l-3.13-6.92s14.46-5.24,21.28-8.08c7.92-3.29,12.98-3.72,15.01-10.55,1.35-4.55,3.82-20.02,3.84-20.16,.66-7.71,1.93-17.72,4.21-20.88,1.91-2.65,22.16,14.13,22.16,14.13Z"/><path class="cls-35" d="M215.19,388.47s-1.69,3.45-3.93,8.01c-.55,1.13-1.14,2.32-1.74,3.54-2.42,4.94-5.1,10.41-6.89,14.07,0,0-16.32-4.38-18.03-6.09,0,0,4.33-30.57,6.39-33.84,0,0,6.78-7.67,24.2,14.32Z"/><path class="cls-10" d="M146.2,434.03s1.34,3.74,1.92,5.29c.58,1.55,1.98,1.83,1.02,2.43-.97,.6-3.99,3.65-4.42,5.35-.44,1.69-2.58,12.73-5.1,12.85-2.53,.12-3.2-5.1-3.28-12.42-.08-7.32-1.96-7.58-.51-12.4,.45-1.5,10.38-1.09,10.38-1.09Z"/><path class="cls-34" d="M230.07,328.77l-.56-.06c.02-.13,1.53-13.57-.44-19.31l.53-.18c2.02,5.86,.53,19,.47,19.56Z"/><polygon class="cls-7" points="260.49 454.99 262.09 457.36 267.73 452.97 266.22 450.66 260.49 454.99"/><path class="cls-7" d="M247.4,411.66c-.84-3.68-7.7-12.88-12.46-18.29h0c-7.51-8.68-12.61-15.61-12.61-15.61,0,0-30.76,5.37-29.91,8.37,1.62,5.69,16.78,11.17,19.63,13.11l5.91,3.48s5.87,3.55,10.23,6.74c5.84,4.28,5.07,6.82,9.06,13.61,3.57,6.08,23.67,32.58,23.67,32.58l5.88-4.09s-18.1-34.18-19.41-39.9Z"/><path class="cls-18" d="M222.34,377.76l15.08,17.75-12.79,12.18s-29.6-12.61-32.94-21.5c0,0,19.27-9.92,30.65-8.43Z"/><path class="cls-7" d="M257.02,369.5s-2.63-.69-3.96-1.35c-1.34-.66,3.35-3.55,3.35-3.55l.61,4.89Z"/><path class="cls-7" d="M256.42,363.28s3.1-2.74,3.59-3.15c.49-.4,2.24-.58,4.27-.6,2.03-.02,4.78,.86,4.98,1.15,.2,.29,.53,.49,.52,1.4-.01,.9-.77,1.59-.77,1.59,0,0,.51,1.18-.18,2.07,0,0,.52,.97-.43,1.84,0,0,.55,1.18-.19,1.76,0,0-1.76,.18-2.39,.43-.63,.25-5.26,.15-8.8-.28,0,0-2.26-1.34-.59-6.22Z"/><path class="cls-40" d="M262.26,363.88s-.9,1.88-1.42,2.28c-.52,.4,2.9,3.6,2.9,3.6,0,0,.75-4.72-1.49-5.89Z"/><path class="cls-48" d="M268.72,360.67s-5.14,.18-5.21,1.02c-.07,.84,.4,1.19,.4,1.19l-2.08,1.04s-.99,1.47,.89,2.13c0,0-1.07,1.28,.83,1.69,0,0-.33,1.16,.51,1.51,.84,.35,4.14,.09,4.14,.09,0,0,.67-.37,.35-1.64,0,0,.96-.79,.52-1.96,0,0,.67-.75,.18-2.01,0,0,1.36-1.79,0-3.06,0,0-.32-.03-.53-.02Z"/><path class="cls-7" d="M260.17,360.11s3.2,1.51,4.58,3.1c.31,.36,.55,.77,.34,1.2-.21,.43-1.1,.66-2.52,.08-1.42-.58-3.51-.68-3.51-.68,0,0-1.28-1.03,1.12-3.7Z"/><path class="cls-11" d="M225.08,332.8s2.35,15.53,5.64,23.85c1.03,2.61,25.53,5.35,25.9,6.37,.37,1.02-2.28,7.47-2.28,7.47,0,0-30.7-3.07-31.67-4.54-.98-1.47-9.18-28.71-8.8-31.8,.39-3.09,2.12-6.15,5.42-6.18,4.64-.04,5.79,4.83,5.79,4.83Z"/><path class="cls-62" d="M218.68,360.64c-.17,2.96,3.65,17.12,3.65,17.12l-36,9.9s3.34-10.92,3.77-20.98c.12-2.84,.46-5.53,.9-8.06,.44-2.49,.97-4.82,1.51-6.98,.84-3.42,1.67-6.42,2.06-8.94,3.02-19.58,19.23-23.5,19.23-23.5l6.79,4.76s2.9,9.37,2.77,14.66c-.13,5.29-4.51,19.08-4.68,22.03Z"/><path class="cls-7" d="M234.65,301.4s2.5,4.96,1.17,5.68c-1.1,.6,1.11,5.46,1.39,6.25,.28,.79-1.99,1.3-2.49,1.79-.49,.49-2.09,6.65-3.96,6.78s-10.17-3.02-12.39-5.46c-2.22-2.44-3.79-13.22-2.13-17.7,1.65-4.48,14-6,18.41,2.66Z"/><path class="cls-7" d="M225.26,320.37c-.44,.9-1.16,2.43-1.57,3.34-.92,2.09-1.95,4.64-2.13,5.91-.33,2.38-7.76-10.43-7.76-10.43,0,0,4.68-5.45,6.89-15.25,1.91-8.47,4.57,16.42,4.57,16.42Z"/><path class="cls-12" d="M235.15,302.48s2.84-5.2-1.94-9.25c-4.77-4.05-13.97,2.56-15,2.79-1.02,.23-6.85,.48-4.17,10.66,2.35,8.95,2.37,8.57,2.37,8.57,0,0,2.23-4.42,3.3-5.15,1.68-1.15,5.29-.76,5.29-.76,0,0-1.59-4.62,1.12-5.19,2.71-.57,6.33-2.75,9.02-1.66Z"/><path class="cls-7" d="M222.22,306.63c-.22-.63-.91-3.35-3.27-1.83-2.36,1.52,1.25,6.71,1.65,6.78,.4,.08,3.46,.39,1.62-4.95Z"/><path class="cls-13" d="M165.37,388.59s-.17-1.03-.03-1.53c0,0,.33-.87,.53-1.51,.06-.2,.11-.38,.13-.5,.09-.49,.12-1.6,.66-2.72,.53-1.12,2.82-4.89,2.82-4.89l3.56,1.38,3.3,.29s.81,7.5,.44,8.61c-.04,.11-.08,.21-.13,.31-.41,.9-1.09,1.4-1.36,1.85-.1,.16-1.2,1.73-1.77,1.78-.79,.06-1.37-.21-1.7-.64,0,0-1.56,.06-2.39-.58,0,0-1.43,.1-2.25-.99,0,0-1.47-.06-1.81-.86Z"/><path class="cls-62" d="M213.12,332.1s-16.24,13.74-21.96,21.18c-1.79,2.33-12.35,25.23-13.07,26.11-.72,.88-9.36-1.43-9.36-1.43,0,0,12.46-28.63,13.26-30.3,.8-1.67,22.07-24.42,27.11-26.62,2.99-1.3,3.44,.24,5.25,3.22,2.54,4.18-1.23,7.83-1.23,7.83Z"/><path class="cls-66" d="M225.26,320.37c-.25,.51-.76,1.55-1.14,2.38-4.38-3.45-5.38-5.89-5.41-5.97,2.05,1.57,6.54,3.59,6.54,3.59Z"/><path class="cls-10" d="M261.83,456.97s3.13-2.36,4.4-3.35c1.28-.99,1.13-2.39,1.98-1.66,.84,.73,4.58,2.67,6.29,2.58,1.71-.09,12.67-1.3,13.51,1.03,.84,2.33-3.84,4.48-10.67,6.69-6.82,2.21-6.52,4.05-11.45,4.1-1.54,.02-4.06-9.39-4.06-9.39Z"/><path class="cls-46" d="M201.9,342.11l-10.9,16.51c.44-2.49,.97-4.82,1.51-6.98h0c1.66-2.12,9.39-9.53,9.39-9.53Z"/><path class="cls-18" d="M203.81,340.34s-3.79-5.74-7.58-8.09c0,0-2.47,1.97-3.34,3.39,0,0,6.14,6.46,7.33,8.1,0,0,2.01-1.22,3.6-3.4Z"/><g><rect class="cls-26" x="203.65" y="331.21" width=".84" height="1.72" transform="translate(288.34 -48.48) rotate(44.06)"/><path class="cls-34" d="M195.35,330.43h6c.52,0,.94,.42,.94,.94v13.22c0,.52-.42,.94-.94,.94h-6c-.52,0-.94-.42-.94-.94v-13.22c0-.52,.42-.94,.94-.94Z" transform="translate(290.74 -42.86) rotate(44.04)"/><rect class="cls-81" x="195.42" y="331.62" width="6.45" height="12.12" transform="translate(290.61 -43.14) rotate(44.04)"/><path class="cls-81" d="M203.57,333.57l-.99-.96s-.05-.12,0-.17h0s.12-.05,.17,0l.99,.96s.05,.12,0,.17h0s-.12,.05-.17,0Z"/><path class="cls-81" d="M194.18,343.08c-.21,.22-.56,.22-.77,.01-.22-.21-.22-.56-.01-.77,.21-.22,.56-.22,.77-.01,.22,.21,.22,.56,.01,.77Z"/></g><path class="cls-34" d="M222.57,308.02c.06,.78-.52,1.45-1.3,1.51s-1.45-.52-1.51-1.3,.52-1.45,1.3-1.51,1.45,.52,1.51,1.3Z"/><path class="cls-34" d="M219.08,346.77c-.87,.07-1.73-.18-2.57-.73-3.28-2.14-4.73-6.62-5.89-10.22-.91-2.83-1.7-5.27-3.03-5.56-.83-.18-1.91,.47-3.31,2l-.41-.38c1.57-1.71,2.79-2.4,3.85-2.17,1.64,.36,2.44,2.82,3.44,5.94,1.14,3.52,2.55,7.9,5.66,9.92,1.07,.69,2.11,.83,3.2,.41,5.16-1.99,9.04-15.62,9.46-17.17-3-3.6-8.35-19.89-8.58-20.59l.53-.18c.06,.17,5.67,17.25,8.57,20.51l.1,.11-.04,.15c-.17,.63-4.14,15.5-9.84,17.69-.38,.15-.76,.23-1.14,.26Z"/></g><g><path class="cls-79" d="M106.92,307.52l-21.26,21.46s-3.18,2.33-.38,8.73c3.11,7.1,13.69,17.68,13.69,17.68,0,0,3.89-.97,4.22-2.79,.33-1.82-9.47-17.25-9.05-18.74,.42-1.49,12.42-13.87,12.42-13.87,0,0,3.32-11,.36-12.47Z"/><path class="cls-28" d="M120.88,299.16s-1.04,5.87-.63,8.07c.41,2.2-9.3-5.98-9.3-5.98,0,0,1.54-7.3,.94-11.18-.61-3.88,8.99,9.09,8.99,9.09Z"/><path class="cls-56" d="M137.59,402.53s3.56,5.26,3.81,10.3c.25,5.04,12.26,42.98,12.26,42.98l-6.24,2.75s-12.25-22.94-14.37-29c-1.69-4.86-1.74-8.29-5.14-14.32-1.71-3.04-5.15-6.29-5.15-6.29l14.82-6.41Z"/><path class="cls-8" d="M94.24,405.87s-3.18,3.65-7.17,6.73c-4,3.08-37.98,26.13-37.98,26.13l-4.34-5.05s19.57-14.77,22.5-20.48c2.93-5.71,10.01-8.84,12.36-11.42,2.35-2.58,2.66-4.59,2.66-4.59l11.97,8.67Z"/><path class="cls-56" d="M123.02,374.57s12.19,20.23,15.13,28.83l-13.31,7.68s-11.91-12.26-15.94-17.59c-4.03-5.33,2.99-33.93,14.12-18.92Z"/><path class="cls-8" d="M119.04,373.43s-15.63,27.05-26.54,34.29c0,0-7.14-3.98-11.23-8.16,0,0,8.13-24.19,9.6-29.75,1.47-5.56,28.17,3.62,28.17,3.62Z"/><path class="cls-45" d="M110.9,301.21s9.09,4.91,9.63,5.13c.54,.22,7.07,12.37,5.82,22.26-1.25,9.89-4.48,15.63-5.78,26.79-.76,6.5,1.45,14.05,2.36,16.35,.41,1.04,.94,2.64-.17,2.5l-32.59-4.53s7.69-24.02,6.13-36.5c-1.28-10.23,6.92-26.62,14.59-32Z"/><path class="cls-33" d="M154.76,457.98s1.68,.74,4.3,1.3c2.9,.63,9.29-2.41,11.6-.85,2.31,1.55,2.28,4.47-4.03,6.37-6.31,1.9-16.32,5.67-17.27,4.96-.95-.71-2.02-6.54-1.75-8.96,.27-2.41,7.14-2.82,7.14-2.82Z"/><polygon class="cls-60" points="153.66 455.8 154.76 457.98 147.62 460.8 147.42 458.55 153.66 455.8"/><path class="cls-45" d="M47.74,440.33s-.12,1.83,.25,4.49c.41,2.94,5.44,7.91,4.78,10.61-.67,2.7-3.42,3.67-7.36-1.6-3.94-5.28-10.92-13.39-10.57-14.53,.35-1.13,5.46-4.14,7.82-4.71,2.36-.57,5.09,5.74,5.09,5.74Z"/><polygon class="cls-74" points="49.42 438.54 47.74 440.33 42.65 434.59 44.7 433.62 49.42 438.54"/><path class="cls-25" d="M146.05,341.01s2.14-.85,3.13-2.26c.99-1.4,4.02-1.51,5.3-.74,1.27,.77,3.1,.24,3.46,1.28,.36,1.04-1.44,2-1.4,2.91,.03,.9,.5,5.13-2.93,5.59-3.44,.46-6.07-1.33-7.84-1.08-1.77,.25,.29-5.7,.29-5.7Z"/><path class="cls-25" d="M127.43,279.45s1.73,4.04,1.72,5.36c-.02,1.31-1.4,1.35-.7,2.71,.7,1.36,2.32,4.3,1.59,5.15-.73,.85-2.13,.4-2.51,2.2-.39,1.8-3.16,5.65-5.33,5.69-2.16,.04-9.3-2.76-9.76-4.51-.46-1.75-3.09-11.48-3.95-13.35s14.05-6.97,16.86-5.4c1.53,.86,2.08,2.14,2.08,2.14Z"/><path class="cls-33" d="M106.01,321.83s-2.52-9.58,3.14-9.88c6.55-.34,6.05,7.69,6.05,7.69l-9.19,2.18Z"/><path class="cls-25" d="M127.67,280.03s-1.59-8.96-13.83-6.27c-12.24,2.69-2.59,17.93-2.59,17.93l16.42-11.66Z"/><path class="cls-25" d="M116.65,284.79s-1.4-3.14-4.09-.88c-1.96,1.65,.5,6.95,2.5,6.8,2-.15,2.63-3.16,1.59-5.92Z"/><path class="cls-71" d="M127.27,278.77s-3.48,2.88-8.72,2.88-7.36-.07-9.65,5.25c0,0-7.1-11.76,7.01-14.43,0,0,10.98-4.66,11.35,6.3Z"/><path class="cls-33" d="M115.2,319.64l3.84,22.51s1.17,1.68,7.51,1.06c6.34-.63,19.84-2.44,19.84-2.44,0,0,.17,4.48-.07,5.93-.13,.78-27.45,6.06-32.45,3.25-5-2.81-7.86-28.13-7.86-28.13l9.19-2.18Z"/></g><g><g><path class="cls-58" d="M487.16,403.64s-13.15,17.97-17.67,18.51c-9.43,1.14-29.18,11.04-29.18,11.04l-3.25-4.35s13.24-8.85,18.16-11.98c6.06-3.85,11.27-2.26,12.32-8.28,.66-3.78,3.95-11.07,3.95-11.07l15.67,6.12Z"/><path class="cls-32" d="M494.74,392.99s-1.7,4.93-6,11.27c0,0-12.79-4.05-18.41-7.23,0,0,3.25-17.84,6.73-21.81,1.71-1.96,17.69,17.76,17.69,17.76Z"/><polygon class="cls-31" points="437.11 428.81 435.37 430.03 438.66 434.31 440.37 433.15 437.11 428.81"/><path class="cls-84" d="M435.37,430.03s1.8,2.26,2.55,3.19c.76,.92,1.77,.78,1.26,1.43-.5,.65-1.8,3.48-1.69,4.76,.11,1.27,1.31,9.41-.35,10.1-1.67,.69-3.36-2.74-5.16-7.78-1.8-5.03-3.12-4.75-3.31-8.43-.06-1.14,6.7-3.27,6.7-3.27Z"/></g><g><path class="cls-58" d="M508.78,388.21s11.4,15.88,11.08,20.55c-.32,4.68,11.65,35.41,11.65,35.41l-4.51,2.71s-17.16-23.62-16.55-29.54c.74-7.16-1.58-7.25-6.28-11-2.95-2.35-9.26-7.66-9.26-7.66l13.87-10.46Z"/><path class="cls-15" d="M500.92,376.2s5.95,4.5,8.66,11.27c0,0-9.5,9.04-15.42,11.55,0,0-18.4-16.72-19.21-22-.4-2.6,25.97-.82,25.97-.82Z"/><polygon class="cls-24" points="527 446.88 527.94 448.77 532.39 446.02 531.51 444.17 527 446.88"/><path class="cls-84" d="M527.79,448.46s2.46-1.47,3.46-2.1c1.01-.62,1.03-1.67,1.57-1.06,.54,.61,3.07,2.38,4.31,2.46,1.24,.09,9.24,.15,9.65,1.95,.4,1.8-3.16,2.98-8.28,4.02-5.11,1.04-5.05,2.42-8.61,2.03-1.11-.12-2.11-7.31-2.11-7.31Z"/></g><path class="cls-58" d="M500.93,334.95l7.73,19.04s.4,2.64,5.9,.81c5.62-1.88,17.84-4.98,17.84-4.98,0,0,1.42,3.51,.02,4.35-1.91,1.15-18.77,9.14-25.23,10.96-5.13,1.45-15.2-24.75-15.2-24.75l8.93-5.42Z"/><path class="cls-1" d="M499.35,324.73s2.33-.82,9.47,5.91c.39,.37,2.01,6.62,2.61,14.16,.74,9.23-2.36,11.2-5.2,18.41-2,5.09-4.34,9.5-5.05,11.55-.31,.91-5.43,1.45-6.19,1.54-.1,.01-5.05,.5-5.15,.47l-16.88,2.86s17.81-21.77,16.25-33.35c-1.27-9.49,3.57-17.89,10.14-21.55Z"/><path class="cls-58" d="M518.79,302.81s1.19,5.61,1.19,6.84c0,1.22-1.03,1.28-.82,2.69,.23,1.55,1.18,5.02,.51,5.82-.67,.8-1.5,.3-2.57,1.64-1.19,1.47-1.71,4.73-3.71,4.78-2.01,.05-9.15-3.63-9.59-5.25-.44-1.62-1.41-10.42-2.23-12.15-.82-1.73,14-9.79,15.23-7.06,1.23,2.73,1.99,2.69,1.99,2.69Z"/><path class="cls-58" d="M526.48,352.18s2.36-.49,2.67-1.12c.31-.64,1.08-1.73,1.46-2.25,.38-.53,.96-2.28,1.52-2.69,.23-.17,1.97-.69,2.4-1.08s1.24-1.28,1.51-.93c.28,.35-.25,1.31-.25,1.31,0,0,.42-.33,.76-.12,.67,.42,.57,.96,.57,.96,0,0,.61-.09,.83,.16,.5,.56,.39,1.07,.39,1.07,0,0,.6,.21,.66,.56,.18,1.04-.11,1.2-.11,1.2,0,0,.56,.62,.3,1.09-.26,.47-.62,.73-.91,1.05-.29,.32-3.61,2.33-6.32,2.87-2.71,.54-4.74,2-4.74,2l-.75-4.08Z"/><path class="cls-58" d="M477.05,360.91s1.14,3.97,2,4.5c.86,.53,3.01,2.82,3.29,3.3,.27,.48,3.84,4.11,2.56,4.49-.88,.26-2.02-1.88-2.37-1.98-.39-.11-1.07-.32-1.12,.13s1.01,2.68,1.11,3.47c.1,.78,.64,3.29,.38,3.63-.26,.34-.95,.41-1.25-1.75-.3-2.12-1.18-3.34-1.18-3.34,0,0,.06,2.38,.17,3.1,.12,.82,.2,3.1-.11,3.35-.33,.27-.81-.23-.81-.23,0,0-.51,1.04-1,.45s-.92-3.11-1.08-3.56c-.16-.45-.97-2.82-1.06-2.82-.09,0-.6-.1-.54,.25,.06,.35,.49,4.36,.33,4.53-.15,.17-.68,.41-.9-.36-.22-.77-.71-4.38-.88-4.79-.17-.4-.87-2.69-.94-5.34-.08-2.64-.53-3.89-.53-3.89l3.93-3.16Z"/><path class="cls-58" d="M496.03,338.81s4.52,.03,4.42-7.3c-.13-9.22-11.35-1.23-30.14,4,0,0-5.26,1.44-4.45,6.97,.81,5.54,8.2,24.33,8.41,26.09l4.02-3.47s-1.68-9.47-2.04-14.01c-.35-4.53-2.22-8.41-2.22-8.41l22-3.87Z"/><path class="cls-58" d="M494.71,329.17s2.08-3.46,4.6-1.97c2.52,1.49,5.17,5.78,4.56,12.7-.61,6.92-7.05,8.71-9.97,6.69-2.91-2.02-2.25-12.5,.8-17.42Z"/><path class="cls-64" d="M513.23,308.38s5.19,1.94,6.75,1.27c1.56-.67-.41-2.91-.41-2.91,0,0-1.66-.24-6.33,1.65Z"/><path class="cls-15" d="M502,312.54s-10.49,5.02-11.02,4.68c-.53-.34-.02-1.99-.02-1.99l10.09-4.62,.95,1.93Z"/><polygon class="cls-64" points="504.67 313.84 503.25 316.17 502 312.54 504.19 310.87 504.67 313.84"/><polygon class="cls-64" points="509.92 309.4 511.17 312.97 507.92 312.77 507.47 309.42 509.92 309.4"/><path class="cls-58" d="M511.27,324.07s-2.48,3.99-2.44,6.57c.03,2.59,2.8,10.66,1.38,9.97-1.42-.69-3.87-12.62-10.85-15.88,0,0,5.22-3.29,3.9-8.57l8.02,7.91Z"/><path class="cls-15" d="M519.56,306.74s-10.67,2.35-17.57,5.8c0,0-3.54-5.52-.61-9.64,2.93-4.12,8.26-5.65,11.75-4.84,3.49,.82,6.22,3.83,6.43,8.68Z"/><path class="cls-58" d="M508.18,309.9s-1.33-2.91-3.81-.78c-1.81,1.55,.52,6.45,2.38,6.29,1.86-.16,2.41-2.96,1.43-5.51Z"/><path class="cls-15" d="M528.36,350.85s1.94,2.35,2.25,4.24c0,0-.56,.6-1.56,.76l-2.42-4.55s.8-.5,1.72-.46Z"/></g><g><path class="cls-42" d="M473.07,420.07c-2.72,3.81-11.78,14.87-18.23,22.66l-.3,.36c-2.79,3.37-5.05,6.09-6.02,7.25l-.15,.19-.15,.18c-.14,.16-.21,.25-.21,.25l-4.86-3.18s1.44-4.38,3.82-9.78c3.02-6.88,7.56-15.43,12.58-18.78,4.95-3.29,1.75-3.77-2.9-5.73-14.81-6.23-23.68-10.02-23.68-10.02l11.81-18.42s25.23,18.23,28.32,22.8c3.09,4.57,3.9,6.71-.03,12.21Z"/><path class="cls-9" d="M444.07,386.77s-14.22,25.43-28.26,38.93c-3.98,3.82-8.18,6.18-13.87,11.1-3.03,2.61-8.35,8.07-12.68,12.6l-.18,.19c-3.09,3.24-5.63,5.97-6.42,6.82-.03,.03-.05,.05-.07,.08l-.09,.09-.09,.1-4.24-3.57s1.99-4.12,4.68-9.23c3.78-7.16,8.92-16.26,11.87-18.62,5.04-4.03,10.43-5.4,12.22-9.11,1.79-3.71,8.03-24.08,8.03-24.08,0,0,1.27-9.76,9.49-13.56,8.01-3.7,19.63,8.26,19.63,8.26Z"/><path class="cls-55" d="M444.94,346.11s-18.27,9.9-18.62,12.18c-.5,3.19,6.49,12.67,6.49,12.67l-5.24,4.37s-15.03-17.68-8.87-21.89c7.4-5.06,22.08-16.09,22.08-16.09l4.16,8.76Z"/><path class="cls-55" d="M444.78,319.86s.71,7.3-1.07,9.63c-1.78,2.33,8.41,4.96,8.41,4.96,0,0,.1-5.77,1.82-8.42,1.42-2.19-9.16-6.17-9.16-6.17Z"/><path class="cls-58" d="M460.49,306.47s2.54,2.39,1.11,8.92c0,0,.38,5.26,1.15,6.21,.77,.95-2.2,1.17-2.54,1.82-.34,.65-1.04,3.7-3.18,5.48-2.13,1.78-12.12-4.21-12.49-7.39-.37-3.18-6.92-17.01,4.29-17.19,11.21-.19,11.66,2.17,11.66,2.17Z"/><path class="cls-58" d="M453.04,369.78c-.44,.54-.86,1.22-1.27,1.99-2.22,4.26-3.92,11.45-4.49,14.04-.13,.61-.2,.93-.2,.93-12.34,.68-22.65-8.24-22.65-8.24,.21-.37,.43-.72,.63-1.07,3.38-5.65,5.86-8.99,7.23-13.2h0c.77-2.36,1.2-4.99,1.25-8.45,.13-10,2.72-15.6,5.27-20.05,2.54-4.45,4.95-7.07,4.95-7.07l9.11,5.53c.98,2.8,3.43,5.46,6.69,12.28,3.46,7.27,3.59,10.9-6.53,23.3Z"/><polygon class="cls-14" points="448.21 450.71 447.36 452.47 441.86 449.4 443.15 447.78 448.21 450.71"/><path class="cls-87" d="M441.86,449.4s5.27,2.01,5.49,1.98c.22-.03,.45-.27,.87,.42,.42,.69,0,1.78,.36,2.51,.37,.73,3.18,4.45,4.42,6.89,.45,.88,2.6,4.27,2.32,5.55-.28,1.28-1.49,2.62-6.4-1.58-4.91-4.19-11.1-7.68-11.81-9.09-.71-1.41,3.34-5.41,4.75-6.68Z"/><polygon class="cls-14" points="381.14 458.23 382.41 456.68 378.16 453.11 376.52 454.63 381.14 458.23"/><path class="cls-87" d="M461.97,313.03s1.79-13.61-11.55-11.68c-13.34,1.93-7.31,17.12-5.72,22.06,0,0,.3-7.57,6.69-7.57s7.76-1.42,10.58-2.81Z"/><path class="cls-87" d="M443.19,316.48s3.58,5.6,.81,14.15c-2.74,8.45-12.84,6.14-17.61,2.77,4.45-4.88,6.93-10.63,8.18-14.29,.37-.97,.7-2.08,.98-3.33,0-.02,0-.05,.01-.07,.03-.12,.05-.21,.06-.26,0-.01,0-.02,0-.03h0c3.54-16.64,18.92-14.15,18.92-14.15l-11.36,15.21Z"/><path class="cls-58" d="M450.42,313.88c-.74-1.42-3.51-.78-3.28,1.34,.23,2.12,2.34,4.32,3.11,3.32,.77-.99,1.26-2.58,.17-4.66Z"/><path class="cls-23" d="M453.04,369.78c-.44,.54-.86,1.22-1.27,1.99,0,0-10.97-4.56-19.46-7.54,.77-2.36,1.2-4.99,1.25-8.45,.13-10,2.72-15.6,5.27-20.05,2.54-4.45,5.57-6.83,5.57-6.83l8.49,5.29c.98,2.8,3.43,5.46,6.69,12.28,3.46,7.27,3.59,10.9-6.53,23.3Z"/><path class="cls-58" d="M450.74,341.87s-1.9-6.01-7.2-4.08c-5.31,1.93-2.96,7.97-2.96,7.97l10.16-3.89Z"/><path class="cls-87" d="M376.52,454.63s4.08,2.83,5.18,2.91c1.11,.08,1.65,.55,1.58,2.23-.07,1.68,1.94,8.69,3.16,8.76,1.22,.07,5.35-.07,6.2,2.63,.85,2.7-13.03,2.65-13.97,.45-.94-2.2-7.32-12.8-6.65-13.7,.67-.9,2.47-2.93,4.49-3.28Z"/><polygon class="cls-76" points="433.28 359.94 453.89 367.81 451.77 371.78 432.31 364.24 433.28 359.94"/><path class="cls-58" d="M450.74,341.87s6.97,22.77,9.07,23.27c2.94,.7,17.52-3.92,17.52-3.92l1.1,4.95s-22.16,11.64-25.63,5.59c-4.17-7.26-12.22-26.01-12.22-26.01l10.16-3.89Z"/><path class="cls-41" d="M447.29,385.82c-.13,.61-.2,.93-.2,.93-12.34,.68-22.65-8.24-22.65-8.24,.21-.37,.43-.72,.63-1.07,0,0,8.54,7.39,22.21,8.38Z"/><path class="cls-58" d="M454.84,442.72l-.3,.36-6.02,7.25-.15,.19-.15,.18-5.07-2.93s1.44-4.38,3.82-9.78l7.88,4.73Z"/><path class="cls-58" d="M389.25,449.4l-.18,.19-6.42,6.82-.07,.08-.09,.09-.09,.1-4.24-3.57s1.99-4.12,4.68-9.23l6.41,5.52Z"/><path class="cls-55" d="M481.01,356.38s1.6-1.33,2.05-1.79c.45-.45,.9,.65,.47,1.27-.43,.62-2.52,.52-2.52,.52Z"/><path class="cls-58" d="M487.72,361.8s-.59,.7-.99,.92c0,0-.76,.35-1.29,.62-.17,.09-.31,.17-.4,.23-.37,.25-1.12,.88-2.17,1.27-1.04,.39-4.82,1.45-4.82,1.45l-1.09-2.64-.9-2.07s3.74-4.65,4.68-5.11c.09-.05,.18-.09,.27-.12,.83-.32,1.54-.27,1.99-.4,.16-.05,1.82-.41,2.17-.14,.49,.37,.63,.83,.53,1.25,0,0,.91,.76,.96,1.57,0,0,.87,.68,.61,1.74,0,0,.78,.79,.45,1.44Z"/></g></svg>