<?xml version="1.0" encoding="UTF-8"?><svg id="_лой_1" xmlns="http://www.w3.org/2000/svg" xmlns:xlink="http://www.w3.org/1999/xlink" viewBox="0 0 706.6 527.74"><defs><style>.cls-1{fill:#e4e6f5;}.cls-2{fill:#584b40;}.cls-3{fill:#d78973;}.cls-4{fill:#074d54;}.cls-5{fill:url(#linear-gradient-2);}.cls-6{fill:#ac2824;}.cls-7{fill:#003d47;}.cls-8{fill:#9b5a35;}.cls-9{fill:#eea886;}.cls-10{fill:#4e6194;}.cls-11{fill:#574f4b;}.cls-12{fill:#1d2033;}.cls-13{fill:#6899db;}.cls-14{fill:#fccca2;}.cls-15{fill:#efaa88;}.cls-16{fill:#e2d9d4;}.cls-17{fill:#803d5a;}.cls-18{fill:#8d7a6c;}.cls-19{fill:#323657;}.cls-20{fill:#044649;}.cls-21{fill:#8b95ca;}.cls-22{fill:#e55353;}.cls-23{fill:#303030;}.cls-24{fill:#4c8ba5;}.cls-25{fill:#f1c5c6;}.cls-26{fill:#e9d7e2;}.cls-27{fill:#f9cdba;}.cls-28{fill:#dbc9c2;}.cls-29{fill:#315566;}.cls-30{fill:#f2c5b1;}.cls-31{fill:#2e344c;}.cls-32{fill:#bcafb0;}.cls-33{fill:#d8cbd2;}.cls-34{fill:#1e5663;}.cls-35{fill:#663146;}.cls-36{fill:#68b2c9;}.cls-37{fill:#e8d5ce;}.cls-38{fill:#2c3047;}.cls-39{fill:#d5ddf1;}.cls-40{fill:#302f35;}.cls-41{fill:#796759;}.cls-42{fill:#649153;}.cls-43{fill:#8ad1f3;}.cls-44{fill:#cf8c6c;}.cls-45{fill:#857b76;}.cls-46{fill:#4d4542;}.cls-47{fill:#c2ab98;}.cls-48{fill:#6c5c4f;}.cls-49{fill:#77c3dc;}.cls-50{fill:#567eb5;}.cls-51{fill:#8e502d;}.cls-52{fill:#db9c7c;}.cls-53{fill:#a17e62;}.cls-54{fill:#7780bd;}.cls-55{fill:#fab46c;}.cls-56{fill:#ba8b58;}.cls-57{fill:#f5e97a;}.cls-58{fill:#eb9981;}.cls-59{fill:#3f4b73;}.cls-60{fill:none;}.cls-61{fill:#bfc7e6;}.cls-62{fill:#efaf8b;}.cls-63{fill:#5c432c;}.cls-64{fill:#343a57;}.cls-65{fill:#6ea2e8;}.cls-66{fill:#d16883;}.cls-67{fill:#41414c;}.cls-68{fill:#985e44;}.cls-69{fill:#a77860;}.cls-70{fill:#35704e;}.cls-71{fill:#5a5d6f;}.cls-72{fill:#eea987;}.cls-73{fill:#023035;}.cls-74{fill:#9c7d68;}.cls-75{fill:#dec15f;}.cls-76{fill:#b95972;}.cls-77{fill:#3d476e;}.cls-78{fill:#063333;}.cls-79{fill:url(#linear-gradient-3);}.cls-80{fill:#fadddf;}.cls-81{fill:url(#linear-gradient);}.cls-82{fill:#e9dc6e;}.cls-83{fill:#c48b6e;}.cls-84{fill:#62626b;}.cls-85{fill:#3e7287;}.cls-86{fill:url(#linear-gradient-4);}.cls-87{fill:#81a0d3;}.cls-88{fill:#34596b;}.cls-89{fill:#e66d45;}.cls-90{fill:#c62d2a;}.cls-91{fill:#4d4f5d;}.cls-92{fill:#316243;}</style><linearGradient id="linear-gradient" x1="374.32" y1="346.87" x2="374.32" y2="0" gradientTransform="matrix(1, 0, 0, 1, 0, 0)" gradientUnits="userSpaceOnUse"><stop offset=".46" stop-color="#d55d15"/><stop offset=".75" stop-color="#ffb615"/></linearGradient><linearGradient id="linear-gradient-2" x1="192.83" y1="397.74" x2="192.83" y2="108.27" gradientTransform="matrix(1, 0, 0, 1, 0, 0)" gradientUnits="userSpaceOnUse"><stop offset="0" stop-color="#3aa4e3"/><stop offset=".75" stop-color="#8ebd69"/></linearGradient><linearGradient id="linear-gradient-3" x1="540.48" y1="397.72" x2="540.48" y2="172.11" xlink:href="#linear-gradient-2"/><linearGradient id="linear-gradient-4" x1="338.68" y1="397.74" x2="338.68" y2="52.12" gradientTransform="matrix(1, 0, 0, 1, 0, 0)" gradientUnits="userSpaceOnUse"><stop offset="0" stop-color="#0466b3"/><stop offset=".75" stop-color="#63ab57"/></linearGradient></defs><rect class="cls-42" x="0" y="370.21" width="706.6" height="157.53" rx="72" ry="72"/><g id="Moon"><ellipse class="cls-81" cx="374.32" cy="173.44" rx="179.76" ry="173.44"/></g><rect class="cls-60" x="38.3" y="33.36" width="630.45" height="411.84"/><path class="cls-5" d="M30.57,397.36S162.09,98.86,197.05,108.5c34.96,9.63,151.31,289.24,158.05,289.24l-324.53-.38Z"/><path class="cls-79" d="M404.06,397.44s110.57-232.64,139.96-225.16c29.39,7.48,127.2,225.44,132.89,225.44l-272.84-.28Z"/><path class="cls-86" d="M495.58,397.74l-313.81-.19S296.65,84.36,338.68,53.89c42.04-30.48,156.9,343.85,156.9,343.85Z"/><polygon class="cls-20" points="198.21 428.41 226.78 385.01 211.34 385.01 236.78 346.37 223.63 346.37 247.93 309.46 234.92 309.46 264.39 264.68 294.59 309.46 280.98 309.46 305.87 346.37 292.09 346.37 318.17 385.01 302.01 385.01 331.3 428.41 198.21 428.41"/><polygon class="cls-78" points="325.93 428.39 375.46 353.14 348.7 353.14 392.79 286.14 369.99 286.14 412.12 222.13 389.57 222.13 440.67 144.5 493.03 222.13 469.44 222.13 512.61 286.14 488.71 286.14 533.9 353.14 505.91 353.14 556.67 428.39 325.93 428.39"/><polygon class="cls-7" points="108.05 428.41 121.64 407.77 114.3 407.77 126.4 389.38 120.15 389.38 131.71 371.81 125.52 371.81 139.54 350.51 153.9 371.81 147.44 371.81 159.28 389.38 152.72 389.38 165.12 407.77 157.44 407.77 171.37 428.41 108.05 428.41"/><polygon class="cls-4" points="536.92 427.81 555.78 399.17 545.59 399.17 562.37 373.66 553.69 373.66 569.73 349.3 561.15 349.3 580.6 319.75 600.53 349.3 591.55 349.3 607.97 373.66 598.88 373.66 616.08 399.17 605.43 399.17 624.76 427.81 536.92 427.81"/><path class="cls-73" d="M35.06,424.54s-3.83-10.77-2.34-14.78c1.18,3.71,5.25,6.43,5.25,6.43l2.91-9.64,4.57,8.35s3.51-3.68,3.51-4.89,3.98,8.58,3.98,8.58c0,0,3.33-5.21,3.75-7.23s1.98,12.85-.51,13.26-21.12-.08-21.12-.08Z"/><path class="cls-73" d="M569.17,426.99s1.46-12.25,3.87-16.38c2.41-4.13-6.71,8.19-6.71,8.19l-3.93-10.68v10.92s-6.18-3.97-6.18-8.44-1.77,7.9-2.06,10.46c-.38,3.04-.56,5.96,7.21,5.96l7.8-.04Z"/><path class="cls-34" d="M555.99,427.74l3.43-7.94-4.8,4.25-1.72-2.98-1.72,2.98-1.96-5.44-1.81,4.92-3.09-2.41v4.76c0,1.95,11.66,1.88,11.66,1.88Z"/><polygon class="cls-4" points="44.86 428.28 61.8 402.55 52.65 402.55 67.73 379.62 59.93 379.62 74.34 357.73 66.63 357.73 84.11 331.18 102.02 357.73 93.95 357.73 108.71 379.62 100.54 379.62 116 402.55 106.42 402.55 123.79 428.28 44.86 428.28"/><g><path class="cls-9" d="M79.65,396.68c-.11,2.85,7,10.42,7,10.42l-4.14,4.37s-.25-.24-.69-.66c-.24-.23-.54-.53-.89-.88-3.71-3.74-12.41-13.27-8.46-16.71,5.96-5.2,17.67-16.39,17.67-16.39l4.56,7.24s-14.97,10.57-15.05,12.61Z"/><path class="cls-9" d="M100.5,365.55c-.18,.38-.33,.81-.44,1.28-.16,.63-.25,1.32-.31,2-.18,2.17,.03,4.28,.03,4.28,0,0-9.19-1.25-7.88-3.47,1.32-2.23-.07-8.54-.07-8.54,0,0,9.67,2.39,8.66,4.45Z"/><path class="cls-9" d="M104.25,403.97c-.33,.51-.63,1.16-.9,1.88-1.51,3.96-2.24,10.44-2.47,12.76-.05,.55-.08,.83-.08,.83-10.74,1.88-22.47-1.07-22.47-1.07,.15-.34,2.07-4.48,2.22-4.8,2.37-5.3,4.19-8.49,4.96-12.31h0c.43-2.15,.54-4.5,.21-7.53-.92-8.77,.76-13.94,2.53-18.1,1.77-4.16,3.9-6.57,3.9-6.57l7.56,3.29c1.15,2.36,4.27,4.89,7.83,10.53,3.79,6,4.28,9.17-3.3,21.09Z"/><path class="cls-22" d="M104.25,403.97c-.33,.51-.63,1.16-.9,1.88,0,0-10.08-2.85-17.83-4.58,.43-2.15,.54-4.5,.21-7.53-.92-8.77,.76-13.94,2.53-18.1,1.77-4.16,3.9-6.57,3.9-6.57l7.56,3.29c1.15,2.36,4.27,4.89,7.83,10.53,3.79,6,4.28,9.17-3.3,21.09Z"/><path class="cls-9" d="M99.33,379.75s-2.29-5.07-6.73-2.83c-4.45,2.24-1.76,7.29-1.76,7.29l8.49-4.46Z"/><polygon class="cls-22" points="85.92 397.4 104.79 402.15 103.35 405.84 85.52 401.26 85.92 397.4"/><path class="cls-9" d="M99.33,379.75s8.47,19.22,10.36,19.44c2.65,.31,14.94-5.25,14.94-5.25l1.48,4.22s-18.2,12.49-21.87,7.56c-4.41-5.93-13.41-21.51-13.41-21.51l8.49-4.46Z"/><path class="cls-58" d="M127.36,389.32s1.27-1.33,1.61-1.78c.34-.44,.86,.48,.54,1.06-.32,.59-2.15,.71-2.15,.71Z"/><path class="cls-9" d="M133.8,393.37s-.44,.68-.77,.91c0,0-.63,.38-1.07,.68-.14,.09-.26,.18-.33,.24-.3,.26-.89,.89-1.77,1.34-.87,.45-4.08,1.77-4.08,1.77l-1.23-2.2-1-1.72s2.79-4.46,3.57-4.96c.08-.05,.15-.09,.23-.13,.69-.37,1.32-.4,1.7-.56,.14-.06,1.55-.55,1.89-.35,.47,.27,.64,.66,.6,1.04,0,0,.88,.57,1.01,1.27,0,0,.83,.5,.72,1.46,0,0,.77,.61,.54,1.21Z"/><path class="cls-9" d="M84.49,448.63s-7.25,8.64-10,9.15c-2.76,.51-30.22,12.38-30.22,12.38l-1.96-5.02s7.69-5.43,14.24-10.8c2.29-1.88,9.28-3.56,12.21-6.24,2.56-2.33,4.88-10.46,5.5-10.69,.62-.23,10.23,11.22,10.23,11.22Z"/><path class="cls-9" d="M107.57,431.14s10.26,16.17,11.48,20.36c1.22,4.2,.8,7.52,1.98,13.37,1.18,5.84,6.05,22.54,6.05,22.54l-4.9,2.23s-11.48-18.53-12.3-23.58c-.82-5.05,.54-9-1.32-11.68-1.87-2.68-13.76-11.76-13.76-11.76l12.77-11.47Z"/><path class="cls-19" d="M77.34,426.49s-.47,4.04-.76,4.98c-.29,.94-4.87,10.99-5.48,13.06l9.32,8.6s10.55-10.34,11.01-12.94c.46-2.6-14.09-13.69-14.09-13.69Z"/><path class="cls-19" d="M100.7,419.24s.22,3.16,1.27,4.21c3.49,3.47,9.99,14.81,9.99,14.81l-10.46,9.66s-20.48-10.53-23.17-16.54c-1.79-4-.82-9.65,0-13,.82-3.36,22.36,.87,22.36,.87Z"/><polygon class="cls-9" points="127.08 487.41 127.72 488.82 122.65 491 122.18 489.64 127.08 487.41"/><path class="cls-22" d="M122.65,491s4.12-2.47,4.23-2.66c.11-.19,.42-2.29,1.22-2.23,.8,.06,1.58,2.19,2.38,2.3,.8,.12,7.4,1.77,8.28,2.19,.89,.41,4.76-1.43,5.63-.46,.87,.96,1.88,3.62-4.33,5.17-6.21,1.54-12.69,5-14.23,4.76-1.54-.24-2.97-7.19-3.18-9.06Z"/><polygon class="cls-9" points="44.26 470.16 42.81 470.72 40.92 465.54 42.3 465.14 44.26 470.16"/><path class="cls-22" d="M40.92,465.54s2.24,4.25,2.42,4.37c.19,.12,2.26,.55,2.16,1.34-.1,.79-2.27,1.46-2.43,2.25-.16,.79-2.18,7.29-2.64,8.15-.46,.86,1.16,4.83,.15,5.65-1.01,.82-3.72,1.68-4.92-4.61-1.2-6.29-4.29-12.95-3.97-14.48,.33-1.53,7.35-2.57,9.23-2.67Z"/><path class="cls-23" d="M90.62,345.35s-4.73-4.87-9.37-.51c-4.65,4.35-.06,15.18-3.79,17.45-3.73,2.27-16.36-1.75-16.35,6.79,0,0,3.15-5.23,8.88-3.03,5.73,2.19,13.61,1.49,13.84-6.69,.23-8.18,3.91-5.35,4.72-7.62,.82-2.27,2.07-6.38,2.07-6.38Z"/><path class="cls-55" d="M90.08,345.26s-2.28,1.45-2.14,6.55c0,0-2.46-5.12,2.14-6.55Z"/><path class="cls-9" d="M104.23,346.65s2.1,1.83,1.91,7.73c0,0,.88,4.59,1.66,5.34,.77,.75-1.81,1.26-2.04,1.86-.23,.6-.53,3.37-2.22,5.15-1.69,1.79-11.1-2.44-11.76-5.2-.66-2.76-7.86-14.23,1.98-15.57,9.84-1.33,10.48,.69,10.48,.69Z"/><path class="cls-23" d="M106.11,352.34s.05-11.66-12.17-8.87c-11.63,2.66-3.45,15.64-1.53,19.82,0,0-.82-6.79,4.79-7.45,5.62-.67,6.57-1.99,8.91-3.5Z"/><path class="cls-72" d="M96.15,354.22c-.8-1.17-3.17-.32-2.74,1.52,.42,1.84,2.51,3.55,3.08,2.6,.57-.95,.84-2.4-.34-4.12Z"/><path class="cls-9" d="M92.16,369.05s13.95,15.24,14.2,12.03c0,0-6.23-8.15-6.64-8.74-.41-.59-7.56-3.29-7.56-3.29Z"/><path class="cls-9" d="M99.67,398.88c-.93,.53-1.97,.81-3.02,.78h0c-2.95-.09-6.07-2.59-7.45-8.71-3.41-15.08,4.65-14.49,4.65-14.49,3.1,0,4.85,1.16,8.76,11.91,1.76,4.82-.07,8.87-2.93,10.51Z"/><path class="cls-83" d="M99.67,398.88h0c-.93,.53-1.97,.81-3.02,.78h0l-4.11-12.54,7.13,11.77Z"/><path class="cls-69" d="M100.05,366.84c-.16,.63-.25,1.32-.31,2-3.95-1.8-5.63-4.74-5.63-4.74,2.16,1.55,5.93,2.74,5.93,2.74Z"/><path class="cls-69" d="M83.9,406.25c-.21,.49-2.08,4.55-2.08,4.55-.24-.23-.54-.53-.89-.88l2.97-3.67Z"/></g><g><path class="cls-27" d="M213.44,385.27s3.95,2.35,4.74,2.13c.79-.22,3.09-.15,3.65-.5,.56-.36,2.34-.25,2.68-.34,.33-.09,2.09-.7,1.81-.2-.62,1.14-1.23,1.17-2.93,1.68,0,0-.9,.42-.14,.78,.76,.36,1.33,.44,1.94,.55,.62,.11,3.01,.77,3.35,1.14,.13,.14,.1,.62-.12,.77,0,0,.37,.4,.17,.77-.2,.37-.89,.48-.89,.48,0,0,.17,.64-.59,.93-.75,.29-3.44-.44-3.64-.52-.2-.08-1.73-.63-1.86-.45-.13,.19,1.38,1.03,1.38,1.03,0,0,1.65,1.17,1.53,1.35-.12,.18-.78,.2-1.89-.31-1.11-.51-2.27-1.23-2.51-1.22-.24,.02-1.08-.25-1.67-.58-.59-.32-3.02-1.56-3.4-1.77-.38-.21-3.22-1.87-3.22-1.87l1.6-3.86Z"/><polygon class="cls-16" points="163.67 446.32 162.55 447.12 159.83 443.15 160.93 442.33 163.67 446.32"/><path class="cls-91" d="M159.83,443.01s1.87,2.66,2.44,3.29c.57,.63,1.69,.58,1.53,1.38-.17,.8-2.06,4.48-1.7,6.17,.37,1.73,2.02,6.47-.21,7.96-2.23,1.48-8.52-13.32-9.69-14.5-1.16-1.18,7.63-4.3,7.63-4.3Z"/><polygon class="cls-16" points="222.75 455.52 223.16 456.86 218.73 458.28 218.23 457 222.75 455.52"/><path class="cls-76" d="M196.04,418.63s-6.76,9.19-8.85,10.55c-2.08,1.36-23.26,17.46-23.26,17.46l-4.64-5.52s6.76-5.62,11.23-11.77c1.57-2.15,4.06-5.43,6.01-8.43,1.7-2.61,1.65-2.48,3.25-6.02,.25-.55,16.27,3.72,16.27,3.72Z"/><path class="cls-76" d="M185.97,395.84s-1.65,6-2.73,9.94c-1.42,5.16-2.25,6.32-3.46,9.13l14.5,5.73s6.98-7.58,6.82-9.97c-.16-2.38-15.12-14.84-15.12-14.84Z"/><path class="cls-91" d="M201.77,361.48s-13.42,10.6-12.93,12.18c.68,2.21,9.2,11.14,9.2,11.14l-3.5,2.64s-17.54-11.97-14.01-17.25c3.54-5.29,14.94-16.01,14.94-16.01l6.3,7.31Z"/><path class="cls-66" d="M220.19,434.61c-.42-5.38,.29-8.33-.34-12.23-.64-3.9-6.38-19.94-6.38-19.94,0,0-1.67-4.14-3.12-6.6-.68-1.15-.98-2.86-.98-2.86,0,0-21.45-6.14-22.52-3.21-1.07,2.93-1.73,6.38-.57,10.16,1.73,5.69,12.92,14.08,12.92,14.08,0,0,7.89,8.84,9.25,11.45,1.36,2.61,1.67,4.4,1.87,9.03,.19,4.63,5.24,23.53,5.24,23.53l7.61-2.49s-2.54-15.53-2.96-20.92Z"/><path class="cls-30" d="M198.75,339.08s.53,5.54-.79,7.3c-1.31,1.77,7.88,4.25,7.88,4.25,0,0-1.1-4.76,.17-6.77,1.05-1.66-7.26-4.78-7.26-4.78Z"/><path class="cls-27" d="M209.85,326.22s1.63,2.19,1.06,7.51c0,0,1.27,3.64,1.94,4.33,.67,.69-1.61,1.12-1.82,1.66-.21,.54-.5,3.03-2,4.63-1.5,1.6-9.74-2.31-10.29-4.81-.55-2.5-7.4-13.96,1.27-15.07,8.67-1.11,9.84,1.76,9.84,1.76Z"/><path class="cls-57" d="M197.6,346.19s-1.45,3.08-3.22,6.27c-1.77,3.18-3.58,7.19-3.67,14.34-.09,7.15,.08,16.07-3.87,22.97,0,0,14.25,3.68,22.84,3.19,0,0,3.19-7.86,2.77-11.68-1.29-11.68,2.45-9.42,.83-14.93-1.63-5.51-6-13.3-6.68-15.31l-9-4.85Z"/><path class="cls-71" d="M217.22,387.2l-.73,1.94-.19,.5-.64,1.71s-20.3-3.58-21.04-9.95c-.74-6.37,.31-22.15,.31-22.15l4.51,.59,.52,.07,4.39,.57s-2.86,17.69-1.48,18.55c1.93,1.2,14.34,8.18,14.34,8.18Z"/><path class="cls-82" d="M206.6,351.04s.02-2.38,.39-3.02l-9.28-4.34-.17,2.65s5.72,3.76,9.06,4.71Z"/><path class="cls-71" d="M203.81,364.07l-4.17-.49-.53-.06-4.41-.52c-.73-8.02,4.09-8.52,5.28-8.52,.11,0,.19,0,.23,0h.03c.09,.02,.17,.04,.26,.06,6.03,1.48,3.3,9.53,3.3,9.53Z"/><path class="cls-32" d="M216.49,389.14l-.19,.5c-.74-.26-15.63-5.61-17.32-7.8-1.07-1.38-.5-10.86,.14-18.33,.11-1.3,.22-2.55,.33-3.67,.25-2.65,.47-4.67,.54-5.36,.11,0,.19,0,.23,0h.03c.09,.02,.17,.04,.26,.06-.18,1.67-.37,3.49-.54,5.36-.11,1.21-.22,2.44-.33,3.67-.7,8.38-1.1,16.83-.25,17.93,1.29,1.66,11.75,5.72,17.1,7.63Z"/><path class="cls-71" d="M218.5,458.28s3.04-1.02,3.8-1.38,1.05-1.48,1.75-1.07c.69,.41,3.53,3.39,5.2,3.55,1.71,.17,6.62,0,7.31,2.64,.69,2.64-14.95,4.26-16.4,5.04-1.45,.78-1.66-8.77-1.66-8.77Z"/><path class="cls-68" d="M210.67,328.27s-.63,2.37-9.01,4.6c0,0-2.32,3.67-3.83,4.23,0,0-5.93-7.75-.99-12.21,4.94-4.46,12.71-3.18,13.83,3.38Z"/><path class="cls-68" d="M195.85,333.61c-.14,.14-.26,.29-.36,.43h0c-1.62,2.24,1.3,4.24-1.67,12.89-3.16,9.2-16.53,5.21-9.22,.74,7.31-4.46,4.22-12.58,5.73-16.3,1.13-2.78,3.12-2.5,4.05-2.18,.31,.11,.51,.22,.51,.22,0,0,3.35,1.76,.97,4.19Z"/><path class="cls-27" d="M201.66,332.87c-.55-1.07-2.58-.59-2.41,1.01,.17,1.6,1.72,3.26,2.28,2.51,.56-.75,.93-1.95,.12-3.52Z"/><path class="cls-66" d="M195.85,333.61l-.26,.35-.26,.33s-1.1-3.61-1.15-5.15c.31,.11,.7,.28,.7,.28,0,0,.51,2.64,.97,4.19Z"/></g><g><path class="cls-2" d="M434.63,449.14s2.72,1.16,5.12,1.47c2.39,.31,8.15-.68,9.8,.88,1.65,1.56-1.85,6.13-7.15,6.85-5.3,.72-12.09,1.89-12.76,1.19-.67-.7-1.27-7.06-.73-8.98,.53-1.92,5.72-1.4,5.72-1.4Z"/><path class="cls-85" d="M420.95,383.65s11.1,13.85,13.53,20.1l-12.07,8.19s-10.07-8.85-13.36-12.59c-3.29-3.74,2.8-26.25,11.89-15.7Z"/><polygon class="cls-29" points="434 446.22 434.63 449.14 428.91 450.54 428.02 447.54 434 446.22"/><path class="cls-85" d="M434.48,403.76s4.6,7.11,2.07,28.33c0,0-1.12,12.92-.57,14.23,.55,1.31-9.72,3.08-9.75,1.69-.03-1.38-.93-30.79-3.83-36.06-2.55-4.64,12.07-8.19,12.07-8.19Z"/><path class="cls-48" d="M368.12,437.67s-.57,1.31-.06,3.36c.51,2.05,3.63,7.72,2.88,9.56-.75,1.84-5.59,.44-7.86-3.66-2.27-4.1-6-8.68-5.63-9.45,.36-.77,5.98-3.86,7.71-4.03,1.74-.17,2.96,4.22,2.96,4.22Z"/><path class="cls-24" d="M425.47,390.61s-8.62,21.2-15.6,28.01c0,0-11.38-4.02-14.95-6.51,0,0,6.16-17,6.47-21.28,.31-4.28,24.09-.21,24.09-.21Z"/><polygon class="cls-88" points="370.24 436.28 368.07 437.73 364.97 433.48 367.26 431.83 370.24 436.28"/><path class="cls-24" d="M409.87,418.61c-4.6,5.99-39.13,18.55-39.13,18.55,0,0-1.73-1.73-3.11-3.37-.29-.34-.56-.68-.8-.99-.3-.4-.55-.77-.71-1.07-.88-1.69,8.09-6.91,8.09-6.91,20.92-14.99,22.27-17.17,22.27-17.17,0,0,2.11,.58,4.71,1.59,.37,.15,.76,.3,1.14,.46,4.78,2,10.34,5.27,7.54,8.91Z"/><path class="cls-43" d="M408.33,390.77s-.97,4.96-2.45,9.98c-1.16,3.91-2.34,6.9-3.55,8.95-.92,1.56-1.85,2.58-2.78,3.05-4.7,2.36-31.06,20.45-31.92,21.04-.29-.34-.56-.68-.8-.99,1.31-.9,27.35-18.73,32.16-21.15,.75-.38,1.49-1.24,2.19-2.41,2.8-4.67,5.08-14.31,5.86-18.47h1.29Z"/><path class="cls-30" d="M425.33,340.83s-.86,3.96-.58,5.59c.27,1.64-7.76-4.51-7.76-4.51,0,0,1.25-5.38,.85-8.27-.39-2.89,7.5,7.19,7.5,7.19Z"/><path class="cls-30" d="M416.18,343.14l-18.38,19.18s-2.58,1.79-.49,6.93c2.32,5.71,10.49,14.34,10.49,14.34,0,0,3.11-.69,3.41-2.12,.3-1.44-7.15-13.91-6.78-15.08s10.17-10.74,10.17-10.74c0,0,3.9-11.26,1.58-12.49Z"/><path class="cls-2" d="M427.49,393.58c-.41,.73-1.99,3.98-2.81,3.86l-24.14-4.79s6.07-17.78,5.08-27.1c-.72-6.81,4.24-17.17,9.43-22.09,.63-.6,1.26-1.11,1.89-1.54,0,0,7.81,4.38,8.2,4.55,.13,.05,.8,1.05,1.6,2.62h0c1.67,3.27,3.94,9.03,3.22,13.99-1.07,7.34,1.47,13.07,.34,21.37-.65,4.83-1.28,6.36-2.82,9.12Z"/><path class="cls-27" d="M445.02,383.27c-.04,.06-.12,.11-.25,.15-.45,.17-1.44,.27-2.76,.31-5.39,.18-16.33-.59-19.34-1.83-3.95-1.63-8.18-21.8-8.18-21.8l8.52-3.14,3.48,13.82c.33,1.29,1.04,2.44,2.05,3.3,1.07,.9,2.54,1.95,3.93,2.3,2.69,.67,6.46,1.51,9.21,2.1,1.28,.28,2.33,.5,2.94,.63,.37,.08,.59,.12,.59,.12,0,0,.55,2.97-.21,4.04Z"/><path class="cls-27" d="M445.07,379.19s1.43-.51,2.2-1.53c.78-1.02,3.03-1.02,3.96-.41,.93,.61,2.3,.26,2.54,1.04,.24,.78-1.12,1.46-1.12,2.13,0,.67,.24,3.83-2.33,4.09-2.57,.25-4.49-1.14-5.81-1-1.32,.14,.54-4.31,.54-4.31Z"/><path class="cls-27" d="M428.69,325.61s2.54,4.16,2.51,5.17c-.03,1.01-1.1,1.02-.58,2.08,.52,1.06,1.57,3.04,1,3.68-.57,.64-1.49,.29-1.81,1.67-.32,1.38-1.21,4.41-2.87,4.41-1.67,0-8.43-2.07-8.76-3.42-.33-1.35-2.21-8.88-2.85-10.33-.64-1.45,5.97-6.27,9.63-5.49,2.43,.51,3.73,2.24,3.73,2.24Z"/><path class="cls-41" d="M425.89,363.63l-11.25,2.21s-.15-.78-.3-1.97c-.43-3.37-.9-10.04,1.88-11.47,6.63-3.43,8.77,4.94,9.42,9.08,.2,1.28,.25,2.15,.25,2.15Z"/><path class="cls-56" d="M429.85,327.63s-1.28-5.63-8.67-4.87c-7.01,.72-6.83,6.34-6.28,9.28,1.36,7.17,3.02,6.13,3.02,6.13,0,0-.52-2.04,.56-4.59,.17-.39,3.26,1.19,3.26,1.19l2.27,.61s-5.08-10.9,5.83-7.75Z"/><path class="cls-27" d="M421.57,331.65s-1.03-2.44-3.14-.73c-1.53,1.24,.28,5.36,1.82,5.27,1.54-.09,2.07-2.39,1.32-4.53Z"/><path class="cls-18" d="M444.69,383.49c-.45,.17-1.37,.19-2.69,.24l-.31-5.26c1.28,.28,2.33,.5,2.94,.63,.14,.98,.26,2.85,.05,4.39Z"/><path class="cls-47" d="M425.89,363.63l-11.25,2.21s-.15-.78-.3-1.97l11.29-2.39c.2,1.28,.25,2.15,.25,2.15Z"/><path class="cls-47" d="M426.74,349.11c-7.22-2.78-11.69-5.64-11.69-5.64,.63-.6,1.26-1.11,1.89-1.54,0,0,7.81,4.38,8.2,4.55,.13,.05,.8,1.05,1.6,2.62Z"/></g><g><path class="cls-62" d="M250.98,364.88s-1.16,4.51-4.52,5.67l8.79,5.59s-.68-3.81,1.9-5.61c2.46-1.72-6.16-5.64-6.16-5.64Z"/><path class="cls-62" d="M253.69,443.04s9.5,11.51,10.2,13.68c1.36,4.25-2.81,9.54-5.01,12.26-2.2,2.72-17.37,13.84-25.69,25.23,0,0-4.39-1.81-4.62-4.25,0,0,12.93-21.31,15.64-24.19,2.72-2.87,5.16-7.29,3.97-7.89-1.19-.61-8.6-2.46-12.72-4.38-4.11-1.92,18.23-10.46,18.23-10.46Z"/><path class="cls-6" d="M235.39,424.31s-.68,1.66,1.02,3.59c1.7,1.94,17.87,14.63,17.29,15.14-.58,.5-14.03,12.1-14.03,12.1,0,0-18.94-6.28-20.78-13.76-1.83-7.47,16.49-17.07,16.49-17.07Z"/><path class="cls-62" d="M242.26,373.04s-15.36,5.35-23.84,7.3c-8.48,1.95-31.11,17.21-31.11,17.21l1.96,4.19s20.59-8.76,22.93-9.98c2.34-1.23,17.51-3.59,19.66-5.3,2.15-1.72,10.4-13.41,10.4-13.41Z"/><path class="cls-62" d="M270.27,355.36s-1.19,5.69-1.88,6.55c-.69,.86-1.62,.16-1.87,1.42-.25,1.26,.31,3.62-1.55,3.85-.93,.12-.54-.12-1.73,.86-1.19,.98-4.59,3.64-6.03,2.54-1.44-1.1-7.03-3.91-6.43-5.29,.6-1.39,1.42-14.21,1.82-15.88,.4-1.67,19.02,.74,18.34,3.35l-.68,2.61Z"/><path class="cls-31" d="M270.14,356.86s.78-1.22,1.39-3.44c.61-2.22-2.68-5.15-4.84-6.02-3.82-1.54-4.69-1.64-7.35-1.2-1.32,.22-5.92-1.36-6.92,4.43-1,5.79-1.12,10.44-1.12,10.44,0,0,2.2-2.58,2.96-1.92,.76,.66,3.6-1,3.6-1l.04,.67,1.6,.79s1.15-5.29,2.61-5.28c1.45,.01,7.53,2.96,8.04,2.52Z"/><g><path class="cls-62" d="M190.95,401.03s-3.14,1.38-3.46,1.67-.95,2.23-.89,2.88c.06,.64-.09,3.68-.44,3.73-.35,.05-1.31-1.71-1.22-2.73,.08-.93-.16-1.27-.39-1.31-.23-.04-1.31-.11-1.65,.15-1.94,1.52-4.51,4.47-4.93,4.55-.4,.08-.83-.57,.66-2.1,1.49-1.54,2.73-2.81,2.44-2.73-.29,.07-3.24,2.25-3.34,2.33-.1,.07-2.58,1.81-3.06,1.4-.47-.4-.27-.96-.27-.96,0,0-.54-.23-.59-.68-.06-.45,.75-1.3,1.39-1.85,0,0-.7-.01-.57-.64,.13-.63,3.42-3.68,3.66-4.04,.24-.36,3.6-2.51,5.67-2.71,2.07-.2,5.55-1.38,5.55-1.38l1.42,4.44Z"/><path class="cls-3" d="M179.07,401.3h.12c.05,.73,1.94,3.31,1.95,3.33l-.1,.07c-.08-.11-1.93-2.63-1.98-3.4Z"/><path class="cls-3" d="M183.51,400.38l.12,.03c-.3,1.86,.99,4.42,1,4.44l-.11,.05s-1.31-2.62-1.01-4.52Z"/></g><path class="cls-62" d="M281.03,381.43s.92-4.66,1.38-5.56c.46-.9,2.51-3.26,2.98-4.48,.47-1.23,.39-2.2,1.11-3.63,.72-1.44,1.18-1.86,1.61-3.1,.43-1.24,.73-2.57,.03-2.26-.71,.31-1.22,1.99-1.81,2.85-.59,.86-1.16,2.34-1.21,1.66-.04-.67,.47-2.98,.71-3.76,.24-.78,.4-2.07,.3-2.71-.07-.43-1.11-.62-1.11-.62,0,0,.12-1.13-.42-1.3-.55-.17-1.1-.02-1.14,.34,0,0-1.19-.87-1.49-.08-.3,.79-1.55,5.49-1.82,5.97-.27,.48-1.58,2.29-1.93,1.78-.35-.52-1.54-2.9-3.08-3.02-1.54-.12-.6,.64,.41,1.95,1.02,1.32,1.88,5.11,2.31,5.65,.43,.54,.57,1.74,.58,2.59,.01,1.06-2.62,7.21-2.62,7.21l5.23,.5Z"/><path class="cls-90" d="M246.46,370.55s7.22-1.3,11.91,12.14c.18,.53,1.44,2.46,.46,10.18-1.05,8.33-4.74,7.37-9.95,15.55-3.15,4.95-6.91,11.79-7.98,13.74-.48,.87-5.85-.47-6.64-.52-.1,0-5.21-.38-5.3-.43l-14.61-1.42s14.68-17.33,16.4-29.21c1.15-7.94,9.01-17.21,15.7-20.04Z"/><path class="cls-90" d="M214.35,419.8s-3.93,4.44-5.68,9.8c-1.75,5.36-7.01,16.09-7.01,16.09l11.49,8.18s17-13.64,20.91-20.87c3.92-7.23,6.83-10.83,6.83-10.83l-26.54-2.36Z"/><path class="cls-62" d="M213.15,453.87s-3.65,2.5-4.55,4c-.9,1.51-10.2,10.04-14.16,13.69-3.96,3.65-17.9,17.69-17.9,17.69l-3.34-3.61s15.52-21.61,17.14-26.18c1.62-4.58,11.32-13.76,11.32-13.76l11.49,8.18Z"/><path class="cls-62" d="M249.75,372.58s11.11,13.57,4.27,20.81c-7.21,7.62-12.41,6.13-14.77,2.09-6.13-10.48,4.25-27.69,10.5-22.9Z"/><path class="cls-62" d="M250.8,375.53l17.39,23.22s10.32-23.43,10.24-24.85c-.07-1.42,4.32,1.43,4.32,1.43,0,0-7.13,30.75-9.82,33.35-2.7,2.61-5.42,.92-6.91,.05-1.43-.84-23.49-22.87-23.49-22.87,0,0-1.12-15.87,8.26-10.33Z"/><path class="cls-6" d="M229.33,489.91s3.04,1.45,3.8,1.33c.76-.12,2.28,.27,2.69,.79s1.34,5.29,2.68,6.11c1.34,.82,9.48,3.81,8.4,6.09-1.08,2.28-4.98,2.22-11.56,.52-6.58-1.7-11.29-4.35-11.53-5.09-.23-.74,2.84-6.88,3.28-8,.44-1.12,1.88-1.92,2.23-1.76Z"/><path class="cls-90" d="M173.2,485.64s3.5,2.76,4.07,2.88c.57,.12,.06,1.28-.3,2.65-.36,1.38,.37,9.04,.68,9.38,.31,.34,6.74,2.31,6.35,3.45-.39,1.14-6.54,2.82-9.92,2.07-3.38-.75-6.07-12.16-6.81-13.51-.73-1.35,.72-7.76,5.93-6.93Z"/><path class="cls-90" d="M269.18,359.84s-14.06-3.22-17.65-2.36c0,0-.12-2.32,.28-2.65,.4-.33,12.57,1.11,17.99,2.66,0,0-.02,1.42-.61,2.35Z"/><path class="cls-62" d="M257.97,356.79s-.24-2.87-3-1.82c-2.01,.76-1.52,5.63,.1,6.06,1.62,.43,2.95-1.78,2.89-4.24Z"/></g><g><path class="cls-59" d="M152.41,352.55l-20.52,20.71s-3.07,2.25-.36,8.42c3,6.85,13.21,17.06,13.21,17.06,0,0,3.76-.94,4.07-2.69,.32-1.75-9.14-16.65-8.73-18.09,.41-1.44,11.99-13.38,11.99-13.38,0,0,3.2-10.62,.35-12.04Z"/><path class="cls-30" d="M165.87,344.49s-1,5.67-.6,7.79c.4,2.12-8.98-5.77-8.98-5.77,0,0,1.49-7.04,.91-10.79-.59-3.75,8.67,8.77,8.67,8.77Z"/><path class="cls-59" d="M182,444.23s3.43,5.08,3.68,9.94c.24,4.86,11.83,41.47,11.83,41.47l-6.02,2.65s-11.82-22.14-13.86-27.99c-1.64-4.69-1.68-8-4.96-13.82-1.65-2.94-4.97-6.07-4.97-6.07l14.3-6.18Z"/><path class="cls-10" d="M140.16,447.46s-3.06,3.52-6.92,6.49c-3.86,2.97-36.66,25.22-36.66,25.22l-4.19-4.87s18.88-14.26,21.71-19.76c2.83-5.51,9.66-8.53,11.93-11.02,2.27-2.49,2.57-4.43,2.57-4.43l11.56,8.37Z"/><path class="cls-59" d="M167.94,417.26s11.77,19.52,14.6,27.82l-12.85,7.41s-11.49-11.83-15.38-16.97c-3.89-5.14,2.89-32.74,13.63-18.26Z"/><path class="cls-10" d="M164.1,416.16s-15.09,26.1-25.61,33.09c0,0-6.89-3.84-10.84-7.87,0,0,7.85-23.34,9.26-28.71,1.42-5.37,27.19,3.49,27.19,3.49Z"/><path class="cls-49" d="M156.24,346.46s8.77,4.74,9.29,4.95c.52,.22,6.83,11.94,5.62,21.48-1.21,9.54-4.33,15.08-5.58,25.85-.73,6.28,1.4,13.56,2.28,15.77,.4,1,.91,2.55-.16,2.41l-31.44-4.37s7.42-23.17,5.92-35.22c-1.23-9.87,6.68-25.69,14.08-30.88Z"/><path class="cls-36" d="M198.57,497.75s1.62,.71,4.15,1.26c2.8,.6,8.97-2.32,11.2-.82,2.23,1.5,2.2,4.32-3.89,6.14-6.09,1.83-15.75,5.47-16.66,4.78-.92-.69-1.95-6.32-1.69-8.64,.26-2.33,6.89-2.72,6.89-2.72Z"/><polygon class="cls-64" points="197.51 495.64 198.57 497.75 191.68 500.47 191.49 498.29 197.51 495.64"/><path class="cls-49" d="M95.3,480.72s-.11,1.76,.24,4.33c.39,2.84,5.25,7.63,4.61,10.24-.65,2.61-3.3,3.54-7.1-1.55-3.8-5.09-10.54-12.92-10.2-14.02,.33-1.1,5.27-3.99,7.54-4.54,2.28-.55,4.91,5.54,4.91,5.54Z"/><polygon class="cls-77" points="96.91 478.99 95.3 480.72 90.39 475.17 92.37 474.25 96.91 478.99"/><path class="cls-27" d="M190.17,384.88s2.06-.82,3.02-2.18c.96-1.35,3.88-1.46,5.11-.71,1.23,.75,2.99,.23,3.34,1.24,.35,1-1.39,1.93-1.35,2.81,.03,.87,.49,4.95-2.83,5.39-3.32,.44-5.86-1.28-7.56-1.04-1.7,.24,.28-5.5,.28-5.5Z"/><path class="cls-27" d="M172.19,325.47s1.67,3.9,1.66,5.17c-.02,1.27-1.35,1.3-.68,2.62,.67,1.31,2.24,4.15,1.54,4.97-.7,.82-2.05,.39-2.43,2.13-.37,1.74-3.05,5.46-5.14,5.49-2.09,.04-8.97-2.67-9.42-4.35-.44-1.69-2.98-11.08-3.81-12.88s13.56-6.73,16.27-5.21c1.48,.83,2.01,2.07,2.01,2.07Z"/><path class="cls-10" d="M151.53,366.36s-2.43-9.25,3.03-9.53c6.33-.33,5.84,7.42,5.84,7.42l-8.87,2.11Z"/><path class="cls-27" d="M172.42,326.03s-1.53-8.65-13.34-6.05c-11.81,2.6-2.5,17.3-2.5,17.3l15.85-11.25Z"/><path class="cls-27" d="M161.8,330.62s-1.35-3.03-3.95-.85c-1.89,1.59,.48,6.71,2.41,6.56,1.93-.15,2.53-3.05,1.54-5.71Z"/><path class="cls-74" d="M172.04,324.82s-3.36,2.78-8.41,2.78-7.1-.06-9.31,5.06c0,0-6.86-11.35,6.76-13.92,0,0,10.6-4.5,10.96,6.08Z"/><path class="cls-10" d="M160.39,364.26l3.71,21.72s1.13,1.63,7.25,1.02c6.12-.6,19.15-2.35,19.15-2.35,0,0,.17,4.33-.07,5.72-.13,.75-26.49,5.85-31.32,3.14-4.82-2.71-7.58-27.14-7.58-27.14l8.87-2.11Z"/></g><g><path class="cls-53" d="M272.87,488.54s-1.31,1.97-.33,3.92c.98,1.95,6.47,6.41,6.13,8.43-.33,2.02-5.53,1.73-8.75-1.88-3.23-3.61-8.04-7.37-7.85-8.22,.19-.86,5.13-5.26,6.84-5.83,1.71-.57,3.95,3.57,3.95,3.57Z"/><path class="cls-53" d="M352.05,497.8s.88,2.2,3.05,2.49c2.16,.3,8.95-1.69,10.43-.27,1.48,1.42-1.71,5.53-6.51,6.15-4.8,.61-10.62,2.44-11.22,1.8-.6-.64-1.42-7.21-.92-8.94,.5-1.73,5.18-1.23,5.18-1.23Z"/><path class="cls-30" d="M324.62,363.78s-.59,4.52-.12,6.33c.46,1.81-9.14-4.32-9.14-4.32,0,0,.89-6.16,.17-9.36-.72-3.2,9.1,7.35,9.1,7.35Z"/><path class="cls-30" d="M343.45,449.5s2.42,3.16,2.9,7.34c.49,4.18,5.15,38.31,5.15,38.31l-5.41,1.15s-6.44-17.34-9.26-21.89c-2.82-4.54,.14-9.06-2.29-13.99-1.29-2.61-3.99-5.41-3.99-5.41l12.91-5.52Z"/><path class="cls-27" d="M307.17,453.76s-.77,4.07-3.93,6.85c-3.16,2.78-28.56,26.05-28.56,26.05l-4.03-3.79s10.73-15.04,12.86-19.95c2.13-4.91,9.44-9.47,11.26-11.75,1.81-2.28,1.96-3.97,1.96-3.97l10.44,6.56Z"/><path class="cls-92" d="M329.41,426.14s12.31,15.6,14.99,22.62l-13.58,9.07s-8.48-10.96-12.12-15.17c-3.65-4.21,.63-28.39,10.72-16.51Z"/><path class="cls-70" d="M326.04,425.41s-9.28,23.94-17.96,30.56c0,0-10.55-5.21-14.19-8.46,0,0,7.59-18.86,8.51-23.57,.92-4.71,23.64,1.47,23.64,1.47Z"/><path class="cls-30" d="M313.17,371.05l-23.15,18.65s-2.05,1.25-2.73,8.11c-.68,6.86-1.54,18.52-1.54,18.52,0,0,5.05,1.6,5.59,.05,.54-1.55,3.61-19.75,4.18-21,.57-1.25,14.11-10.7,14.11-10.7,0,0,5.94-11.94,3.54-13.64Z"/><path class="cls-75" d="M315.3,365.76s9.12,4.14,9.58,4.3c.46,.16,7.45,9.78,6.95,18.07-.5,8.29-3.79,15.61-4.26,24.97-.27,5.45,.72,8.82,1.6,10.68,.4,.84,.93,2.14,0,2.09l-27.36-1.98s5.08-20.4,3.1-30.7c-1.62-8.44,4.3-22.53,10.39-27.42Z"/><path class="cls-27" d="M324.36,381.54l9.1,16.9s.83,1.27,5.57-1.13c4.75-2.39,14.63-7.69,14.63-7.69,0,0,2.06,3.02,1.54,4.39-.53,1.38-18.97,14.91-23.7,14.23-4.73-.68-14.87-21.41-14.87-21.41l7.73-5.31Z"/><polygon class="cls-92" points="351.5 495.15 352.05 497.8 346.87 499.03 346.08 496.3 351.5 495.15"/><polygon class="cls-70" points="274.69 486.65 272.83 488.61 268.73 485.05 270.66 482.86 274.69 486.65"/><path class="cls-27" d="M353.54,389.75s1.41-1.3,1.76-2.69c.35-1.39,2.68-2.38,3.9-2.16,1.22,.22,2.48-.74,3.08-.04,.59,.7-.52,1.99-.22,2.68,.3,.69,1.93,3.84-.6,5.23-2.54,1.39-5.12,.79-6.42,1.51-1.3,.72-1.49-4.52-1.49-4.52Z"/><path class="cls-30" d="M291.33,416.39s.34,2.49,1.17,3.14,1.52,2.49,0,3.29c-1.53,.81-.74,2.62-1.69,3.03-.95,.41-5.41-.2-6.48-.6-1.08-.4,1.16-7.39,1.43-8.91,.26-1.49,5.59,.05,5.59,.05Z"/><path class="cls-27" d="M326.53,343.7s2.91,5,2.97,6.09c.06,1.1-1.09,1.2-.44,2.3,.65,1.1,1.98,3.14,1.42,3.88-.56,.75-1.98,.53-2.2,2.05-.22,1.52-1.65,6.21-3.45,6.36-1.8,.15-8.14-2.9-8.62-4.33-.48-1.43-3.2-9.38-4.02-10.89-.82-1.51,11.85-10.24,13.09-7.86l1.24,2.38Z"/><path class="cls-63" d="M326.26,343.19s1.89-1.26,1.09-3.41c-.79-2.15-2.57-4.93-6.29-3.19-3.71,1.74-6.43,4.98-9.02,5.7-2.59,.72-4.33,1.06-1.78,6.33,2.55,5.27,5.14,9.1,5.14,9.1,0,0,.29-3.37,1.29-3.27,1,.09,2.45-3.16,2.45-3.16l.3,.78,1.76-.29s-2.56-5.53-1.38-6.36c1.18-.83,6.27-1.57,6.43-2.23Z"/><path class="cls-63" d="M321.21,351.78s1.39,4.8,2.36,4.77c.97-.03,4.3,.3,4.94,.81,0,0,.5,.38,.33,1.11-.17,.73-.56,5.02,.67,6.33,0,0-.76,1.59-5.01,.27-4.24-1.31-6.54-3.4-6.54-3.4,0,0,2.69-6.83,1.48-9.6l1.76-.29Z"/><path class="cls-27" d="M319.11,350.46s-1.33-2.54-3.45-.51c-1.54,1.48,.79,5.76,2.45,5.52,1.66-.24,2.01-2.77,1-5.01Z"/><path class="cls-27" d="M316.63,386.85s-3.95-7.25,.36-9.19c5-2.23,7.37,3.88,7.37,3.88l-7.73,5.31Z"/></g><g><polygon class="cls-9" points="422.65 471.45 419.96 472.16 422.21 478.75 424.82 478.1 422.65 471.45"/><path class="cls-9" d="M483.57,429.19c-.66,1.16-1.69,3.29-2.81,5.73-.46,1-.93,2.05-1.41,3.11-2.28,5.11-4.49,10.32-4.49,10.32,0,0-10.95,19.41-15.87,21.74-9.68,4.57-34.7,8.18-34.7,8.18l-2.93-6.47s13.52-4.9,19.91-7.55c7.41-3.08,12.14-3.48,14.04-9.87,1.26-4.25,3.57-18.73,3.59-18.86,.62-7.22,1.8-16.58,3.93-19.53,1.79-2.48,20.73,13.21,20.73,13.21Z"/><path class="cls-38" d="M484.49,429.55s-1.58,3.23-3.67,7.49c-.52,1.05-1.06,2.17-1.62,3.31-2.27,4.63-4.77,9.74-6.45,13.16,0,0-15.27-4.1-16.87-5.7,0,0,4.05-28.59,5.98-31.65,0,0,6.34-7.17,22.63,13.39Z"/><path class="cls-12" d="M419.96,472.16s1.26,3.5,1.8,4.95c.54,1.45,1.85,1.71,.95,2.27-.9,.56-3.73,3.42-4.14,5-.41,1.59-2.41,11.91-4.77,12.02-2.36,.11-2.99-4.77-3.07-11.62-.08-6.84-1.83-7.09-.48-11.6,.42-1.41,9.71-1.02,9.71-1.02Z"/><path class="cls-37" d="M498.41,373.7l-.52-.06c.01-.13,1.43-12.69-.41-18.06l.5-.17c1.89,5.48,.5,17.77,.44,18.29Z"/><polygon class="cls-9" points="526.87 491.77 528.35 493.98 533.63 489.88 532.23 487.71 526.87 491.77"/><path class="cls-9" d="M514.62,451.24c-.79-3.44-7.2-12.05-11.65-17.11h0c-7.03-8.12-11.8-14.6-11.8-14.6,0,0-28.77,5.02-27.97,7.83,1.51,5.32,15.69,10.44,18.36,12.26l5.53,3.26s5.49,3.32,9.57,6.31c5.46,4.01,4.74,6.38,8.47,12.73,3.34,5.68,22.14,30.47,22.14,30.47l5.5-3.82s-16.93-31.97-18.16-37.32Z"/><path class="cls-19" d="M491.17,419.53l14.11,16.61-11.96,11.39s-27.68-11.8-30.81-20.11c0,0,18.02-9.28,28.67-7.88Z"/><path class="cls-9" d="M523.61,411.8s-2.46-.65-3.71-1.26c-1.25-.61,3.13-3.32,3.13-3.32l.57,4.58Z"/><path class="cls-9" d="M523.06,405.98s2.9-2.56,3.35-2.94c.46-.38,2.09-.54,3.99-.56,1.9-.02,4.47,.81,4.65,1.08,.18,.27,.5,.46,.49,1.31-.01,.85-.72,1.49-.72,1.49,0,0,.48,1.1-.16,1.93,0,0,.48,.9-.4,1.72,0,0,.51,1.1-.18,1.65,0,0-1.64,.17-2.23,.4-.59,.24-4.92,.14-8.23-.26,0,0-2.11-1.25-.55-5.82Z"/><path class="cls-44" d="M528.51,406.55s-.84,1.76-1.32,2.13c-.49,.37,2.72,3.37,2.72,3.37,0,0,.7-4.42-1.39-5.5Z"/><path class="cls-52" d="M534.56,403.55s-4.81,.17-4.88,.95c-.07,.78,.38,1.11,.38,1.11l-1.95,.97s-.93,1.38,.83,1.99c0,0-1,1.2,.77,1.59,0,0-.31,1.09,.48,1.41,.79,.33,3.88,.09,3.88,.09,0,0,.63-.35,.33-1.54,0,0,.9-.74,.49-1.83,0,0,.63-.7,.17-1.88,0,0,1.27-1.68,0-2.86,0,0-.3-.02-.5-.01Z"/><path class="cls-9" d="M526.56,403.02s2.99,1.41,4.29,2.9c.29,.34,.52,.72,.32,1.12-.2,.4-1.03,.62-2.36,.07-1.33-.55-3.29-.64-3.29-.64,0,0-1.2-.96,1.04-3.46Z"/><path class="cls-13" d="M493.74,377.47s2.19,14.52,5.27,22.31c.97,2.44,23.88,5,24.23,5.96,.35,.96-2.13,6.98-2.13,6.98,0,0-28.71-2.87-29.62-4.25-.91-1.37-8.59-26.86-8.23-29.75,.36-2.89,1.98-5.75,5.07-5.78,4.34-.04,5.41,4.52,5.41,4.52Z"/><path class="cls-65" d="M487.76,403.51c-.16,2.77,3.42,16.02,3.42,16.02l-33.67,9.26s3.12-10.21,3.52-19.63c.11-2.66,.43-5.17,.84-7.54,.41-2.33,.91-4.51,1.41-6.53,.79-3.2,1.56-6,1.93-8.36,2.82-18.31,17.99-21.99,17.99-21.99l6.35,4.45s2.71,8.76,2.59,13.71c-.12,4.95-4.21,17.84-4.38,20.61Z"/><path class="cls-9" d="M502.7,348.11s2.33,4.64,1.09,5.31c-1.03,.56,1.04,5.1,1.3,5.84,.27,.74-1.86,1.21-2.33,1.67-.46,.46-1.96,6.22-3.71,6.35s-9.52-2.83-11.59-5.11c-2.07-2.28-3.54-12.37-2-16.56,1.55-4.19,13.1-5.61,17.22,2.49Z"/><path class="cls-9" d="M493.91,365.84c-.41,.84-1.09,2.27-1.46,3.13-.86,1.96-1.83,4.34-1.99,5.53-.31,2.23-7.26-9.76-7.26-9.76,0,0,4.38-5.1,6.44-14.26,1.78-7.92,4.28,15.36,4.28,15.36Z"/><path class="cls-14" d="M503.16,349.11s2.66-4.86-1.81-8.65c-4.46-3.79-13.07,2.4-14.03,2.61-.96,.22-6.4,.45-3.9,9.97,2.2,8.37,2.22,8.01,2.22,8.01,0,0,2.08-4.13,3.09-4.82,1.57-1.08,4.95-.71,4.95-.71,0,0-1.49-4.32,1.05-4.86,2.54-.53,5.92-2.57,8.44-1.56Z"/><path class="cls-9" d="M491.06,353c-.21-.59-.85-3.14-3.06-1.72-2.21,1.42,1.17,6.27,1.55,6.35,.38,.07,3.24,.36,1.51-4.63Z"/><path class="cls-15" d="M437.89,429.66s-.16-.97-.03-1.43c0,0,.31-.82,.5-1.41,.06-.19,.1-.35,.12-.46,.08-.46,.12-1.49,.62-2.54,.5-1.05,2.64-4.58,2.64-4.58l3.33,1.29,3.09,.27s.76,7.02,.41,8.05c-.04,.1-.07,.2-.12,.29-.38,.84-1.02,1.31-1.27,1.73-.09,.15-1.12,1.62-1.66,1.66-.74,.06-1.28-.2-1.59-.6,0,0-1.46,.05-2.24-.54,0,0-1.34,.09-2.1-.92,0,0-1.37-.06-1.69-.81Z"/><path class="cls-65" d="M482.56,376.82s-15.19,12.85-20.54,19.81c-1.68,2.18-11.56,23.6-12.23,24.42-.67,.83-8.75-1.34-8.75-1.34,0,0,11.65-26.77,12.4-28.34,.74-1.56,20.64-22.84,25.36-24.9,2.79-1.21,3.22,.22,4.91,3.01,2.37,3.91-1.15,7.32-1.15,7.32Z"/><path class="cls-69" d="M493.91,365.84c-.23,.48-.71,1.45-1.06,2.23-4.1-3.23-5.03-5.51-5.06-5.58,1.92,1.47,6.12,3.35,6.12,3.35Z"/><path class="cls-12" d="M528.11,493.62s2.92-2.21,4.12-3.14c1.19-.93,1.06-2.23,1.85-1.55,.79,.68,4.28,2.5,5.89,2.42,1.6-.08,11.85-1.22,12.64,.97,.79,2.18-3.59,4.19-9.98,6.26-6.38,2.07-6.1,3.78-10.71,3.83-1.44,.01-3.8-8.78-3.8-8.78Z"/><path class="cls-50" d="M472.06,386.18l-10.19,15.44c.41-2.33,.91-4.51,1.41-6.53h0c1.55-1.98,8.78-8.91,8.78-8.91Z"/><path class="cls-19" d="M473.85,384.53s-3.54-5.36-7.09-7.56c0,0-2.31,1.85-3.13,3.17,0,0,5.74,6.04,6.85,7.57,0,0,1.88-1.14,3.36-3.18Z"/><g><rect class="cls-28" x="473.7" y="375.99" width=".79" height="1.6" transform="translate(395.41 -223.66) rotate(44.06)"/><path class="cls-37" d="M465.99,375.26h5.49c.52,0,.94,.42,.94,.94v12.24c0,.52-.42,.94-.94,.94h-5.49c-.52,0-.94-.42-.94-.94v-12.24c0-.52,.42-.94,.94-.94Z" transform="translate(397.59 -218.36) rotate(44.04)"/><rect class="cls-84" x="465.99" y="376.38" width="6.03" height="11.34" transform="translate(397.47 -218.63) rotate(44.04)"/><path class="cls-84" d="M473.63,378.2l-.92-.89s-.04-.11,0-.16h0s.11-.05,.16,0l.92,.89s.05,.11,0,.16h0s-.11,.05-.16,0Z"/><path class="cls-84" d="M464.84,387.09c-.2,.2-.52,.21-.72,.01-.2-.2-.21-.52-.01-.72,.2-.2,.52-.21,.72-.01,.2,.2,.21,.52,.01,.72Z"/></g><path class="cls-37" d="M491.39,354.3c.06,.73-.49,1.36-1.21,1.42s-1.36-.49-1.42-1.21,.49-1.36,1.21-1.42,1.36,.49,1.42,1.21Z"/><path class="cls-37" d="M488.13,390.54c-.81,.06-1.62-.16-2.41-.68-3.07-2-4.42-6.19-5.51-9.56-.86-2.65-1.59-4.93-2.83-5.2-.78-.17-1.79,.44-3.1,1.87l-.39-.36c1.47-1.6,2.61-2.25,3.6-2.03,1.53,.33,2.28,2.64,3.22,5.55,1.06,3.29,2.39,7.38,5.3,9.28,1,.65,1.98,.78,2.99,.38,4.82-1.86,8.45-14.61,8.85-16.06-2.8-3.36-7.81-18.6-8.03-19.26l.5-.16c.05,.16,5.31,16.14,8.02,19.18l.09,.11-.04,.14c-.16,.59-3.87,14.49-9.21,16.55-.36,.14-.71,.22-1.06,.25Z"/></g><g><path class="cls-8" d="M366.55,452.25s-8.77,8.25-11.75,8.44c-2.99,.19-33.59,9.32-33.59,9.32l-1.44-5.56s8.83-4.79,16.45-9.66c2.67-1.7,10.28-2.61,13.73-5.08,3.01-2.15,6.49-10.47,7.18-10.64,.69-.17,9.43,13.17,9.43,13.17Z"/><path class="cls-8" d="M393.81,437.16s8.25,17.87,9.02,22.47c.77,4.6-.1,8.07,.41,14.41,.51,6.34,3.58,24.65,3.58,24.65l-5.47,1.75s-9.84-21.08-10.07-26.54c-.23-5.46,1.71-9.47,.07-12.55-1.64-3.08-13.11-14.19-13.11-14.19l15.57-10Z"/><path class="cls-61" d="M361.47,428.96s-.73,3.14-1.15,4.1c-.42,.96-7.29,7.84-8.02,8.21l14.06,13.03s7.79-7.44,8.61-10.13c.81-2.7-13.49-15.2-13.49-15.2Z"/><path class="cls-39" d="M386.43,424.92s.2,1.56,1.47,2.52c1.26,.95,7.21,8.69,7.21,8.69l-17.28,13.64s-13.53-9.88-15.63-16.59c-1.39-4.46-.6-8.52,.69-11.98,1.29-3.46,23.54,3.71,23.54,3.71Z"/><path class="cls-51" d="M370.87,379.36s-13.42,17.71-11.5,21.36c1.93,3.64,7.8,5.23,7.8,5.23l3.7-26.58Z"/><path class="cls-51" d="M377.3,361.48s.64,6.53-.95,8.61c-1.59,2.08,9.53,5,9.53,5,0,0-1.33-5.61,.21-7.98,1.27-1.96-8.79-5.63-8.79-5.63Z"/><path class="cls-8" d="M390.73,346.32s1.97,2.58,1.29,8.85c0,0,1.54,4.29,2.35,5.1,.81,.81-1.95,1.32-2.2,1.96-.25,.64-.61,3.58-2.42,5.46-1.82,1.88-11.78-2.73-12.45-5.67-.67-2.94-8.96-16.46,1.53-17.76,10.49-1.31,11.9,2.07,11.9,2.07Z"/><path class="cls-21" d="M375.91,369.86s-1.75,3.63-3.9,7.38c-2.15,3.75-4.33,8.47-4.44,16.9-.11,8.43,.09,18.94-4.68,27.07,0,0,13.14,4.28,23.54,3.71,0,0,3.13-12.99,3.42-17.52,.62-9.46,5.94-8.85,3.97-15.35-1.97-6.49-6.21-14.12-7.04-16.48l-10.88-5.71Z"/><path class="cls-8" d="M383.47,386.59s-4.15,20.96-2.48,21.97c2.33,1.41,17.82,1.77,17.82,1.77l-.41,5.04s-25.13,3.71-26.03-3.79c-.89-7.5,1.06-26.68,1.06-26.68l10.04,1.69Z"/><polygon class="cls-16" points="406.82 498.7 407.31 500.28 401.67 501.95 401.34 500.45 406.82 498.7"/><path class="cls-39" d="M401.67,501.95s4.68-2.1,4.82-2.29c.14-.19,.73-2.37,1.57-2.21,.84,.16,1.4,2.52,2.24,2.74,.84,.23,7.62,2.81,8.5,3.36,.89,.55,5.22-.91,6.03,.22,.8,1.13,1.54,4.08-5.24,4.94-6.78,.86-14.08,3.71-15.68,3.26-1.61-.45-2.24-7.99-2.23-10Z"/><polygon class="cls-16" points="321.21 470.01 319.61 470.42 318.25 464.69 319.77 464.45 321.21 470.01"/><path class="cls-61" d="M318.25,464.69s1.84,4.79,2.02,4.94c.18,.15,2.33,.87,2.12,1.69-.21,.83-2.59,1.26-2.86,2.08-.27,.82-3.22,7.45-3.82,8.31-.6,.86,.62,5.26-.55,6-1.18,.74-4.16,1.31-4.64-5.51-.48-6.81-2.92-14.26-2.38-15.84,.54-1.58,8.11-1.79,10.11-1.68Z"/><path class="cls-40" d="M391.7,348.66s-6.03,4.56-10.28,7.45c-4.26,2.89-4.04,7.1-4.04,7.1,0,0-6.9-9.44-4.12-15.56,3.1-6.82,17.36-6.17,18.45,1.01Z"/><path class="cls-40" d="M372.6,350.64s-8.76-2.29-10.22,4.02c-1.46,6.3,5.2,12.12,9.08,9.73,3.88-2.39,5.17-5.26,4.97-6.31-.2-1.05-3.84-7.44-3.84-7.44Z"/><path class="cls-54" d="M386.79,375.57s.43-2.81,.87-3.57l-11.23-5.11-.53,2.97s6.84,4.59,10.88,5.71Z"/><path class="cls-54" d="M372.6,389.52l10.66,1.23s3.29-9.44-4.16-10.94c0,0-7.47-.72-6.5,9.71Z"/><path class="cls-8" d="M380.82,354.15c-.66-1.26-3.12-.7-2.91,1.19,.21,1.89,2.08,3.84,2.76,2.96,.68-.88,1.12-2.3,.15-4.15Z"/><path class="cls-8" d="M408.65,410.2s.71,1.01,.05,1.81c-.65,.8-.32,1.29-1.15,1.71-.82,.42-.27,1.57-1.14,1.72-.77,.13-2.68-.58-3.66-.61-.06,0-.12,0-.17,0-.06,0-.12,.01-.17,.02-.79,.2-3.77,.62-4.46,.48-.7-.15-1.31-5.07-1.31-5.07,0,0,1.68,.19,3.61-.6,1.78-.73,4.09-2.89,5.36-2.98,.13,0,.25,0,.36,.04,1.11,.38,3.29,2.04,3.32,2.45,.03,.41-.64,1.03-.64,1.03Z"/><path class="cls-51" d="M408.65,410.2s.71,1.01,.05,1.81c-.65,.8-.32,1.29-1.15,1.71-.82,.42-.27,1.57-1.14,1.72-.77,.13-2.68-.58-3.66-.61,.5-.01,1.92-.06,2.07-.28,1.56-2.35,.84-7.68,.84-7.68l-.05-.19c.13,0,.25,0,.36,.04,1.11,.38,3.29,2.04,3.32,2.45,.03,.41-.64,1.03-.64,1.03Z"/></g><polygon class="cls-7" points="598.68 428.99 612.27 408.35 604.93 408.35 617.03 389.96 610.78 389.96 622.34 372.39 616.15 372.39 630.17 351.09 644.53 372.39 638.07 372.39 649.91 389.96 643.35 389.96 655.75 408.35 648.07 408.35 662 428.99 598.68 428.99"/><g><g><path class="cls-62" d="M604.61,441.46s-13.15,17.97-17.67,18.51c-9.43,1.14-29.18,11.04-29.18,11.04l-3.25-4.35s13.24-8.85,18.16-11.98c6.06-3.85,11.27-2.26,12.32-8.28,.66-3.78,3.95-11.07,3.95-11.07l15.67,6.12Z"/><path class="cls-35" d="M612.19,430.81s-1.7,4.93-6,11.27c0,0-12.79-4.05-18.41-7.23,0,0,3.25-17.84,6.73-21.81,1.71-1.96,17.69,17.76,17.69,17.76Z"/><polygon class="cls-33" points="554.56 466.63 552.82 467.85 556.12 472.13 557.82 470.97 554.56 466.63"/><path class="cls-87" d="M552.82,467.85s1.8,2.26,2.55,3.19c.76,.92,1.77,.78,1.26,1.43-.5,.65-1.8,3.48-1.69,4.76,.11,1.27,1.31,9.41-.35,10.1-1.67,.69-3.36-2.74-5.16-7.78-1.8-5.03-3.12-4.75-3.31-8.43-.06-1.14,6.7-3.27,6.7-3.27Z"/></g><g><path class="cls-62" d="M626.24,426.03s11.4,15.88,11.08,20.55c-.32,4.68,11.65,35.41,11.65,35.41l-4.51,2.71s-17.16-23.62-16.55-29.54c.74-7.16-1.58-7.25-6.28-11-2.95-2.35-9.26-7.66-9.26-7.66l13.87-10.46Z"/><path class="cls-17" d="M618.37,414.02s5.95,4.5,8.66,11.27c0,0-9.5,9.04-15.42,11.55,0,0-18.4-16.72-19.21-22-.4-2.6,25.97-.82,25.97-.82Z"/><polygon class="cls-26" points="644.46 484.7 645.4 486.6 649.85 483.84 648.97 481.99 644.46 484.7"/><path class="cls-87" d="M645.24,486.29s2.46-1.47,3.46-2.1c1.01-.62,1.03-1.67,1.57-1.06,.54,.61,3.07,2.38,4.31,2.46,1.24,.09,9.24,.15,9.65,1.95,.4,1.8-3.16,2.98-8.28,4.02-5.11,1.04-5.05,2.42-8.61,2.03-1.11-.12-2.11-7.31-2.11-7.31Z"/></g><path class="cls-62" d="M618.38,372.77l7.73,19.04s.4,2.64,5.9,.81c5.62-1.88,17.84-4.98,17.84-4.98,0,0,1.42,3.51,.02,4.35-1.91,1.15-18.77,9.14-25.23,10.96-5.13,1.45-15.2-24.75-15.2-24.75l8.93-5.42Z"/><path class="cls-1" d="M616.8,362.55s2.33-.82,9.47,5.91c.39,.37,2.01,6.62,2.61,14.16,.74,9.23-2.36,11.2-5.2,18.41-2,5.09-4.34,9.5-5.05,11.55-.31,.91-5.43,1.45-6.19,1.54-.1,.01-5.05,.5-5.15,.47l-16.88,2.86s17.81-21.77,16.25-33.35c-1.27-9.49,3.57-17.89,10.14-21.55Z"/><path class="cls-62" d="M636.24,340.63s1.19,5.61,1.19,6.84c0,1.22-1.03,1.28-.82,2.69,.23,1.55,1.18,5.02,.51,5.82-.67,.8-1.5,.3-2.57,1.64-1.19,1.47-1.71,4.73-3.71,4.78-2.01,.05-9.15-3.63-9.59-5.25-.44-1.62-1.41-10.42-2.23-12.15-.82-1.73,14-9.79,15.23-7.06,1.23,2.73,1.99,2.69,1.99,2.69Z"/><path class="cls-62" d="M643.93,390s2.36-.49,2.67-1.12c.31-.64,1.08-1.73,1.46-2.25,.38-.53,.96-2.28,1.52-2.69,.23-.17,1.97-.69,2.4-1.08s1.24-1.28,1.51-.93c.28,.35-.25,1.31-.25,1.31,0,0,.42-.33,.76-.12,.67,.42,.57,.96,.57,.96,0,0,.61-.09,.83,.16,.5,.56,.39,1.07,.39,1.07,0,0,.6,.21,.66,.56,.18,1.04-.11,1.2-.11,1.2,0,0,.56,.62,.3,1.09-.26,.47-.62,.73-.91,1.05-.29,.32-3.61,2.33-6.32,2.87-2.71,.54-4.74,2-4.74,2l-.75-4.08Z"/><path class="cls-62" d="M594.5,398.73s1.14,3.97,2,4.5c.86,.53,3.01,2.82,3.29,3.3,.27,.48,3.84,4.11,2.56,4.49-.88,.26-2.02-1.88-2.37-1.98-.39-.11-1.07-.32-1.12,.13s1.01,2.68,1.11,3.47c.1,.78,.64,3.29,.38,3.63-.26,.34-.95,.41-1.25-1.75-.3-2.12-1.18-3.34-1.18-3.34,0,0,.06,2.38,.17,3.1,.12,.82,.2,3.1-.11,3.35-.33,.27-.81-.23-.81-.23,0,0-.51,1.04-1,.45s-.92-3.11-1.08-3.56c-.16-.45-.97-2.82-1.06-2.82-.09,0-.6-.1-.54,.25,.06,.35,.49,4.36,.33,4.53-.15,.17-.68,.41-.9-.36-.22-.77-.71-4.38-.88-4.79-.17-.4-.87-2.69-.94-5.34-.08-2.64-.53-3.89-.53-3.89l3.93-3.16Z"/><path class="cls-62" d="M613.49,376.64s4.52,.03,4.42-7.3c-.13-9.22-11.35-1.23-30.14,4,0,0-5.26,1.44-4.45,6.97,.81,5.54,8.2,24.33,8.41,26.09l4.02-3.47s-1.68-9.47-2.04-14.01c-.35-4.53-2.22-8.41-2.22-8.41l22-3.87Z"/><path class="cls-62" d="M612.16,366.99s2.08-3.46,4.6-1.97c2.52,1.49,5.17,5.78,4.56,12.7-.61,6.92-7.05,8.71-9.97,6.69-2.91-2.02-2.25-12.5,.8-17.42Z"/><path class="cls-67" d="M630.68,346.2s5.19,1.94,6.75,1.27c1.56-.67-.41-2.91-.41-2.91,0,0-1.66-.24-6.33,1.65Z"/><path class="cls-17" d="M619.45,350.36s-10.49,5.02-11.02,4.68c-.53-.34-.02-1.99-.02-1.99l10.09-4.62,.95,1.93Z"/><polygon class="cls-67" points="622.12 351.67 620.7 353.99 619.45 350.36 621.64 348.69 622.12 351.67"/><polygon class="cls-67" points="627.37 347.22 628.62 350.8 625.37 350.59 624.92 347.24 627.37 347.22"/><path class="cls-62" d="M628.72,361.89s-2.48,3.99-2.44,6.57c.03,2.59,2.8,10.66,1.38,9.97-1.42-.69-3.87-12.62-10.85-15.88,0,0,5.22-3.29,3.9-8.57l8.02,7.91Z"/><path class="cls-17" d="M637.02,344.56s-10.67,2.35-17.57,5.8c0,0-3.54-5.52-.61-9.64,2.93-4.12,8.26-5.65,11.75-4.84,3.49,.82,6.22,3.83,6.43,8.68Z"/><path class="cls-62" d="M625.63,347.72s-1.33-2.91-3.81-.78c-1.81,1.55,.52,6.45,2.38,6.29,1.86-.16,2.41-2.96,1.43-5.51Z"/><path class="cls-17" d="M645.82,388.68s1.94,2.35,2.25,4.24c0,0-.56,.6-1.56,.76l-2.42-4.55s.8-.5,1.72-.46Z"/></g><g><path class="cls-46" d="M593.29,456.99c-2.51,3.96-10.95,15.49-16.95,23.63l-.28,.38c-2.6,3.52-4.71,6.36-5.61,7.57l-.14,.19-.14,.19c-.13,.17-.19,.26-.19,.26l-5.03-2.9s1.2-4.45,3.27-9.98c2.64-7.04,6.7-15.83,11.53-19.44,4.76-3.56,1.54-3.86-3.21-5.56-15.14-5.4-24.2-8.7-24.2-8.7l10.78-19.04s26.19,16.81,29.53,21.2c3.34,4.39,4.26,6.49,.64,12.19Z"/><path class="cls-11" d="M562.5,425.34s-12.79,26.17-26.07,40.43c-3.76,4.04-7.83,6.63-13.24,11.85-2.88,2.78-7.9,8.52-11.97,13.28l-.17,.2c-2.9,3.4-5.3,6.27-6.03,7.16-.03,.03-.05,.06-.07,.08l-.08,.1-.08,.1-4.43-3.33s1.76-4.23,4.16-9.47c3.37-7.36,8.01-16.73,10.82-19.24,4.81-4.31,10.12-5.97,11.7-9.77,1.58-3.8,6.69-24.49,6.69-24.49,0,0,.73-9.82,8.72-14.06,7.79-4.14,20.05,7.17,20.05,7.17Z"/><path class="cls-58" d="M561.13,384.69s-17.69,10.89-17.92,13.19c-.33,3.22,7.17,12.29,7.17,12.29l-4.99,4.65s-15.98-16.83-10.06-21.37c7.11-5.46,21.16-17.29,21.16-17.29l4.64,8.52Z"/><path class="cls-58" d="M559.52,358.5s1.11,7.25-.53,9.67c-1.65,2.42,8.67,4.49,8.67,4.49,0,0-.22-5.77,1.35-8.51,1.29-2.26-9.48-5.65-9.48-5.65Z"/><path class="cls-62" d="M574.46,344.26s2.67,2.24,1.6,8.84c0,0,.67,5.23,1.49,6.13,.82,.9-2.13,1.29-2.44,1.95-.3,.66-.84,3.76-2.87,5.65-2.03,1.89-12.33-3.54-12.88-6.69-.55-3.16-7.85-16.6,3.34-17.4,11.19-.81,11.76,1.52,11.76,1.52Z"/><path class="cls-62" d="M570.52,407.89c-.41,.56-.79,1.26-1.16,2.06-1.99,4.38-3.28,11.65-3.7,14.27-.1,.62-.14,.94-.14,.94-12.28,1.36-23.07-6.98-23.07-6.98,.19-.38,.39-.74,.57-1.1,3.06-5.82,5.35-9.3,6.49-13.58h0c.64-2.4,.93-5.05,.78-8.51-.42-9.99,1.86-15.72,4.15-20.31,2.3-4.58,4.56-7.33,4.56-7.33l9.4,5.01c1.13,2.75,3.73,5.26,7.35,11.9,3.86,7.06,4.19,10.69-5.23,23.63Z"/><polygon class="cls-16" points="570.16 488.95 569.41 490.76 563.74 488 564.94 486.31 570.16 488.95"/><path class="cls-89" d="M563.74,488s5.37,1.71,5.59,1.68c.22-.04,.43-.29,.89,.37,.46,.66,.09,1.78,.5,2.48,.41,.7,3.42,4.27,4.79,6.63,.5,.85,2.83,4.12,2.62,5.41-.21,1.29-1.34,2.7-6.48-1.22-5.13-3.92-11.51-7.06-12.29-8.42-.79-1.37,3.04-5.58,4.37-6.93Z"/><polygon class="cls-16" points="503.61 500.16 504.78 498.54 500.35 495.21 498.79 496.83 503.61 500.16"/><path class="cls-89" d="M576.31,350.73s1.03-13.69-12.18-11.03c-13.21,2.66-6.36,17.5-4.49,22.34,0,0-.12-7.57,6.26-7.92,6.38-.35,7.67-1.85,10.41-3.38Z"/><path class="cls-89" d="M557.75,355.2s3.89,5.39,1.59,14.08c-2.27,8.59-12.48,6.84-17.43,3.74,4.17-5.12,6.33-10.99,7.38-14.72,.31-.99,.58-2.11,.79-3.38,0-.02,0-.05,.01-.07,.02-.13,.04-.22,.04-.26,0-.01,0-.02,0-.03,0,0,0,0,0,0,2.61-16.8,18.11-15.16,18.11-15.16l-10.5,15.81Z"/><path class="cls-62" d="M564.82,352.21c-.82-1.38-3.54-.59-3.2,1.52,.35,2.11,2.58,4.18,3.28,3.15,.71-1.03,1.12-2.65-.09-4.67Z"/><path class="cls-25" d="M570.52,407.89c-.41,.56-.79,1.26-1.16,2.06,0,0-11.2-3.95-19.85-6.45,.64-2.4,.93-5.05,.78-8.51-.42-9.99,1.86-15.72,4.15-20.31,2.3-4.58,5.18-7.13,5.18-7.13l8.77,4.81c1.13,2.75,3.73,5.26,7.35,11.9,3.86,7.06,4.19,10.69-5.23,23.63Z"/><path class="cls-62" d="M566.68,380.14s-2.23-5.9-7.42-3.68c-5.19,2.22-2.51,8.12-2.51,8.12l9.93-4.44Z"/><path class="cls-89" d="M498.79,496.83s4.23,2.6,5.34,2.62c1.11,.02,1.67,.46,1.7,2.14,.03,1.69,2.42,8.57,3.64,8.57,1.22,0,5.34-.36,6.34,2.28,1,2.64-12.86,3.36-13.92,1.22-1.06-2.14-8.02-12.38-7.39-13.31,.62-.93,2.3-3.06,4.3-3.52Z"/><polygon class="cls-80" points="550.24 399.15 571.26 405.87 569.36 409.95 549.52 403.49 550.24 399.15"/><path class="cls-62" d="M566.68,380.14s8.22,22.35,10.34,22.74c2.97,.54,17.28-4.88,17.28-4.88l1.37,4.88s-21.48,12.84-25.28,7c-4.57-7.02-13.64-25.3-13.64-25.3l9.93-4.44Z"/><path class="cls-45" d="M565.66,424.21c-.1,.62-.14,.94-.14,.94-12.28,1.36-23.07-6.98-23.07-6.98,.19-.38,.39-.74,.57-1.1,0,0,8.93,6.91,22.64,7.14Z"/><path class="cls-62" d="M576.34,480.62l-.28,.38-5.61,7.57-.14,.19-.14,.19-5.22-2.64s1.2-4.45,3.27-9.98l8.13,4.29Z"/><path class="cls-62" d="M511.22,490.9l-.17,.2-6.03,7.16-.07,.08-.08,.1-.08,.1-4.43-3.33s1.76-4.23,4.16-9.47l6.71,5.16Z"/><path class="cls-58" d="M597.71,392.96s1.53-1.42,1.95-1.9c.42-.48,.93,.6,.54,1.24-.4,.64-2.49,.65-2.49,.65Z"/><path class="cls-62" d="M604.7,398s-.55,.73-.94,.97c0,0-.74,.39-1.26,.69-.16,.1-.3,.18-.39,.25-.36,.27-1.07,.94-2.1,1.39-1.02,.45-4.74,1.72-4.74,1.72l-1.24-2.58-1.01-2.01s3.47-4.85,4.39-5.36c.09-.05,.18-.1,.27-.13,.81-.37,1.53-.35,1.97-.51,.16-.05,1.8-.51,2.16-.26,.51,.34,.67,.79,.6,1.22,0,0,.95,.71,1.05,1.51,0,0,.91,.63,.71,1.7,0,0,.83,.74,.52,1.41Z"/></g></svg>