<?xml version="1.0" encoding="UTF-8"?><svg id="Train" xmlns="http://www.w3.org/2000/svg" viewBox="0 0 348.77 95.19"><defs><style>.cls-1{letter-spacing:0em;}.cls-2{fill:#21409a;}.cls-3{letter-spacing:-.02em;}.cls-4{letter-spacing:-.08em;}.cls-5{letter-spacing:-.01em;}.cls-6,.cls-7{fill:#f7a92b;}.cls-8{letter-spacing:-.02em;}.cls-9{letter-spacing:0em;}.cls-10{fill:#1f0709;}.cls-11{fill:#8c181b;}.cls-7{font-family:Cinzel-Bold, Cinzel;font-size:10.76px;}.cls-12{letter-spacing:0em;}.cls-13{fill:#590101;}.cls-14{letter-spacing:0em;}.cls-15{fill:#870000;}.cls-16{fill:#494949;}.cls-17{fill:#93938f;}.cls-18{fill:#c93;}</style></defs><g><rect class="cls-10" y="88.24" width="15.38" height="6.95"/><rect class="cls-10" x="41.67" y="88.24" width="15.38" height="6.95"/><rect class="cls-10" x="83.35" y="88.24" width="15.38" height="6.95"/><rect class="cls-10" x="125.02" y="88.24" width="15.38" height="6.95"/><rect class="cls-10" x="166.7" y="88.24" width="15.38" height="6.95"/><rect class="cls-10" x="208.37" y="88.24" width="15.38" height="6.95"/><rect class="cls-10" x="250.05" y="88.24" width="15.38" height="6.95"/><rect class="cls-10" x="291.72" y="88.24" width="15.38" height="6.95"/><rect class="cls-10" x="333.39" y="88.24" width="15.38" height="6.95"/><rect class="cls-17" y="84.17" width="348.77" height="4.07"/></g><g><path class="cls-11" d="M157.95,68.7c-.91,0-1.65,.67-1.65,1.49h.52v7.56h2.26v-7.56h.52c0-.82-.74-1.49-1.65-1.49Z"/><g><path class="cls-11" d="M25.12,49.9c0,2.66,1.44,4.82,2.56,4.82s2.03-2.16,2.03-4.82-.91-4.82-2.03-4.82-2.56,2.16-2.56,4.82Z"/><path class="cls-6" d="M34.39,28.56c0,1.65,.82,2.99,1.46,2.99s1.16-1.34,1.16-2.99-.52-2.99-1.16-2.99-1.46,1.34-1.46,2.99Z"/><rect class="cls-10" x="35.44" y="24.76" width="6.96" height="7.6"/><rect class="cls-11" x="34.84" y="31.72" width="8.17" height="3.13"/><polygon class="cls-11" points="42.75 25.98 34.29 25.98 32.63 22.85 42.75 22.85 42.75 25.98"/><polygon class="cls-6" points="84.91 21.96 85.34 21.96 83.66 18.17 82.36 18.17 80.68 21.96 81.11 21.96 81.11 23.21 82.2 25.59 81.11 24.79 81.11 30.18 82.2 30.18 82.2 36.86 83.82 36.86 83.82 30.18 84.91 30.18 84.91 21.96"/><rect class="cls-11" x="95.93" y="24.33" width="10.95" height="12.53"/><circle class="cls-11" cx="101.4" cy="24.33" r="5.47"/><path class="cls-6" d="M74.94,25.93c-.78-1.17,.37-4.28-3.02-4.28s-2.24,3.11-3.02,4.28c-.78,1.17-1.9,2.49-1.9,2.93s.74,.68,.74,.68h8.37s.74-.25,.74-.68-1.13-1.76-1.9-2.93Z"/><rect x="71.16" y="18.85" width="1.52" height="19.2" rx=".25" ry=".25"/><rect x="35.43" y="34.84" width="80.2" height="30.11"/><path d="M27.17,49.9c0,8.31,4.5,15.05,8.01,15.05s6.35-6.74,6.35-15.05-2.84-15.05-6.35-15.05-8.01,6.74-8.01,15.05Z"/><g><path class="cls-16" d="M38.59,37.22h-7.32c-.97,1.15-1.86,2.66-2.56,4.44H117.15v-4.44H38.59Z"/><path class="cls-16" d="M28.28,42.86c-.12,.36-.23,.73-.33,1.11H117.15v-1.11H28.28Z"/></g><path class="cls-6" d="M90.74,38.89H42.46c-.7,0-1.27-.37-1.27-.83s.57-.83,1.27-.83h48.28c.7,0,1.27,.37,1.27,.83s-.57,.83-1.27,.83Z"/><path class="cls-16" d="M28.28,56.89c-.12-.36-.23-.73-.33-1.11H117.15v1.11H28.28Z"/><rect class="cls-10" x="100.64" y="18.87" width="1.52" height="13.38" rx=".25" ry=".25" transform="translate(126.97 -75.84) rotate(90)"/><path class="cls-6" d="M90.74,54.07H42.46c-.7,0-1.27-.37-1.27-.83s.57-.83,1.27-.83h48.28c.7,0,1.27,.37,1.27,.83s-.57,.83-1.27,.83Z"/><rect x="37.65" y="64.95" width="45.12" height="17.8"/><rect class="cls-11" x="63.99" y="33.23" width="5.28" height="31.72"/><rect class="cls-11" x="43.71" y="33.23" width="5.28" height="31.72"/><rect class="cls-15" x="35.63" y="66.48" width="2.37" height="17.64"/><polygon class="cls-11" points="27.43 67.17 29.71 62.73 103.73 62.73 103.73 67.17 27.43 67.17"/><polygon class="cls-11" points="8.39 84.33 12.05 81.06 38 81.06 38 84.33 8.39 84.33"/><polygon class="cls-11" points="13.51 84.23 8.39 84.33 28.88 62.73 32.15 62.73 13.51 84.23"/><polygon class="cls-11" points="25.74 82.64 20.62 82.75 32.15 62.73 33.79 62.73 25.74 82.64"/><polygon class="cls-11" points="32.99 82.12 29.04 82.75 34.62 62.73 35.63 62.73 32.99 82.12"/><rect class="cls-11" x="86.73" y="33.23" width="5.28" height="31.72"/><rect class="cls-2" x="77.88" y="41.85" width="71.28" height="33.43"/><path d="M144.73,57.47c-3.29-3.78-8.13-6.18-13.53-6.18s-10.24,2.4-13.53,6.18h-4.83c-3.29-3.78-8.13-6.18-13.53-6.18s-10.24,2.4-13.53,6.18h-5.35v20.41h68.75v-20.41h-4.44Z"/><polygon points="64.05 0 64.05 9.17 60.54 15.54 60.54 34.85 50.01 34.85 50.01 15.54 46.49 9.17 46.49 0 64.05 0"/><path d="M160.71,70.81h-5.53c-.39,0-.71,.32-.71,.71v.68h-6.35v3.62h5.52v-2.3h7.78v-2c0-.39-.32-.71-.71-.71Z"/><g><circle class="cls-6" cx="46.22" cy="61.62" r=".9"/><circle class="cls-6" cx="46.22" cy="57.23" r=".9"/><circle class="cls-6" cx="46.22" cy="52.83" r=".9"/><circle class="cls-6" cx="46.22" cy="48.44" r=".9"/><circle class="cls-6" cx="46.22" cy="44.05" r=".9"/><circle class="cls-6" cx="46.22" cy="39.65" r=".9"/><circle class="cls-6" cx="46.22" cy="35.26" r=".9"/></g><g><circle class="cls-6" cx="66.63" cy="61.62" r=".9"/><circle class="cls-6" cx="66.63" cy="57.23" r=".9"/><circle class="cls-6" cx="66.63" cy="52.83" r=".9"/><circle class="cls-6" cx="66.63" cy="48.44" r=".9"/><circle class="cls-6" cx="66.63" cy="44.05" r=".9"/><circle class="cls-6" cx="66.63" cy="39.65" r=".9"/><circle class="cls-6" cx="66.63" cy="35.26" r=".9"/></g><g><circle class="cls-18" cx="89.37" cy="39.65" r=".9"/><circle class="cls-18" cx="89.37" cy="35.26" r=".9"/></g><rect class="cls-16" x="50.88" width="1.95" height="34.78"/><rect class="cls-11" x="46.49" y="2.45" width="17.56" height="2.14"/><rect class="cls-11" x="46.49" y="5.32" width="17.56" height="1.07"/><path class="cls-6" d="M147.5,54.46h-2.77c-.09,0-.18-.04-.24-.11-3.36-3.86-8.21-6.07-13.3-6.07s-9.94,2.21-13.3,6.07c-.06,.07-.14,.11-.24,.11h-4.83c-.09,0-.18-.04-.24-.11-3.36-3.86-8.21-6.07-13.3-6.07s-9.94,2.21-13.3,6.07c-.06,.07-.14,.11-.24,.11h-5.35c-.17,0-.31-.14-.31-.31v-9.4c0-.17,.14-.31,.31-.31h67.08c.17,0,.31,.14,.31,.31v9.4c0,.17-.14,.31-.31,.31Zm-2.63-.62h2.32v-8.78H80.73v8.78h4.89c3.47-3.93,8.45-6.18,13.68-6.18s10.2,2.25,13.67,6.18h4.55c3.47-3.93,8.45-6.18,13.67-6.18s10.2,2.25,13.68,6.18Z"/><path class="cls-11" d="M131.19,54.07c-8.38,0-15.2,6.82-15.2,15.2s6.82,15.2,15.2,15.2,15.2-6.82,15.2-15.2-6.82-15.2-15.2-15.2Zm11.79,14.19h-8.03c-.09-.33-.22-.65-.39-.94l5.68-5.68c1.54,1.82,2.53,4.11,2.74,6.62Zm-11.79,2.89c-1.04,0-1.88-.84-1.88-1.88s.84-1.88,1.88-1.88,1.88,.84,1.88,1.88-.84,1.88-1.88,1.88Zm1.95-5.25c-.29-.17-.61-.3-.94-.39v-8.03c2.51,.21,4.8,1.21,6.62,2.74l-5.68,5.68Zm-2.95-.39c-.33,.09-.65,.22-.94,.39l-5.68-5.68c1.82-1.54,4.11-2.53,6.62-2.74v8.03Zm-.94,7.13c.29,.17,.61,.3,.94,.39v8.03c-2.51-.21-4.8-1.21-6.62-2.74l5.68-5.68Zm2.95,.39c.33-.09,.65-.22,.94-.39l5.68,5.68c-1.82,1.54-4.11,2.53-6.62,2.74v-8.03Zm-10.05-11.38l5.68,5.68c-.17,.29-.3,.61-.39,.94h-8.03c.21-2.51,1.21-4.8,2.74-6.62Zm-2.74,8.63h8.03c.09,.33,.22,.65,.39,.94l-5.68,5.68c-1.54-1.82-2.53-4.11-2.74-6.62Zm20.84,6.62l-5.68-5.68c.17-.29,.3-.61,.39-.94h8.03c-.21,2.51-1.21,4.8-2.74,6.62Z"/><path class="cls-6" d="M131.04,83.49c-7.84,0-14.23-6.38-14.23-14.23s6.38-14.23,14.23-14.23,14.23,6.38,14.23,14.23-6.38,14.23-14.23,14.23Zm0-27.62c-7.39,0-13.39,6.01-13.39,13.39s6.01,13.39,13.39,13.39,13.39-6.01,13.39-13.39-6.01-13.39-13.39-13.39Z"/><path class="cls-11" d="M99.37,54.07c-8.38,0-15.2,6.82-15.2,15.2s6.82,15.2,15.2,15.2,15.2-6.82,15.2-15.2-6.82-15.2-15.2-15.2Zm11.79,14.19h-8.03c-.09-.33-.22-.65-.39-.94l5.68-5.68c1.54,1.82,2.53,4.11,2.74,6.62Zm-11.79,2.89c-1.04,0-1.88-.84-1.88-1.88s.84-1.88,1.88-1.88,1.88,.84,1.88,1.88-.84,1.88-1.88,1.88Zm1.95-5.25c-.29-.17-.61-.3-.94-.39v-8.03c2.51,.21,4.8,1.21,6.62,2.74l-5.68,5.68Zm-2.95-.39c-.33,.09-.65,.22-.94,.39l-5.68-5.68c1.82-1.54,4.11-2.53,6.62-2.74v8.03Zm-.94,7.13c.29,.17,.61,.3,.94,.39v8.03c-2.51-.21-4.8-1.21-6.62-2.74l5.68-5.68Zm2.95,.39c.33-.09,.65-.22,.94-.39l5.68,5.68c-1.82,1.54-4.11,2.53-6.62,2.74v-8.03Zm-10.05-11.38l5.68,5.68c-.17,.29-.3,.61-.39,.94h-8.03c.21-2.51,1.21-4.8,2.74-6.62Zm-2.74,8.63h8.03c.09,.33,.22,.65,.39,.94l-5.68,5.68c-1.54-1.82-2.53-4.11-2.74-6.62Zm20.84,6.62l-5.68-5.68c.17-.29,.3-.61,.39-.94h8.03c-.21,2.51-1.21,4.8-2.74,6.62Z"/><path class="cls-6" d="M99.21,83.49c-7.84,0-14.23-6.38-14.23-14.23s6.38-14.23,14.23-14.23,14.23,6.38,14.23,14.23-6.38,14.23-14.23,14.23Zm0-27.62c-7.39,0-13.39,6.01-13.39,13.39s6.01,13.39,13.39,13.39,13.39-6.01,13.39-13.39-6.01-13.39-13.39-13.39Z"/><path class="cls-11" d="M67.6,64.95c-5.38,0-9.76,4.38-9.76,9.76s4.38,9.76,9.76,9.76,9.76-4.38,9.76-9.76-4.38-9.76-9.76-9.76Zm7.57,9.11h-5.16c-.06-.21-.14-.42-.25-.6l3.65-3.65c.99,1.17,1.62,2.64,1.76,4.25Zm-7.57,1.85c-.67,0-1.21-.54-1.21-1.21s.54-1.21,1.21-1.21,1.21,.54,1.21,1.21-.54,1.21-1.21,1.21Zm1.25-3.37c-.19-.11-.39-.19-.6-.25v-5.16c1.61,.14,3.08,.77,4.25,1.76l-3.65,3.65Zm-1.89-.25c-.21,.06-.42,.14-.6,.25l-3.65-3.65c1.17-.99,2.64-1.63,4.25-1.76v5.16Zm-.6,4.57c.19,.11,.39,.19,.6,.25v5.16c-1.61-.14-3.08-.77-4.25-1.76l3.65-3.65Zm1.89,.25c.21-.06,.42-.14,.6-.25l3.65,3.65c-1.17,.99-2.64,1.63-4.25,1.76v-5.16Zm-6.45-7.31l3.65,3.65c-.11,.19-.19,.39-.25,.6h-5.16c.14-1.61,.77-3.08,1.76-4.25Zm-1.76,5.54h5.16c.06,.21,.14,.42,.25,.6l-3.65,3.65c-.99-1.17-1.63-2.64-1.76-4.25Zm13.38,4.25l-3.65-3.65c.11-.19,.19-.39,.25-.6h5.16c-.14,1.61-.77,3.08-1.76,4.25Z"/><path class="cls-13" d="M67.6,84.46c-5.38,0-9.76-4.38-9.76-9.76s4.38-9.76,9.76-9.76,9.76,4.38,9.76,9.76-4.38,9.76-9.76,9.76Zm0-18.68c-4.92,0-8.92,4-8.92,8.92s4,8.92,8.92,8.92,8.92-4,8.92-8.92-4-8.92-8.92-8.92Z"/><path class="cls-6" d="M67.6,83.79c-5.01,0-9.08-4.07-9.08-9.08s4.07-9.08,9.08-9.08,9.08,4.07,9.08,9.08-4.08,9.08-9.08,9.08Zm0-17.39c-4.58,0-8.31,3.73-8.31,8.31s3.73,8.31,8.31,8.31,8.31-3.73,8.31-8.31-3.73-8.31-8.31-8.31Z"/><path class="cls-11" d="M47.12,64.95c-5.38,0-9.76,4.38-9.76,9.76s4.38,9.76,9.76,9.76,9.76-4.38,9.76-9.76-4.38-9.76-9.76-9.76Zm7.57,9.11h-5.16c-.06-.21-.14-.42-.25-.6l3.65-3.65c.99,1.17,1.62,2.64,1.76,4.25Zm-7.57,1.85c-.67,0-1.21-.54-1.21-1.21s.54-1.21,1.21-1.21,1.21,.54,1.21,1.21-.54,1.21-1.21,1.21Zm1.25-3.37c-.19-.11-.39-.19-.6-.25v-5.16c1.61,.14,3.08,.77,4.25,1.76l-3.65,3.65Zm-1.89-.25c-.21,.06-.42,.14-.6,.25l-3.65-3.65c1.17-.99,2.64-1.63,4.25-1.76v5.16Zm-.6,4.57c.19,.11,.39,.19,.6,.25v5.16c-1.61-.14-3.08-.77-4.25-1.76l3.65-3.65Zm1.89,.25c.21-.06,.42-.14,.6-.25l3.65,3.65c-1.17,.99-2.64,1.63-4.25,1.76v-5.16Zm-6.45-7.31l3.65,3.65c-.11,.19-.19,.39-.25,.6h-5.16c.14-1.61,.77-3.08,1.76-4.25Zm-1.76,5.54h5.16c.06,.21,.14,.42,.25,.6l-3.65,3.65c-.99-1.17-1.63-2.64-1.76-4.25Zm13.38,4.25l-3.65-3.65c.11-.19,.19-.39,.25-.6h5.16c-.14,1.61-.77,3.08-1.76,4.25Z"/><path class="cls-13" d="M47.12,84.46c-5.38,0-9.76-4.38-9.76-9.76s4.38-9.76,9.76-9.76,9.76,4.38,9.76,9.76-4.38,9.76-9.76,9.76Zm0-18.68c-4.92,0-8.92,4-8.92,8.92s4,8.92,8.92,8.92,8.92-4,8.92-8.92-4-8.92-8.92-8.92Z"/><path class="cls-6" d="M47.12,83.79c-5.01,0-9.08-4.07-9.08-9.08s4.07-9.08,9.08-9.08,9.08,4.07,9.08,9.08-4.08,9.08-9.08,9.08Zm0-17.39c-4.58,0-8.31,3.73-8.31,8.31s3.73,8.31,8.31,8.31,8.31-3.73,8.31-8.31-3.73-8.31-8.31-8.31Z"/><path class="cls-2" d="M144.65,11.46h-31.13V43.91h4.51v-.27h8.67v.27h2.25V21.46c0-4.34,3.52-7.85,7.85-7.85s7.85,3.51,7.85,7.85v22.45h4.51V11.46h-4.51Zm-17.96,1.82v5.4h-3.21v-5.4h3.21Zm-5.46,0v5.4h-3.21v-5.4h3.21Zm-3.21,7.65h3.21v5.63h-3.21v-5.63Zm5.46,5.63v-5.63h3.21v5.63h-3.21Z"/><rect class="cls-11" x="76.33" y="40.15" width="74.61" height="2.92"/><path class="cls-6" d="M126.7,38.97h-10.92c-.17,0-.31-.14-.31-.31v-9.72c0-.17,.14-.31,.31-.31h10.92c.17,0,.31,.14,.31,.31v9.72c0,.17-.14,.31-.31,.31Zm-10.61-.62h10.3v-9.09h-10.3v9.09Z"/><path class="cls-11" d="M154.18,12.22h-39.98c-1.72,0-3.12-1.4-3.12-3.12h0c0-1.72,1.4-3.12,3.12-3.12h39.98c1.72,0,7.68,4.52,7.68,6.24h-7.68Z"/></g></g><g><g><path class="cls-2" d="M186.17,75.22h-18.41c-.46,0-.83-.37-.83-.83v-29.02c0-.46,.37-.83,.83-.83h18.41c.46,0,.83,.37,.83,.83v29.02c0,.46-.37,.83-.83,.83Zm-17.58-1.66h16.75v-27.36h-16.75v27.36Z"/><path class="cls-2" d="M176.97,74.15c-.23,0-.42-.19-.42-.42v-28.06c0-.23,.19-.42,.42-.42s.42,.19,.42,.42v28.06c0,.23-.19,.42-.42,.42Z"/><path class="cls-2" d="M172.08,74.15c-.23,0-.42-.19-.42-.42v-28.06c0-.23,.19-.42,.42-.42s.42,.19,.42,.42v28.06c0,.23-.19,.42-.42,.42Z"/><path class="cls-2" d="M181.52,74.15c-.23,0-.42-.19-.42-.42v-28.06c0-.23,.19-.42,.42-.42s.42,.19,.42,.42v28.06c0,.23-.19,.42-.42,.42Z"/></g><g><path class="cls-2" d="M338.69,75.22h-18.41c-.46,0-.83-.37-.83-.83v-29.02c0-.46,.37-.83,.83-.83h18.41c.46,0,.83,.37,.83,.83v29.02c0,.46-.37,.83-.83,.83Zm-17.58-1.66h16.75v-27.36h-16.75v27.36Z"/><path class="cls-2" d="M329.48,74.15c-.23,0-.42-.19-.42-.42v-28.06c0-.23,.19-.42,.42-.42s.42,.19,.42,.42v28.06c0,.23-.19,.42-.42,.42Z"/><path class="cls-2" d="M324.6,74.15c-.23,0-.42-.19-.42-.42v-28.06c0-.23,.19-.42,.42-.42s.42,.19,.42,.42v28.06c0,.23-.19,.42-.42,.42Z"/><path class="cls-2" d="M334.04,74.15c-.23,0-.42-.19-.42-.42v-28.06c0-.23,.19-.42,.42-.42s.42,.19,.42,.42v28.06c0,.23-.19,.42-.42,.42Z"/></g><path class="cls-11" d="M184.13,12.03v62.33h138.46V12.03H184.13Zm34.58,30.19c0,.91-.75,1.66-1.66,1.66h-24.44c-.91,0-1.66-.75-1.66-1.66V18.93c0-.91,.75-1.66,1.66-1.66h24.44c.91,0,1.66,.75,1.66,1.66v23.29Zm32.94,0c0,.91-.75,1.66-1.66,1.66h-24.44c-.91,0-1.66-.75-1.66-1.66V18.93c0-.91,.75-1.66,1.66-1.66h24.44c.91,0,1.66,.75,1.66,1.66v23.29Zm32.28,0c0,.91-.75,1.66-1.66,1.66h-24.44c-.91,0-1.66-.75-1.66-1.66V18.93c0-.91,.75-1.66,1.66-1.66h24.44c.91,0,1.66,.75,1.66,1.66v23.29Zm32.94,0c0,.91-.75,1.66-1.66,1.66h-24.44c-.91,0-1.66-.75-1.66-1.66V18.93c0-.91,.75-1.66,1.66-1.66h24.44c.91,0,1.66,.75,1.66,1.66v23.29Z"/><path class="cls-2" d="M333.51,13.86H173.21c-1.9,0-3.45-1.59-3.45-3.54,0,0,6.92-2.53,8.09-4.53,.99-1.69,1.54-3.54,3.45-3.54h144.11c1.9,0,2.46,1.86,3.45,3.54,1.17,2,8.09,4.53,8.09,4.53,0,1.96-1.54,3.54-3.45,3.54Z"/><rect x="166.52" y="70.3" width="173.68" height="10.32"/><rect class="cls-10" x="181.92" y="47.41" width="142.87" height="3.77"/><rect class="cls-10" x="168.03" y="10.62" width="170.66" height="3.94"/><path d="M162.24,74.39v2.3h-7.78v2c0,.39,.32,.71,.71,.71h5.53c.39,0,.71-.32,.71-.71v-.68h6.35v-3.62h-5.52Z"/><path class="cls-11" d="M217.52,65.26c-5.38,0-9.76,4.38-9.76,9.76s4.38,9.76,9.76,9.76,9.76-4.38,9.76-9.76-4.38-9.76-9.76-9.76Zm7.57,9.11h-5.16c-.06-.21-.14-.42-.25-.6l3.65-3.65c.99,1.17,1.62,2.64,1.76,4.25Zm-7.57,1.85c-.67,0-1.21-.54-1.21-1.21s.54-1.21,1.21-1.21,1.21,.54,1.21,1.21-.54,1.21-1.21,1.21Zm1.25-3.37c-.19-.11-.39-.19-.6-.25v-5.16c1.61,.14,3.08,.77,4.25,1.76l-3.65,3.65Zm-1.89-.25c-.21,.06-.42,.14-.6,.25l-3.65-3.65c1.17-.99,2.64-1.63,4.25-1.76v5.16Zm-.6,4.57c.19,.11,.39,.19,.6,.25v5.16c-1.61-.14-3.08-.77-4.25-1.76l3.65-3.65Zm1.89,.25c.21-.06,.42-.14,.6-.25l3.65,3.65c-1.17,.99-2.64,1.63-4.25,1.76v-5.16Zm-6.45-7.31l3.65,3.65c-.11,.19-.19,.39-.25,.6h-5.16c.14-1.61,.77-3.08,1.76-4.25Zm-1.76,5.54h5.16c.06,.21,.14,.42,.25,.6l-3.65,3.65c-.99-1.17-1.63-2.64-1.76-4.25Zm13.38,4.25l-3.65-3.65c.11-.19,.19-.39,.25-.6h5.16c-.14,1.61-.77,3.08-1.76,4.25Z"/><path class="cls-13" d="M217.52,84.77c-5.38,0-9.76-4.38-9.76-9.76s4.38-9.76,9.76-9.76,9.76,4.38,9.76,9.76-4.38,9.76-9.76,9.76Zm0-18.68c-4.92,0-8.92,4-8.92,8.92s4,8.92,8.92,8.92,8.92-4,8.92-8.92-4-8.92-8.92-8.92Z"/><path class="cls-6" d="M217.52,84.1c-5.01,0-9.08-4.07-9.08-9.08s4.07-9.08,9.08-9.08,9.08,4.07,9.08,9.08-4.08,9.08-9.08,9.08Zm0-17.39c-4.58,0-8.31,3.73-8.31,8.31s3.73,8.31,8.31,8.31,8.31-3.73,8.31-8.31-3.73-8.31-8.31-8.31Z"/><path class="cls-11" d="M195,65.26c-5.38,0-9.76,4.38-9.76,9.76s4.38,9.76,9.76,9.76,9.76-4.38,9.76-9.76-4.38-9.76-9.76-9.76Zm7.57,9.11h-5.16c-.06-.21-.14-.42-.25-.6l3.65-3.65c.99,1.17,1.62,2.64,1.76,4.25Zm-7.57,1.85c-.67,0-1.21-.54-1.21-1.21s.54-1.21,1.21-1.21,1.21,.54,1.21,1.21-.54,1.21-1.21,1.21Zm1.25-3.37c-.19-.11-.39-.19-.6-.25v-5.16c1.61,.14,3.08,.77,4.25,1.76l-3.65,3.65Zm-1.89-.25c-.21,.06-.42,.14-.6,.25l-3.65-3.65c1.17-.99,2.64-1.63,4.25-1.76v5.16Zm-.6,4.57c.19,.11,.39,.19,.6,.25v5.16c-1.61-.14-3.08-.77-4.25-1.76l3.65-3.65Zm1.89,.25c.21-.06,.42-.14,.6-.25l3.65,3.65c-1.17,.99-2.64,1.63-4.25,1.76v-5.16Zm-6.45-7.31l3.65,3.65c-.11,.19-.19,.39-.25,.6h-5.16c.14-1.61,.77-3.08,1.76-4.25Zm-1.76,5.54h5.16c.06,.21,.14,.42,.25,.6l-3.65,3.65c-.99-1.17-1.63-2.64-1.76-4.25Zm13.38,4.25l-3.65-3.65c.11-.19,.19-.39,.25-.6h5.16c-.14,1.61-.77,3.08-1.76,4.25Z"/><path class="cls-13" d="M195,84.77c-5.38,0-9.76-4.38-9.76-9.76s4.38-9.76,9.76-9.76,9.76,4.38,9.76,9.76-4.38,9.76-9.76,9.76Zm0-18.68c-4.92,0-8.92,4-8.92,8.92s4,8.92,8.92,8.92,8.92-4,8.92-8.92-4-8.92-8.92-8.92Z"/><path class="cls-6" d="M195,84.1c-5.01,0-9.08-4.07-9.08-9.08s4.07-9.08,9.08-9.08,9.08,4.07,9.08,9.08-4.08,9.08-9.08,9.08Zm0-17.39c-4.58,0-8.31,3.73-8.31,8.31s3.73,8.31,8.31,8.31,8.31-3.73,8.31-8.31-3.73-8.31-8.31-8.31Z"/><path class="cls-11" d="M311.04,65.26c-5.38,0-9.76,4.38-9.76,9.76s4.38,9.76,9.76,9.76,9.76-4.38,9.76-9.76-4.38-9.76-9.76-9.76Zm7.57,9.11h-5.16c-.06-.21-.14-.42-.25-.6l3.65-3.65c.99,1.17,1.62,2.64,1.76,4.25Zm-7.57,1.85c-.67,0-1.21-.54-1.21-1.21s.54-1.21,1.21-1.21,1.21,.54,1.21,1.21-.54,1.21-1.21,1.21Zm1.25-3.37c-.19-.11-.39-.19-.6-.25v-5.16c1.61,.14,3.08,.77,4.25,1.76l-3.65,3.65Zm-1.89-.25c-.21,.06-.42,.14-.6,.25l-3.65-3.65c1.17-.99,2.64-1.63,4.25-1.76v5.16Zm-.6,4.57c.19,.11,.39,.19,.6,.25v5.16c-1.61-.14-3.08-.77-4.25-1.76l3.65-3.65Zm1.89,.25c.21-.06,.42-.14,.6-.25l3.65,3.65c-1.17,.99-2.64,1.63-4.25,1.76v-5.16Zm-6.45-7.31l3.65,3.65c-.11,.19-.19,.39-.25,.6h-5.16c.14-1.61,.77-3.08,1.76-4.25Zm-1.76,5.54h5.16c.06,.21,.14,.42,.25,.6l-3.65,3.65c-.99-1.17-1.63-2.64-1.76-4.25Zm13.38,4.25l-3.65-3.65c.11-.19,.19-.39,.25-.6h5.16c-.14,1.61-.77,3.08-1.76,4.25Z"/><path class="cls-13" d="M311.04,84.77c-5.38,0-9.76-4.38-9.76-9.76s4.38-9.76,9.76-9.76,9.76,4.38,9.76,9.76-4.38,9.76-9.76,9.76Zm0-18.68c-4.92,0-8.92,4-8.92,8.92s4,8.92,8.92,8.92,8.92-4,8.92-8.92-4-8.92-8.92-8.92Z"/><path class="cls-6" d="M311.04,84.1c-5.01,0-9.08-4.07-9.08-9.08s4.07-9.08,9.08-9.08,9.08,4.07,9.08,9.08-4.08,9.08-9.08,9.08Zm0-17.39c-4.58,0-8.31,3.73-8.31,8.31s3.73,8.31,8.31,8.31,8.31-3.73,8.31-8.31-3.73-8.31-8.31-8.31Z"/><path class="cls-11" d="M288.53,65.26c-5.38,0-9.76,4.38-9.76,9.76s4.38,9.76,9.76,9.76,9.76-4.38,9.76-9.76-4.38-9.76-9.76-9.76Zm7.57,9.11h-5.16c-.06-.21-.14-.42-.25-.6l3.65-3.65c.99,1.17,1.62,2.64,1.76,4.25Zm-7.57,1.85c-.67,0-1.21-.54-1.21-1.21s.54-1.21,1.21-1.21,1.21,.54,1.21,1.21-.54,1.21-1.21,1.21Zm1.25-3.37c-.19-.11-.39-.19-.6-.25v-5.16c1.61,.14,3.08,.77,4.25,1.76l-3.65,3.65Zm-1.89-.25c-.21,.06-.42,.14-.6,.25l-3.65-3.65c1.17-.99,2.64-1.63,4.25-1.76v5.16Zm-.6,4.57c.19,.11,.39,.19,.6,.25v5.16c-1.61-.14-3.08-.77-4.25-1.76l3.65-3.65Zm1.89,.25c.21-.06,.42-.14,.6-.25l3.65,3.65c-1.17,.99-2.64,1.63-4.25,1.76v-5.16Zm-6.45-7.31l3.65,3.65c-.11,.19-.19,.39-.25,.6h-5.16c.14-1.61,.77-3.08,1.76-4.25Zm-1.76,5.54h5.16c.06,.21,.14,.42,.25,.6l-3.65,3.65c-.99-1.17-1.63-2.64-1.76-4.25Zm13.38,4.25l-3.65-3.65c.11-.19,.19-.39,.25-.6h5.16c-.14,1.61-.77,3.08-1.76,4.25Z"/><path class="cls-13" d="M288.53,84.77c-5.38,0-9.76-4.38-9.76-9.76s4.38-9.76,9.76-9.76,9.76,4.38,9.76,9.76-4.38,9.76-9.76,9.76Zm0-18.68c-4.92,0-8.92,4-8.92,8.92s4,8.92,8.92,8.92,8.92-4,8.92-8.92-4-8.92-8.92-8.92Z"/><path class="cls-6" d="M288.53,84.1c-5.01,0-9.08-4.07-9.08-9.08s4.07-9.08,9.08-9.08,9.08,4.07,9.08,9.08-4.08,9.08-9.08,9.08Zm0-17.39c-4.58,0-8.31,3.73-8.31,8.31s3.73,8.31,8.31,8.31,8.31-3.73,8.31-8.31-3.73-8.31-8.31-8.31Z"/></g><text class="cls-7" transform="translate(195.47 61.56)"><tspan class="cls-8" x="0" y="0">H</tspan><tspan class="cls-5" x="9.08" y="0">o</tspan><tspan class="cls-14" x="17.31" y="0">l</tspan><tspan class="cls-4" x="23.1" y="0">l</tspan><tspan class="cls-12" x="28.12" y="0">y</tspan><tspan class="cls-9" x="35.04" y="0">hi</tspan><tspan class="cls-1" x="46.77" y="0">l</tspan><tspan x="52.56" y="0">l </tspan><tspan class="cls-3" x="61.15" y="0">R</tspan><tspan x="69.01" y="0">a</tspan><tspan class="cls-9" x="75.94" y="0">i</tspan><tspan class="cls-14" x="79.66" y="0">l</tspan><tspan class="cls-8" x="85.46" y="0">r</tspan><tspan class="cls-14" x="92.34" y="0">o</tspan><tspan x="100.6" y="0">ad</tspan></text></svg>