<?xml version="1.0" encoding="UTF-8"?><svg id="Layer_1" xmlns="http://www.w3.org/2000/svg" xmlns:xlink="http://www.w3.org/1999/xlink" viewBox="0 0 340.48 309.56"><defs><style>.cls-1{fill:url(#bluegreen1);}.cls-2{fill:#a6a397;}.cls-3{fill:#f2cc8f;}.cls-4{fill:#d1b17b;}.cls-5{fill:#ba9d6e;}.cls-6{fill:#b8996b;}.cls-7{fill:#bb9d6e;}.cls-8{fill:url(#bluegreen1-3);}.cls-9{fill:#e5c187;}.cls-10{fill:#be1e2d;}.cls-11{fill:#b7986b;}.cls-12{fill:#937b56;}.cls-13{fill:#d4b17c;}.cls-14{fill:#a00417;}.cls-15{fill:url(#bluegreen1-4);}.cls-16{fill:#d2b17b;}.cls-17{fill:#d1b07b;}.cls-18{fill:#feedd9;}.cls-19{fill:#a7a397;}.cls-20{fill:url(#bluegreen1-5);}.cls-21{fill:#f3cc8e;}.cls-22{fill:#8c4d3b;}.cls-23{fill:#e4c087;}.cls-24{fill:#bd9f70;}.cls-25{fill:#8d4e3c;}.cls-26{fill:#b99c6d;}.cls-27{fill:#eadac6;}.cls-28{fill:#ddba82;}.cls-29{fill:#ba9c6d;}.cls-30{fill:#78a48e;}.cls-31{fill:#63362a;}.cls-32{fill:#2ea0bf;}.cls-33{fill:url(#bluegreen1-2);}.cls-34{fill:#d37259;}.cls-35{fill:#8b897f;}.cls-36{fill:#e18065;}.cls-37{fill:#e2a700;}.cls-38{fill:#d37359;}.cls-39{fill:#e0bc84;}.cls-40{fill:#ba9c6e;}.cls-41{fill:#8c8a80;}.cls-42{fill:#ffc200;}.cls-43{fill:#ce745b;}.cls-44{fill:#9e9b90;}.cls-45{fill:#d47259;}.cls-46{fill:#d3b17c;}.cls-47{fill:#e17a5f;}.cls-48{fill:#d0af7a;}.cls-49{fill:#c6c6c6;}.cls-50{fill:#987f59;}.cls-51{fill:#8d8a80;}.cls-52{fill:#bb9e6f;}.cls-53{fill:#709984;}.cls-54{fill:#4b2a20;}</style><linearGradient id="bluegreen1" x1="112.27" y1="74.07" x2="275.55" y2="74.07" gradientTransform="matrix(1, 0, 0, 1, 0, 0)" gradientUnits="userSpaceOnUse"><stop offset="0" stop-color="#3aa4e3"/><stop offset=".75" stop-color="#8ebd69"/></linearGradient><linearGradient id="bluegreen1-2" x1="47.43" y1="257.04" x2="22.87" y2="271.23" xlink:href="#bluegreen1"/><linearGradient id="bluegreen1-3" x1="46.39" y1="172.84" x2="41.62" y2="168.07" xlink:href="#bluegreen1"/><linearGradient id="bluegreen1-4" x1="65.36" y1="257.97" x2="43.11" y2="270.82" xlink:href="#bluegreen1"/><linearGradient id="bluegreen1-5" x1="112.55" y1="90.36" x2="263.89" y2="90.36" xlink:href="#bluegreen1"/></defs><path class="cls-44" d="M89.55,286.26c.6-.3,1.2-.2,1.8-.2,11.9,0,23.9-.4,35.8-.3,8.2,.1,16.3,.1,24.5,.3,10.5,.2,21,.5,31.5,.8,8.7,.3,17.3,.6,26,1.1,10.6,.6,21.3,1.2,31.9,1.9,11.4,.8,22.7,1.9,33.9,3.6,5.3,.8,10.6,1.2,15.7,3,1.1,.4,2.2,.7,3.1,1.5,1.6,1.3,1.6,3-.1,4.3-1.3,1-2.9,1.4-4.5,1.8-5.4,1.3-11,1.9-16.5,2.5-12.8,1.3-25.5,2-38.4,2.3-5.3,.1-10.5,.3-15.8,.4-15,.3-30,.4-45,.2-11-.1-22-.3-33.1-.6-8.3-.2-16.6-.5-24.9-.8-7.9-.3-15.7-.7-23.6-1.1-.4,0-.7-.1-1.1-.2-.1-1.1,.8-1.6,1.4-2.2,2.8-2.9,4.3-6.4,4.2-10.5-.1-2.1-.6-4.2-1.6-6.1-.5-1-1.2-1.4-2.3-1.4-.8,.2-1.9,.6-2.9-.3Z"/><path class="cls-10" d="M26.45,168.66c-.9-.3-1.8,.1-2.6,.4-4.1,1.4-8.3,1.9-12.6,1.9-6.9,0-11.8-5.2-11.2-12.1,.4-4.1,1.5-8,2.8-11.8,1.3-4,4.3-6.8,7-9.8,4.7-5.2,10.3-9.5,16.1-13.4,.8,0,1,.6,1.2,1.1,1.5,3,3.5,5.7,5.5,8.5,.4,.5,1,1,.7,1.8-3.9,2.4-7.4,5.4-10.2,9-1,1.2-1.7,2.7-1.8,4.3-.1,1.7,.6,2.5,2.3,2.6,2.7,.1,5.2-.7,7.5-1.9,.7,1.2,.7,2.6,1.4,3.9,1.4,2.5,2.9,4.8,4.4,7.2,.3,.5,.7,1,.8,1.6,.2,1.4,.8,2.1,2.2,2.2,1.4,.1,2.5-.4,3.6-1.2,1.3-1.1,2.6-2.2,3.7-3.5,.3-.4,.8-1.2,1.4-.2-.4,2.4-1,4.7-1.7,7-.4,.5-.9,.3-1.4,.1-.9-.3-1.5,0-2.1,.7-1.7,1.8-2.5,4-2.9,6.5-.2,1.2,.6,2.1,1.4,2.8,2.3,1.5,4.7,1.2,7.2-1,.4-.4,.8-1.2,1.6-.6,.4,.6,.3,1.3,.3,2-.4,6.3-.4,12.6,0,18.9,.1,2.5,.2,5.1,.3,7.6,.2,6.3,.6,12.7,.7,19,.1,5.1,.8,10.3,1.4,15.4,.2,1.6,.3,3.2,.5,4.8,.2,1.9,.1,2-1.7,2.3-.2,0-.4,.1-.5,.1-6.6,1.8-13.4,2.9-20.2,3.8-1.5,.2-3,.5-4.5-.2-1.3-.3-2-1.2-2.2-2.5-.9-4.1-.7-8.3-.4-12.4,.3-5.5,1-11,1.5-16.5,.8-9.2,1.5-18.4,1.4-27.6,0-2.8-.4-5.5-.2-8.3,1.4-4.5,3.7-8.6,6.3-12.5,.4-.6,.8-1.1,1.2-1.7,.3-.4,.5-1,.1-1.4s-.9-.2-1.3,0c-1.8,.9-3.5,1.9-5.3,2.7-.5,.2-1,.7-1.7,.4Z"/><path class="cls-1" d="M275.55,40.46c-.1,.8-.5,1.6-.8,2.4-1.6,.8-3.1,1.7-4.7,2.6-3,1.8-3.8,5.3-.3,7.5,.1,.8-.2,1.3-.8,1.8-2.7,.3-4,1.5-4.6,4-.7,3,0,5.1,2.6,6.9,.4,.6,.2,1-.3,1.4-2.3,.5-3.2,1.5-3.5,4.1-.3,2.3,.5,3.8,2.4,4.8l.6,.3c.4,.6,.2,1.1-.3,1.6-1.3,.6-2.1,1.8-2.6,3-.7,1.5-.9,3.2-.8,4.8,0,1.1,.3,2.2,1.7,2.5,.5,.7,.4,1.2-.4,1.3h0v.3c-3.7,.9-6.3,3-7.3,6.7-.2,.8-.4,1.6,.2,2.4,.3,.8-.2,1.2-.9,1.4-4.1-1-7.3,.4-9.8,3.6-1,1.3-1.2,2.8-1,4.4,.2,.9-.2,1.5-1.1,2-8.5,1.2-16.9,0-25.3-1.5-5.9-1-12-1.6-18-2.3-14.4-1.7-28.6-4.4-42.3-9.3-9-3.2-17.8-6.6-26.3-10.9-7-3.5-12.9-8.5-18.4-14.1-.6-.4-1.1-.9-1.1-1.7l.1-.1c0-.5-.2-1.1,.2-1.5-.6-.4-.6-.9-.2-1.5,3.3-2.3,6.8-4.4,10.3-6.4,10.3-5.8,21.1-10,32.3-13.6,10.8-3.4,21.8-5.7,33.1-6.9,9.5-1.1,19-2.2,28.5-2.7,9.4-.5,18.8-.4,28.2-.2,9.3,.2,18.7,.8,28,2.1,1,.1,1.9,.3,2.6,.8Z"/><path class="cls-10" d="M87.65,248.06c-2.9,0-5.7-.7-8.5-1-4.3-.4-8.5-.6-12.8-.7-1.6,.6-3.1,.1-4.7,.2-1.3,.1-2.5-.2-3.8-.3-.6,0-1.3-.2-1.6-.8-.4-1.3-.3-2.6-.1-3.9,.3-.7,.7-.4,1.1-.2,.6,.4,1.2,.6,1.7,0s.5-1.3,.2-1.9c-.4-.7-1-.7-1.7-.4-.5,.2-.9,.5-1.3-.2-.4-.9-.4-1.8-.4-2.7-.1-4.7-.8-9.4-1-14-.3-6.4-1.4-12.7-1.7-19.1-.1-1.3,.2-2.6,.2-3.9,.1-3.6-.4-7.2-.3-10.8,.2-4.1,.2-8.1-.4-12.1-.2-1.5,.9-2.4,1.5-3.4,.3-.5,.7-.5,1.2-.2,.8,.4,1.5,.2,1.8-.6,.3-.8-.1-1.4-.9-1.7-.3-.1-.7-.2-.9-.5-.3-.9-.5-1.8-.8-2.6-.3-.8-.2-1.6,.5-2.3,.7-.4,1.1,.2,1.5,.6,4.7,5.4,10,10.2,15.5,14.7,.5,.4,1.1,.7,1.1,1.5-.9,8.7,2.8,16.3,6.4,23.8,1.1,2.2,2.2,4.4,2.1,6.9-.1,5.8,1.3,11.2,2.7,16.7,.4,1.6,.6,3.3,.8,4.9,.4,3.9,1.9,7.5,2.8,11.3,.1,.9,.6,1.8-.2,2.7Z"/><path class="cls-10" d="M35.85,117.26c1.5-1.1,1.4-1,.4-2.5-2.8-4.1-4.8-8.6-5.8-13.5-1.4-6.6-.9-13,.5-19.6,1.8-8.2,6.7-13.6,13.9-17.2,5.9-3,12.3-4.8,19-4.8,4.8,0,9.5,1,14.1,2.5,7.1,2.3,13.7,5.9,20.4,9.2-.1,.6-.5,1.1-.9,1.5-5.8,6.4-12.1,12.4-18.9,17.8-3.7,3-7.2,6.3-10.8,9.5-.7,.6-1.5,1.2-2.3,1.8-.4,.3-.7,.8-1.3,.5-.3-.6,.2-1.1,.4-1.5,.7-1.3,1.6-2.5,2.4-3.7,.7-1,1.3-2.1,1.7-3.3,1-2.9,1.7-6,1.7-9.1,0-5.6-1.3-10.7-6.5-13.9-2.2-1.2-4.5-1.9-6.9-2.5-4.3-.8-8,.3-11.3,3-1.1,.9-2.3,1.9-3.2,3-2.6,3.1-3.5,6.8-3.7,10.6-.4,7.6,1.7,14.5,6.4,20.5,.5,.6,.9,1.3,1.8,1.5,.1,0,.3,.1,.4,.2,.9,.7,1.4,1.8,2.2,2.6,1.3,1.4,2.8,2.2,4.7,2.4,.5,.1,1,.1,1.4,.5,1.4,.7,2.3,1.9,3.5,2.8,2,2.4,3.5,2.8,6.5,1.7,1.1-.4,2-1.4,3.3-1,.2,1.3-.7,2.3-1,3.4-2.7,1.3-5.5,2.2-8.6,1.9-.8-.1-7.1-1.8-8.1-3.1-.5-.6-.7-1.4-1-2.1s-.4-1.4-1.1-2c-.4,.9-.1,1.6,.2,2.3,.5,1.2,1,2.3,1.9,3.2,.4,.4,.8,.8,.8,1.4-.5,5.4-.5,10.9-.7,16.3-.5,1.2-1,.3-1.4-.1-1.3-1.7-2.8-3.4-3.9-5.3-2.8-4.6-6.1-8.9-9.3-13.3-.8-.4-1.6-.8-.9-1.6Z"/><path class="cls-14" d="M87.65,248.06c.1-2-.7-3.8-1.2-5.6-1.2-3.6-1.9-7.2-2.3-10.9-.4-3-1.4-5.8-2-8.7-.6-2.8-1.1-5.7-1-8.6,0-3.1-.7-5.9-2.2-8.7-3-5.4-4.9-11.3-6.3-17.3-.5-2.3-.5-4.6,.2-6.9,.5-.2,.8,.2,1.1,.4,4,2.9,7.7,6.1,12,8.6,.6,.3,1,.8,1.1,1.5,.9,1.4,1.7,2.7,2.6,4.1,.5,.8,.8,1.7,.9,2.7,.1,2.5,1,4.4,3.2,5.8,1.8,1.1,2.9,2.9,3.6,4.9,.6,1.7,1.1,3.5,1.4,5.3,.4,2.8,1.6,5.3,3.8,7.2,.8,.7,1.5,1.5,2.1,2.4,1.6,2.4,2.7,5.1,3.5,7.8,.1,.5,.2,1,.3,1.5,.6,2.7,1.9,4.8,4.5,5.9,.8,.4,1.6,.9,2.5,1.2,2.9,1,4.5,3.7,6.8,5.5,1.2,1,.1,2.6-1.9,2.8-2.1,.2-4.1,.5-6.2,.3-6.2-.8-12.4-.4-18.6-.6-2.8-.2-5.4,0-7.9-.6Z"/><path class="cls-14" d="M79.35,123.56c1.4,1.6,3,3,4,4.9,1.2,.9,1.7,2.3,2.4,3.6,1,2,2.2,3.8,3.5,5.6,3.4,6.7,5.7,13.8,6.2,21.4,.1,1.9,.2,3.8-.3,5.6-1,3.5-3,6.4-5.8,8.8-2.1,1.8-4.6,1.6-7.1,1-.3-.1-.5-.1-.8-.2-2.5-.5-4.5-2-6.8-3.1-.3-.2-.6-.4-.8-.8-.3-1.5-.1-3-.4-4.5-1.3-6.1-2.5-12.3-5.4-18-.4-.8-.6-1.6,.1-2.3,.7-.7,1.4-.4,2.2,0,2.3,1.2,4.7,2.3,6.9,3.9,.5,.3,1,.7,1.5,1,.5,.2,.9,.4,1.4,0,.4-.4,.3-.8,.2-1.3-1.2-5.7-3-11.1-5.5-16.3-.5-1-.9-2.5-1.9-2.6s-1.4,1.4-2,2.2c-1.3,1.8-2.2,4-3.5,5.8-.5,.7-.4,1.3,.1,1.9,.6,.8,.9,1.7,1.1,2.7,.3,1.6-.3,3-1.6,3.9-1,.7-1.8,.5-2.5-.5,.6-1.4,0-2.4-1-3.3-.6-.6-1.4-1-1.7-1.9,0-.8,.5-1.3,.9-2,2.7-4.9,5.9-9.6,9.1-14.3,.4-.6,.9-1.3,1.8-1.4,1.6,.2,3.1,.5,4.7,0,.2-.2,.7-.2,1,.2Z"/><path class="cls-35" d="M89.55,286.26c1.2,0,2.5,.1,3.7,0,.9,0,1.4,.3,1.8,1,3.3,5.3,2.5,12.8-1.9,17.2-.7,.8-1.6,1.4-2.2,2.3-4.2,0-8.5-.4-12.7-.7-7.1-.5-14.2-1.1-21.4-1.8-11-1.1-22-2.1-32.8-4.7-1.6-.4-3.2-.9-4.7-1.6-.8-.4-1.6-.8-1.9-1.7,.1-.1,.3-.1,.4-.1,2.6,1.3,5.1,2.5,8.1,2.6,1.4,.1,2.9,0,4.3-.2,3.8-.5,7.5-1.3,10.9-3.3,1.4-.8,2.1-1.8,2.3-3.3,.2-1.2,0-2.5,.6-3.7,.9-.7,1.8-.6,2.8-.3,.7,.7,.5,1.6,.5,2.4,0,1.5,.3,2.9,1.1,4.2,.6,1.2,1.7,1.8,2.8,2.4,5.5,3,10.9,2.2,16.3-.3,.4-.2,.8-.4,1.2-.7,3.1-1.7,4.7-4.3,4.6-7.9,0-.7-.2-1.6,.9-1.6,5.2,.1,10.2-.2,15.3-.2Z"/><path class="cls-14" d="M64.05,102.46c1.8-1,3.3-2.4,4.9-3.8,5.1-4.6,10.3-9,15.5-13.4,4.9-4.1,9.2-8.7,13.4-13.5,.1-.1,.3-.2,.4-.3,2.1,.8,4.1,1.7,6.1,2.8,.1,.7-.5,1.1-.9,1.5-3.3,3.6-6.6,7.2-9.7,11-5.5,6.8-10.4,13.9-15.4,21.1-1.2,1.7-2.5,3.4-3.7,5.2-.2,.4-.6,.7-1,.9-3.2-.1-6,1-8.8,2.3-1.6,.8-3.4,.9-4.9-.5-.6-.6-1-.3-1.4,.1-.1,0-.3,0-.4-.1-.8-1.1-2.1-1.8-3-2.8,0-.9,.7-1.4,1.2-1.9,2.3-2.6,4.6-5.1,6.6-7.9,.3-.4,.6-.7,1.1-.7Z"/><path class="cls-33" d="M26.35,277.26c-.4-1.6,.2-3.2,.2-4.8,.1-7.3,.4-14.5,.3-21.8,0-.7-.1-1.4,.2-2,.6,.5,.5,1.2,.5,1.8,.1,1.3,.2,1.4,1.5,1.1,3.3-.9,6.6-1.9,10.1-2.3,.9-.1,1.8-.1,2.8-.2,.9,0,1.3,.4,1.4,1.3v1c.1,8.7,.5,17.4,1.3,26,.1,.6,.1,1.1-.3,1.6-.4,.3-.8,.4-1.3,.4-4.6,.2-9.2-.1-13.8-.8-1.1-.1-2.3-.2-2.9-1.3Z"/><path class="cls-28" d="M88.75,137.66c-2.3-2.7-3.7-6.1-5.5-9.2,7,2.3,13.8,4.8,20.4,8.1,.3,.2,.7,.4,1,.3,3.3-1,6.7-.5,10-.5,4-.1,7.9-.1,11.9,.1s7.9,.1,11.9,.2h1.2c3.8,0,4,.2,3.2,3.9-7.8-.1-15.7-.5-23.5-.4-4,.1-7.9,.1-11.9,.6,4-.4,8.1-.5,12.1-.6,7-.1,14.1,.3,21.2,.2,.8,0,1.4,.3,2.2,.4,1.8,1.2,3.6,2.5,5.5,3.7-.3,.9-1.1,.7-1.7,.7-2.5,0-5.1-.1-7.6-.2-6.6-.2-13.2-.2-19.8,0-2.8,.1-5.5,.3-8.3,.5q-2.1,.2-2.6,2.2l-.3,.6c-.6,.2-.6-.3-.7-.6-.2-.5-.1-1.1-.2-1.6-2-1.3-4.3-2.1-6.5-2.9-.1,0-.3-.1-.4-.1-3.6-1.2-6.8-3.3-10.4-4.5-.5-.3-.8-.7-1.2-.9Z"/><path class="cls-23" d="M150.05,173.86c4,.2,8-.4,12-.5,2.2,0,4.4-.1,6.6-.1,1.1,0,1.7,.7,1.8,1.7,.1,.9,0,1.8-.4,2.5-.9,1.5-.8,3-.4,4.7,.6,2.3-.1,3.2-2.5,3.3-3.4,.1-6.8-.1-10.2,.3-2.1,.2-4.1-.7-6.2-.6-.1,.1-.3,.2-.4,.3-5,.4-10.1,1.2-15.1,.5-1.8-.2-2.1-.5-2.1-2.3,0-3.4,.3-6.8,.4-10.2,0-.3,.1-.5,.3-.8,4.5,1.2,9.1,.9,13.7,.6,.8,.1,1.7,0,2.5,.6Z"/><path class="cls-49" d="M288.4,127.76c-2.7,0-5.3,.1-8,0-.8,0-1.7-.1-2.5-.1-29.3,0-58.7,0-88-.1-6.8,0-13.6-.2-20.4-.6-5.9-.3-11.7-.9-17.6-1.4-.7-.1-1.4-.2-2-.4-.3-.1-.7-.2-.7-.6s.4-.5,.7-.6c1.1-.3,2.2-.6,3.4-.6,4.5,0,9.1-.2,13.6,0,6.5,.3,13.1,.1,19.6,.2,11.9,.1,23.9,.1,35.8,.4,5.5,.1,11,.1,16.5,.2,5.5,.2,11,.3,16.6,.6,6.2,.3,12.4,.6,18.6,1.1,4.5,.3,9,.9,13.4,1.4,.3,.1,.7,.2,1,.5Z"/><path class="cls-32" d="M44.25,278.76c-.4-4.9-.7-9.9-1.1-14.8v-.6c.1-4.3-.5-8.5-.3-12.8,0-.9-.2-1.2-1.2-1.2-4.3,.1-8.3,1.4-12.4,2.5-.3,.1-.5,.2-.8,.3-1,.3-1.7,.3-1.5-1.1,.1-.8,0-1.7,0-2.5v-.2c4.7,0,9.3-1.1,14-1.7,3.6-.5,7-1.7,10.5-2.3,1.2,0,2.4-.3,3.5,.1,.5,.2,1.1,.4,1.4,.9,2,.7,4,.6,6.1,.7,1.3,.1,2.6,0,4,.3,.4,9.2-.2,18.3-.7,27.4-.1,1.2,.1,2.4,.3,3.6,.3,1.1-.4,1.3-1.2,1.4-.9,.1-1.8,0-2.6-.5-.4-.5-.5-1.2-.6-1.8-.7-4.2-1.1-8.5-1.1-12.8s-.5-8.5-.3-12.7c0-1.1-.3-1.6-1.5-1.6-2.6,.1-5.1-.5-7.7-.1-1.1,.2-1.7,.5-1.8,1.8-.4,5.6-.8,11.2-1.3,16.8-.2,2.3-.2,4.6-.3,6.9-.1,.4-.1,.8-.1,1.2-.1,1.9-.4,2.4-2.3,3.1-.5,.1-.8,.1-1-.3Z"/><path class="cls-21" d="M150.55,185.26h.3c.1,3.8,0,7.5-.2,11.3-.1,1.2-.5,1.8-1.7,1.8-2.1-.1-4.1-.3-6.2-.5-.7-.1-1.5-.2-2.2,.1-2.5,.9-5.1,.4-7.7,.1-4.4-.5-8.9-.9-13.3-1.3-3.7-.4-7.4-.6-11.2-.8-.9-.1-1.4-.5-1.5-1.5-.4-2.8-.3-5.5-.3-8.3,0-1.3,.6-1.8,1.9-1.4,3.6,.8,7.3,1.1,10.9,1.7,.6,.1,1.1,.2,1.5,.6,.5,.6,.8,1.2,1.3,1.8,.7,.6,1.6,.7,2.4,.7h6.2c.9,0,1.6-.2,2.2-1,.7-1.1,1.8-1.3,3-1.3,3.7,0,7.4-.1,11,0,1.8,.1,3.2,.1,3.6-2Z"/><path class="cls-23" d="M150.55,153.16c.6,.6,1.1,0,1.7,0,4.5-.3,8.9-.7,13.4-.6,.8,0,1.6-.3,2.5,0,1.6,.5,2.2,1.6,1.8,3.2-.2,.5-.3,1.1-.6,1.6-.8,1.3-1,2.7-.9,4.2,.2,2.9-.7,3.7-3.7,3.8-4.9,.2-9.7,.3-14.6,0-.4,.4-1,.5-1.5,.5-3.6-.6-7.2,.2-10.8,0-.7,0-1.4,0-2.1-.1s-1.3-.5-1.3-1.2c-.1-3.2,.1-6.4,.4-9.6,0-.3,.2-.5,.4-.7,1.5-.7,3.1-.6,4.7-.7,3.1-.1,6.1-.1,9.2-.6,.4,0,.9-.1,1.4,.2Z"/><path class="cls-42" d="M17.85,296.36h-.3c-3.8-2.8-4.9-6.4-3.6-10.8,1.1-3.7,3.9-5.7,7.2-7.1,1.2-.5,2.5-.9,3.9-.9,1.2,.3,2.2,1.1,3.4,1.5,2.1,.6,4.2,1.2,6.4,1.1,1.6,0,2,.4,1.8,2-.6,3.6-.6,7.2-.6,10.9,0,2.1-.2,2.5-2.3,3.2-5.2,1.7-10.6,1.5-15.9,.1Z"/><path class="cls-21" d="M150.55,153.16c-1.9,.6-3.9,.7-5.8,.7-3.1,.1-6.2,.3-9.4,.3-.7-.4-.7-1.2-.9-1.9-.2-.7-.6-1.3-1.4-1.4-2.6-.7-5.2-.4-7.8-.2-1.3,.1-1.8,1-1.9,2.2-.1,.8,.1,1.6-.8,2.1-4.5,0-9,.6-13.2-1.6-.6-.3-1.3-.5-1.6-1.2-.3-1.4-.6-2.8,.3-4.1l.3-.6c.3-2.6,.3-2.5,2.8-2.7,9.5-.8,18.9-.6,28.4-.5,2.6,0,5.2,.2,7.9,.2,.4,0,.9,.1,1.3-.2,1.6,1,1.8,2.6,1.9,4.2,0,1.6-.1,3.2-.1,4.7Z"/><path class="cls-14" d="M109.25,76.46c3.3,2.2,4.4,4.9,3.2,9.4-1.3,4.8-4,8.8-7.7,12.1-3.6,3.2-7.7,5.8-12.1,8-3.9,2-7.6,4.3-11.6,6.1-.3-.6,.2-1.1,.5-1.5,5.8-8.4,11.6-16.7,18.2-24.5,2.6-3.1,5.5-6.1,8.3-9.1,.2-.4,.6-.8,1.2-.5Z"/><path class="cls-28" d="M74.15,170.36c2.3,1.3,4.6,2.8,7.2,3.5,1.6,2.2,3.8,3.7,6.1,5,.6,.3,1.2,.6,1.6,1.1,2.2,2.2,5.1,3.1,7.9,4.2,.7,.3,1.5,.4,2,1.1,.1,.3,.1,.6,0,1-.8,2.9,.6,5,2.6,6.8,1.7,1.6,3.7,2.7,5.4,4.3,.2,.2,.4,0,.6,.1,.3,.3,.6,.8,.5,1.2-.2,.5-.8,.2-1.2,.3-.4,0-.9,.1-1.3-.1-4.1-.1-7.7-1.7-11.3-3.3-3.3-2.2-6.1-4.8-9-7.5-6.7-6.2-12.7-13-18.3-20.1-.5-.6-1-1.3-1.7-1.6-2.7-1.3-5-3.3-7.5-4.9-.8-.5-1.2-.5-1.5,.4s-.5,1.9-1.3,2.5c-1.5-.4-2-1.7-2.7-2.9,.4-1.9,1.1-3.6,2-5.2,.6-.2,1.3-.1,1.9,0,.1,0,.3,.1,.4,.2,.3,1,1,1.7,1.8,2.3,4.8,3.8,9.7,7.5,14.9,10.7,.2,.2,.6,.5,.9,.9Z"/><path class="cls-49" d="M210.55,265.57c-.7,.6-1.2,.4-1.7,.5-4.8,0-9.6-.1-14.4,.1-9.3,.3-18.6,.4-27.9,.6-4.6,.1-9.1,0-13.7,.2-5.5,.2-11,.1-16.4,.3-10.4,.4-20.8,.2-31.1,.1-2.7,0-5.4,0-8.1-.5-.4-.1-.8,0-.9-.4-.1-.5,.4-.7,.7-.8,1.5-.7,3.1-.7,4.7-.9,2-.2,4-.3,6.1-.3,5.8-.1,11.6-.2,17.4-.3,18.7-.6,37.5-.2,56.2-.2,6.5,0,13.1,.5,19.6,.8,3.1,.1,6.2,.4,9.5,.8Z"/><path class="cls-49" d="M147.86,24.97c-1.81,.14-3.53,.4-5.34,.41-5.72,.13-11.55,.39-17.26,.4-6.51-.04-13.05,.29-19.57,.5-5.02,.18-10.14,.23-15.16,.41-6.13,.23-12.35,.34-18.48,.57-5.02,.18-10.04,.23-15.06,.41-6.02,.12-11.94,.24-17.95,.23-5.81,0-11.52,.01-17.3-.61-1.99-.25-3.99-.26-6.13-1.28,.95-.7,1.74-.52,2.54-.59,1.61-.15,3.22-.17,4.81-.07,5.5,.1,11.03-.04,16.56-.32,3.92-.25,7.93-.24,11.85-.37,4.92-.19,9.85-.5,14.78-.69,2.71-.08,5.42-.15,8.13-.23,6.12-.11,12.15-.35,18.27-.46,3.31-.04,6.53-.21,9.83-.12,6.1,.14,12.12,.15,18.22,.29,3.3,.09,6.59,.3,9.9,.39,4.5,.16,9,.33,13.5,.49,1.29,.21,2.62-.21,3.87,.63Z"/><path class="cls-49" d="M297.58,3c-5.01,0-10.03,.1-14.9,0-8.64-.1-17.27,.2-25.77,.39-5.01,.1-10.03,0-15.04,.2-7.8,.39-15.74,0-23.54,.29-6.69,.29-13.51,.2-20.2,.1-4.46,0-8.91-.1-13.37-.49-.42,0-.84-.1-1.25-.2-.84-.2-1.67-.39-1.53-1.18,0-.59,.7-.88,1.53-1.08,2.65-.69,5.29-.59,7.94-.69,2.23-.1,4.6,0,6.96-.1C215.13-.04,231.98-.04,248.69,.06c7.24,0,14.63,.2,21.87,.59,8.78,.39,17.55,.78,26.19,1.86,.28,0,.7-.1,.84,.49Z"/><path class="cls-37" d="M62.15,278.36c.7,.1,1.3,.2,2,.2,.8,0,1.6,0,1.7-1,3.7,1.6,6,4.4,7.4,8,.2,.5,.2,1.2,1.1,1.2-.2,.2-.7,.2-.6,.8,.5,4.7-1.7,7.7-5.8,9.6-4.6,2.2-9.4,3.2-14.4,1.4-2-.7-4-1.6-5.2-3.6,1-.5,1.9-.1,2.8,.1,3.1,.6,6.1,1.2,9.3,1.1,1.9-.1,2.1-.3,2.4-2.1,.8-4.2,.2-8.3-1.1-12.4-.3-.9-.8-1.2-1.7-1.1-3.3,.5-6.7,.7-10,1.1-2.3,.3-2.6,0-2.5-2.3,.1-.3,.2-.5,.4-.6,.5-.3,1-.3,1.6-.3,3.1,.1,6.1-.2,9.2-.5,1.1-.2,2.3-.5,3.4,.4Z"/><path class="cls-49" d="M166.72,220.91c1.87-.21,3.33-.43,4.8-.43,19.46-.43,38.78-.43,58.23-.21,8.26,.11,16.52,.11,24.92,.21,6.53,.11,13.06,.32,19.72,.64,8,.43,15.99,.96,23.99,1.5,.4,0,.93,0,1.07,.43-.53,.53-1.2,.32-1.87,.32-4.8,0-9.46,0-14.26,.11-11.99,.32-24.12,.43-36.11,.21-9.73-.11-19.46-.11-29.05-.32-8-.11-15.99-.32-23.85-.64-5.6-.21-11.33-.43-16.92-.64-2.93-.11-6-.32-8.93-.53-.67,.11-1.2,0-1.73-.64Z"/><path class="cls-21" d="M150.05,173.86c-3.5,.1-7.1,.4-10.6,.3-1.5-.1-3-.4-4.5-.3-.9,.1-.6-.8-1-1.1-.6-.3-.7-1-1.3-1.3-.2-.1-.5-.3-.7-.4-2.6-.2-5.3-.3-8-.4-1.1,0-1.5,.9-1.9,1.8q-.6,2.1-2.9,1.9c-2.1-.2-4.2,0-6.3-.3-1.7-.3-3.2-1-4.6-1.7-.5-.2-.9-.6-.9-1.1-.1-1.4-.2-2.9,0-4.3,.1-.8,.8-.9,1.5-1,4.4,0,8.8-.2,13.2,.4,.8,.3,1.1,1,1.5,1.6,.4,.5,.8,.7,1.4,.8,2,.5,4.1,.6,6.2,.4,1.1-.1,2.1-.4,2.7-1.4,.6-.8,1.4-1,2.3-1.1,4.4-.1,8.7,.1,13.1-.1,.3,0,.5,.1,.8,.3,0,2.4,0,4.7,0,7Z"/><path class="cls-41" d="M109.25,76.46c-1.8,1.8-3.7,3.5-5.4,5.5-4.5,5-8.7,10.2-12.7,15.7-3.4,4.8-6.9,9.5-10.1,14.5-1,.9-1.6,2-2.3,3-.1,1-.6,1.8-1.5,2.3-.7,.9-1.4,1.8-1.9,2.8,.1,.8-.6,1.3-.9,1.9-.4,.5-.6,1.1-1.2,1.4-1.4,1.3-2.3,3.1-3.4,4.7-2.8,4.2-5.5,8.4-7.9,12.8-.8,.2-1.3-.2-1.8-.8-.2-.6,.1-1.1,.3-1.6,.8-1.6,1.6-3.2,2.6-4.7,2.4-3.7,4.1-7.8,6.5-11.5,2.2-3.4,4.2-7,6.7-10.1,1.9-2.3,3.6-4.8,5.3-7.2,4.7-6.4,9.7-12.7,14.8-18.8,4.5-5.3,9.5-10.2,14.7-14.8,.4-.4,.8-.8,1.4-.8,.8,.2,.8,.9,1.1,1.4-1.4,1.3-3.1,2.5-4.3,4.3Z"/><path class="cls-21" d="M33.35,135.16c-2.7-3.7-5.2-7.4-7.4-11.3-1.3-1.5-.4-2.3,.8-3.3,1.2-1,2.5-1.9,3.8-2.6,1.4,.9,2,2.4,2.8,3.7,3,4.9,6.5,9.3,9.6,14,1.7,2.6,3.6,5.1,5.3,7.8-.2,1.5-.3,3-.6,4.6-.6,.6-.8,0-1-.3-.5-.6-.9-1.2-1.6-1.5-2-1.5-4.2-1.9-6.6-1.7-.9-3-3-5.3-4.5-7.9-.2-.5-.7-.9-.6-1.5Z"/><path class="cls-21" d="M54.65,164.26c.4-1.2,.9-2.3,1.3-3.5,.3-.8,.6-.6,1.1-.3,1.4,1,2.7,2.2,4.3,3,4.5,2.1,7.1,6.1,10.1,9.7,1.6,1.9,3.1,3.7,4.8,5.5,5.3,5.7,10.8,11.1,17,15.9,.3,.2,.5,.6,.8,.9-2.1-.6-4-1.7-5.8-3-.4-.3-.8-.8-1.4-.7-.4-.4-.7-.9-1.3-1.2-4.5-2.7-8.6-6.1-12.8-9.3-3-2.6-6.3-5-9.1-7.8-2.4-2.4-5-4.7-7.2-7.4-.4-.5-.9-1.1-1.5-1.4-.2,.1-.3-.1-.3-.4Z"/><path class="cls-37" d="M17.85,296.36c3.6,.3,7.2,.7,10.8,.5,2.2-.1,4.2-.9,6.2-1.6,.6-.2,.7-.8,.7-1.4v-5.5c-.1-2.2,.3-4.4,.7-6.5,.2-1.2-.2-1.4-1.2-1.3-2.9,.2-5.6-.5-8.3-1.7-.7-.3-1.3-.6-1.8-1.3,.4-.1,.8-.2,1.2-.3,2.2,1.1,4.6,1.1,6.9,1.3,3.7,.4,7.4,.4,11,.3h.8c.5,.4,.4,1,.3,1.5-.4,1.8-.4,3.7-.4,5.6,0,.9-.1,1.7-.6,2.5,0,1.6-.3,3.1-.5,4.6-.1,1-.6,1.5-1.3,2.1-3.7,2.4-7.9,3.4-12.2,4-1.9,.3-3.8,.2-5.8,0-2.3-.4-4.5-1.3-6.5-2.8Z"/><path class="cls-2" d="M112.65,70.66c-3.6,2.9-6.7,6.3-10,9.5-3.9,3.8-7.3,7.9-10.7,12.1-5.9,7.2-11.3,14.6-16.8,22.1-3.1,4.2-5.8,8.6-8.2,13.2-1.9,3.8-4.3,7.3-6.2,11.1-.2,.5-.4,.9-.6,1.4-1.1,.2-1.9-.2-2.7-.9-.2-.7,.1-1.3,.4-1.8,3.1-5.6,6.5-11,10.2-16.1,.4-.5,.8-1.1,1.2-1.7,.9-1.4,1.8-2.7,2.7-4.1,.5-.6,.8-1.4,1.6-1.8,4.5-6.4,9.1-12.9,13.6-19.2,3.4-4.7,7-9.2,10.9-13.5,2-2.2,4-4.4,6-6.6,2.2-1.9,4.1-4.1,6.5-5.9,.5-.4,1-.9,1.7-1,0,.5,0,1,.3,1.4,.2,.6,.2,1.2-.2,1.7,.3-.1,.3,0,.3,.1Z"/><path class="cls-17" d="M107.05,197.46c0,.4-.2,.4-.5,.2-1.7-1.3-3.4-2.6-5.1-4-2.4-2.1-4.2-4.8-2.7-8.4-.4-2-.2-4,.2-6,.4-1,1.1-1,1.9-.6,1.2,.6,2.5,1.1,3.7,1.9,2.9,2,6.2,2.7,9.6,3.1,1.8,.2,3.6,.5,5.3,.7,.6,.1,1.2,.1,1.6,.7,.3,.8,.5,1.7-.3,2.4-.3-.5-.8-.5-1.3-.6-3.2-.4-6.5-.8-9.6-1.4-2.8-.5-2.8-.6-2.8,2.2,0,2.3,0,4.5,.2,6.7,.1,.8,.4,1,1.1,1,5.4,.1,10.7,.8,16,1.1,3.9,.3,7.7,.9,11.6,1.3,.9,.1,1.7,.1,2.6-.1,.6-.2,1.3-.3,1.9,.1l-.6,.6c-.5,.9-1.4,.8-2.2,.7-4.6-.3-9.2-.8-13.8-1.2-4.6-.4-9.2-.7-13.8-1-.9,.2-2,.1-3,.6Z"/><path class="cls-28" d="M48.15,143.16c-1.3-1.1-2.2-2.5-3-3.9-3.1-5-6.9-9.6-10.1-14.6-1.4-2.2-2.9-4.5-4.3-6.7,.7-.6,1.6-.9,2.4-1.3,1.1-.5,1.9,.2,2.8,.6-.1,.2-.1,.4,.1,.6,4.4,5.6,8.3,11.7,12.4,17.5,.7,1,1.5,1.9,2.2,2.8,.6,.3,1,.8,1.2,1.4-1.3,1.3-2.4,2.6-3.7,3.6Z"/><path class="cls-9" d="M107.05,197.46c0-.7,.4-.8,1-.8,3.3,0,6.6,.2,9.9,.5,2.5,.2,5,.4,7.5,.6,3.8,.3,7.7,.7,11.5,1,1,.1,2,.3,3-.2-.6,2.4-1,2.7-3.5,2.8-3.1,.1-6-.6-9-.9-.5-.1-1.1-.1-1.6-.1-4-.1-8,0-12-.3-2.8-.2-5.6-.7-8.4-1h2.5c-.5-.8-.7-1.2-.9-1.6Z"/><path class="cls-14" d="M26.45,168.66c2.2-1.2,4.5-2.3,6.7-3.5,.7-.3,1.5-.8,2,0,.4,.7,.3,1.4-.3,2.2-2.6,3.4-4.7,7-6.3,10.9-.4,.9-.7,1.9-1,2.9-.2,.6-.3,0-.5,0,0-4.2-.7-8.3-.6-12.5Z"/><path class="cls-16" d="M149.95,167.06c-1.4,.4-2.9,.2-4.4,.3h-9.7c-.7,0-1.4,.1-1.7,.8-.5,1-1.5,1.5-2.5,1.6-2.4,.2-4.8,.2-7.1-.5-.6-.2-1.2-.5-1.5-1.1,.4-.4,.9-.3,1.4-.3,2.2,.1,4.4,.1,6.6,0,1.6,0,2-.4,2-2s.1-3.2,.3-4.8c-.1-1.5-.1-3,0-4.5,.3-1.6,0-3.1-.2-4.7-.1-.5-.2-.9,0-1.3,1.1,.2,1.2,1.1,1.5,1.9,.2,.6,.3,1.1,.4,1.7-.2,.7-.3,1.4-.3,2.2,.2,2.5-.3,5-.3,7.5,0,1.1,.4,1.4,1.4,1.4,2.3-.1,4.6,.1,6.9-.3,2.3-.3,4.7,.3,7,.2,.2,.7,.2,1.3,.2,1.9Z"/><path class="cls-48" d="M143.15,140.66c-.7,.5-1.4,0-2.1,0-4.4,.1-8.9,0-13.3,.1-1.6,0-3.1-.3-4.7-.3-5.4,.1-10.8,.3-16.3,.7-.5,0-.9-.1-.9-.6,0-.6,.5-.4,.8-.4,6.8-.4,13.7-.8,20.6-.5,4.6,.2,9.2,.2,13.8,.2,.7,0,1.3,.3,2,.5,0,.1,0,.2,.1,.3Z"/><path class="cls-42" d="M77.25,117.36c.5-.8,1-1.6,1.5-2.3,.9,.7,1.9,.5,2.9,.3,1.6-.2,3.1-.1,4.6,.4,1.2,.5,2.4,.3,3.7,0,.4,.5,.2,1.1,.2,1.6,0,.1-.1,.2-.2,.3-1.8,.5-3.6,.3-5.4-.4-1-.4-2,0-3,.2-1.5,.3-2.9,.3-4.3-.1Z"/><path class="cls-14" d="M89.95,117.46c-.5-.5-.1-1.1,0-1.6,.6-1.3,1.9-.9,2.9-1,.8-.1,1.6-.1,2.3-.5,.4-.2,.8-.4,1.2,0,.4,.4,.3,.8,.1,1.3-.2,.5-.4,.9-.6,1.4-2,.3-4,.7-5.9,.4Z"/><path class="cls-14" d="M86.85,123.56c0,.4,0,.8-.1,1.2-.2,.9-.8,1.2-1.5,.7-1.1-.7-2.2-1.1-3.5-1.3-.7-.1-1.3-.4-1.4-1.3,0-.1,.1-.2,.1-.2,1.9-1.2,3.9-.9,5.9-.6,.8,.2,.7,.9,.5,1.5Z"/><path class="cls-14" d="M89.95,117.46c1.9-.4,3.8-.8,5.8-.5-.1,.8,.2,1.8-.4,2.5-.9,1-1.5-.3-2.3-.5-1.1-.3-2.4-.1-3.2-1.2,0-.1,0-.2,.1-.3Z"/><path class="cls-42" d="M73.25,123.46c.2-.6,.5-1.1,.9-1.6,1.2-.5,2.4-.1,3.6,0,.9,.5,1.8,0,2.7,0,.4,.3,.2,.7,.1,1.1h-.2c-.4,.1-.8,.2-1.1,.5-2,.4-4,.9-6,0Z"/><path class="cls-14" d="M80.55,122.96c0-.4-.1-.7-.1-1.1,.2-.7,.6-.9,1.3-.8,1.3,.3,2.7,.3,4-.1,1.3-.3,1.5-.1,1.3,1.2-.1,.4-.2,.9-.3,1.3,.1-.9-.3-1.2-1.2-1.2-1.6,.2-3.4,0-5,.7Z"/><path class="cls-42" d="M266.75,67.06c.1-.5,.2-.9,.3-1.4,.7-.5,1.4-1.3,2.4-.5,.6,.4,.8,1,.6,1.7-.2,.8-.8,1.4-1.6,1.5-.9,.1-1.4-.4-1.7-1.3Z"/><path class="cls-42" d="M274.85,42.86c-.3-1,0-1.8,.8-2.4h.4c1-.1,1.7,.2,2,1.2,.3,.9-.3,1.5-1,1.9-1,.5-1.7,.2-2.2-.7Z"/><path class="cls-42" d="M265.95,77.76c.1-.5,.2-1,.3-1.6,1.3-.8,2.3-.7,2.7,.4,.3,.9,0,1.8-.9,2.2-1,.4-1.8,.1-2.1-1Z"/><path class="cls-42" d="M263.75,89.76v-.3c.3-.4,.5-.8,.3-1.4,.7-.2,1.4-.7,2,0,.4,.5,.9,1,.6,1.8-.3,.6-.8,1.1-1.4,1.1-.9,.2-1.4-.3-1.5-1.2Z"/><path class="cls-42" d="M269.05,54.76c.1-.7,.4-1.3,.8-1.8,.9-.3,1.8-.6,2.3,.6,.3,1-.3,1.7-1.1,2.1-1,.6-1.5-.2-2-.9Z"/><path class="cls-42" d="M243.85,110.26c.4-.7,.7-1.3,1.1-2,.9-.3,1.7-.2,2.1,.7,.4,.7-.1,1.4-.7,1.8-.9,.6-1.8,.6-2.5-.5Z"/><path class="cls-42" d="M255.75,100.26c.2-.5,.8-.8,.9-1.4,1-.4,1.8-.2,2.1,.8,.3,.9-.2,1.6-1,1.8-1.1,.4-1.8,0-2-1.2Z"/><path class="cls-36" d="M107.85,232.06c-1.4-2.5-2.4-5.2-3.5-7.8,2,2.2,3.3,4.8,3.5,7.8Z"/><path class="cls-43" d="M77.75,121.86c-1.2,.6-2.4,.2-3.6,0,.4-.6,.8-1.1,1.1-1.7,.9,.5,1.8,1,2.5,1.7Z"/><path class="cls-14" d="M54.65,164.26c.1,.2,.2,.4,.3,.5-.5,1-.6,2,0,2.9,.4,.6,.3,1.3,.3,2-.3,.9-.7,1.9-.8,2.8,0,.4-.1,.9-.4,1.1-1.5,1.3-1,2.9-.9,4.5,.2,2.3,.5,4.6,.3,7-.2,2.8-.2,5.6,.1,8.4,.2,2.7,.2,5.4,0,8.1-.1,2,.1,4,.2,6,.3,3.1,.7,6.1,1,9.2,.6,5.4,.6,10.8,1.3,16.2,.3,2-.1,4.1,.4,6.2,.5,.6,.5,1.3,0,1.9,0,1.4,0,2.8-.1,4.3-1.6-.5-3.2-1.1-4.9-1q2.1-.6,1.9-2.9c-.5-5.1-1.1-10.2-1.6-15.3-.2-1.9-.4-3.7-.3-5.6,.2-3.8-.2-7.6-.3-11.5-.1-4.5-.3-8.9-.6-13.4-.3-5.5-.1-11.1-.2-16.6,0-1.1,.3-2.2,.3-3.3,0-.5,.2-1-.3-1.4-.4-.5,0-1,.2-1.4s.4-.8,.6-1.3q.9-2.1-.9-3.6c-.1-.1-.2-.3-.3-.4,.4-2.3,1-4.5,2.5-6.3,.7,1,1.2,2.2,2.2,2.9Z"/><path class="cls-14" d="M33.35,135.16c1.9,2.4,3.4,5,5.1,7.6,.3,.5,.8,1,0,1.5-.6,.7-1.5,.9-2.2,1.3-1.2,.8-2.3,1.6-3.3,2.6-.5,.4-.7,1.3-1.7,1.2-.3,.7-.9,1-1.7,1.2-2,.5-3.9,1.2-6.1,1-1.7-.1-2.4-.8-2.5-2.5-.1-2.6,1.3-4.6,2.9-6.4,2.4-2.6,5-5,8-7,.5-.2,.9-.5,1.5-.5Z"/><path class="cls-27" d="M31.15,149.26c.7-.2,.9-1,1.4-1.3,.5,.3,.6,.9,.8,1.4,.9,2.7,2.3,5.2,3.7,7.7,.7,1.2,1,1.2,2,.3,2-1.7,3.7-3.6,4.4-6.2,.5-1.8,.8-3.7,1.8-5.3,1.1,.3,1.5,1.4,2.2,2.3,.9,.2,.8,1,.8,1.7-.2,1.6-.2,3.3-.7,4.9-1.6,3.7-3.9,6.8-8,8-.8,.2-1.7,.5-2.2-.6-1.5-2.4-3-4.7-4.4-7.1-.9-1.9-1.9-3.6-1.8-5.8Z"/><path class="cls-8" d="M41.65,176.46c-1.4-.9-1.8-2.2-1.4-3.9,.4-2.2,1.3-4.2,2.8-5.9,.9-1,1.7-1.5,3-.6,.2,.1,.4,0,.7,.1,.9-.3,1.4,.5,2.1,.8,.3,.2,.6,.3,.7,.7,.1,.4-.1,.8-.3,1.2-1.7,2.8-3.8,5.3-6.5,7.2-.3,.2-.6,.4-1.1,.4Z"/><path class="cls-53" d="M41.65,176.46c3.2-2.4,6-5.2,7.8-8.9,.3-.2,.4,0,.5,.2,2.5,1.2,2.5,1.3,1.5,3.9-.4,.9-.8,1.8-1.2,2.8-2.2,2.7-4.8,3.7-7.4,2.8-.4-.2-.9-.4-1.2-.8Z"/><path class="cls-14" d="M37.55,162.06c.6,.5,1.3,.5,2,.3,3.5-.9,5.5-3.5,7.2-6.4,.2-.4,.4-.7,.6-1.1,1.1,.3,1.6,1.2,2.1,2-.1,.8,0,1.7-1,2.1-.4-.3-.6,.1-.7,.3-1.1,1.6-2.6,2.7-4,3.9-1.4,1.2-3.1,1.7-4.8,1-1-.3-1.9-.9-1.4-2.1Z"/><path class="cls-19" d="M48.35,158.96c.4-.7,.6-1.4,.8-2.2-.2-1.3,.3-2.2,1.3-3,1.1,.2,1.8,.9,2.2,1.9-1.1,3.7-2.4,7.2-3.6,10.9-.1,.3-.2,.5-.5,.7-.6-.4-1.3-.7-1.9-1.1,.4-2.5,1.1-4.8,1.7-7.2Z"/><path class="cls-42" d="M56.45,241.16v-1.9c.6-.6,1.3-1.2,2.3-.8,.7,.3,1,1,1,1.8s-.3,1.6-1.1,1.9c-1.1,.5-1.7-.2-2.2-1Z"/><path class="cls-42" d="M57.45,179.76c-.1,.9-.5,1.6-1.6,1.8-.8,.1-1.7-.9-1.7-1.9,0-1.4,.6-2.2,1.6-2.2,1,.1,1.7,1.1,1.7,2.3Z"/><path class="cls-42" d="M54.15,198.96c0-1,.9-2.1,1.7-2,1,.1,1.6,.9,1.6,1.9,.1,1.1-.7,1.9-1.7,1.9-1.1,0-1.6-.7-1.6-1.8Z"/><path class="cls-42" d="M54.45,172.56c-.5-1.2-.1-2.1,.8-2.8,.8,0,1.5,.1,1.9,.9,.5,.8,.4,1.6-.2,2.3-.9,.8-1.7,.3-2.5-.4Z"/><path class="cls-42" d="M56.15,228.96c.1-.9,.6-1.6,1.7-1.5,1,.1,1.5,.9,1.5,1.8s-.4,1.6-1.5,1.7c-.8,0-1.7-1-1.7-2Z"/><path class="cls-42" d="M57.85,209.16c-.1,1-.6,1.8-1.6,1.7-.9,0-1.6-.7-1.6-1.7,0-.9,.5-1.7,1.5-1.7,1,0,1.6,.7,1.7,1.7Z"/><path class="cls-42" d="M55.85,219.96c0-.9,.5-1.5,1.3-1.6s1.7,.9,1.7,1.8-.5,1.5-1.4,1.6c-.8,.1-1.6-.8-1.6-1.8Z"/><path class="cls-42" d="M56.05,187.16c1.1,.1,1.4,.6,1.4,1.6,0,1.1-.6,1.7-1.6,1.7s-1.5-.7-1.5-1.7c.1-1,.8-1.5,1.7-1.6Z"/><path class="cls-18" d="M64.05,102.46c-2.7,3.7-5.8,7.1-8.8,10.5-3.9,0-6.4-2.2-8.3-5.4-1.7-2.5-2.7-5.3-3.1-8.3-.6-4.5-.3-9.1,.3-13.6,.3-1.8,.6-3.7,2.2-5.1,.7-.2,1.1,.2,1.6,.6,6,5.1,12.5,9.6,20,12.4,.4,.1,.8,.3,1,.7-.3,1.5-1.3,2.7-2.1,4-1,1.3-1.9,2.8-2.8,4.2Z"/><path class="cls-31" d="M68.85,94.16c-8-2.6-14.8-7.3-21.1-12.7-.3-.3-.7-.6-1-.9-.4-.2-.7-.4-.6-.9,.7-.8,.7-2,1.7-2.5,2.4,2.5,5.1,4.7,8.1,6.4,1.5,.9,3,1.5,4.6,2.2-4.7-2.1-8.6-5.4-12.2-9.1,.4-1.4,1.6-2.5,2.9-2.6,1.4,1.5,2.7,3.1,4.3,4.5,2.6,2.2,5.5,3.9,7.5,4.4-3.7-1-7.2-4.4-10.4-8.1-.3-.4-.6-.8-.6-1.4,.4-1,1.3-1.3,2.3-1.5,1.5,.7,2.3,2.4,3.6,3.1-1-.9-2-2.1-3-3.3,.8-.9,1.9-1.1,3-1.1,2.6,2.7,5.6,5,8.8,6.9-2.5-1.5-4.5-3.7-6.8-5.6-.4-.4-.9-.7-1.4-.9-.3-.1-.5-.3-.2-.6,1.2-.6,2.5-.3,3.7-.2,.6,.1,1.2,.3,1.7,.2,2,.9,3.5,2.4,4.5,4.3,2.6,4.8,2.8,9.8,1.7,15-.2,1.6-.5,3.1-1.1,4.4Z"/><path class="cls-27" d="M46.15,79.76c.2,.3,.4,.5,.6,.8-1.5,1.3-1.8,3.2-2.2,4.9-.6,2.8-.4,5.6-.6,8.5-.2,4.4,.7,8.6,2.7,12.6l.3,.9h-.3c-.5-.2-.8-.6-1.1-1-4-5.8-6.3-12.1-6.6-19.2-.2-3.2,.3-6.4,1.8-9.4,.4-.9,.8-1.9,1.8-2.4,.2,0,.5,0,.6,.2,1,1.4,2.2,2.6,3,4.1Z"/><path class="cls-54" d="M46.15,79.76c-1.4-1.2-2.3-2.7-3.4-4.2-.3-.6,0-1,.4-1.4,3.6-4.3,8-6.8,13.8-6.1,2.4,.5,4.8,1.1,6.9,2.5-.7,.5-1.5,.3-2.2,.2-1.1-.2-2.2-.4-3.3,.1-.1,.1-.2,.1-.3,0-1,.3-2.1,.5-3.1,1.1-.1,.3-.2,.4-.5,.3-.8,.5-1.7,.6-2.2,1.4-.3,.4-.6,.8-1.1,.5-1.2,.5-1.8,1.7-2.8,2.5,0,.3,0,.7-.5,.6-.7,.8-.6,2.1-1.7,2.5Z"/><path class="cls-14" d="M56.95,68.16c-5.2-.3-9.3,1.8-12.8,5.5-.6,.6-1.1,1.2-1.4,2-2.1,2.4-3,5.4-3.2,8.5-.6,8.1,1.9,15.3,6.3,22,.3,.5,.6,.9,.9,1.4-1.1,.1-1.6-.8-2.1-1.5-3.5-4.6-5.6-9.8-6.3-15.6-.5-4.3-.2-8.5,1.4-12.6,.8-2,2.2-3.6,3.8-5.1,1.8-1.6,3.6-3.1,5.9-3.9,2.5-1,5-1.4,7.5-.7Z"/><path class="cls-14" d="M51.65,139.56c-.5-.3-1-.7-1.1-1.4v-3.9c0-4.1,.2-8.3,.6-12.4,0-.3,.2-.6,.3-.9,1.1-.2,1.9,.2,2.5,1.1,.2,.7,.2,1.4,.2,2.1,0,4.2-.1,8.5,0,12.7,0,.7,0,1.4-.4,2-.6,.7-1.2,1-2.1,.7Z"/><path class="cls-42" d="M53.65,121.96c-.7-.3-1.5-.6-2.2-.9-1.9-1.5-2.9-3.4-3.3-5.7-.1-.5-.3-1.2,.4-1.5,.8-.2,1,.5,1.2,1,.3,.8,.6,1.6,.9,2.3,.6,1.5,1.8,2.2,3.3,2.7,.4,.1,5.1,1.7,8,1.2,1.9-.3,3.7-1,5.6-1.5,.8-.5,1.5-.6,2.2,.1-.3,.6-.6,1.2-1.1,1.6-4,2-8.2,3-12.6,1.8-1-.2-1.9-.3-2.4-1.1Z"/><path class="cls-42" d="M73.85,113.66c-.3,.7-.9,1.3-1.3,1.9-1.2,.6-2.6,.7-3.9,.8-1.3,.6-2.6,1.2-3.9,1.6-2.6,.9-4.9,.1-6-2.2,0-.5,0-1,.5-1.2,.6-.2,.8,.3,1,.7,.9,1.1,2.4,1.4,4.2,.7,1.4-.5,2.7-1.2,4-1.8,1.7-.7,3.5-.8,5.4-.5Z"/><path class="cls-14" d="M68.55,116.26c1.2-.8,2.5-.9,3.9-.8-.9,1.4-1.9,2.8-2.8,4.2-.7,0-1.5-.1-2.2-.1-.1-1.2,.8-2.1,1.1-3.3Z"/><path class="cls-10" d="M74.15,170.36c-4-2-7.5-4.8-11.1-7.4-2.1-1.5-4-3.2-6.1-4.8-.5-.4-1-.9-.5-1.6,2-2.7,3.3-6,5.7-8.5,.8-.8,1.3-1.9,2.6-2.1,.6,1.2,1.4,1,2.2,.4,1.6-1.1,2-3.4,.6-5.3-1.2-1.6-.8-2.5,.2-3.9,1.6-2.3,2.8-4.9,4.4-7.1,.6-.9,.9-.9,1.5,0,2.4,3.9,4.1,8.2,5.4,12.6,.7,2.2,1.1,4.5,1.7,6.7,.2,.7,.1,1.1-.4,1.6-.6,.5-1.1,.4-1.6,.1-2-1.1-3.7-2.6-5.8-3.5-1.1-.5-2.1-1.1-3.2-1.7-.5-.3-1-.5-1.5,0s-.4,1.1-.1,1.7,.6,1.1,.9,1.7c2.5,5.7,3.9,11.8,4.9,17.9,.3,.9,.1,2.1,.2,3.2Z"/><path class="cls-27" d="M64.65,145.96c-2.9,2.5-4.9,5.6-6.7,8.9-.4,.7-.6,1.6-1.6,1.7-.1,0-.2,0-.3-.1-.3-.7,.2-1.3,.4-1.8,1.4-2.8,2-5.7,1.9-8.8,0-1.9-.6-3.6-1.6-5.2-.4-.7-1-1.1-1.9-1.2-.4-.1-.9,0-1.1-.6,1.2-.8,2.5-.8,3.9,.1,.9,.4,1.7,.7,2.6,1.1,.5,.3,1.1,.6,1.6,.9,.9,.8,1.9,1.6,2.7,2.5s1,1.7,.1,2.5Z"/><path class="cls-42" d="M47.75,279.36c.1,2.2,.1,2.1,2.2,1.8,3.5-.4,7.1-.7,10.6-1.2,.6-.1,1.2-.1,1.4,.8,.9,3.3,1.8,6.6,1.6,10.2-.1,1.5-.4,3-.6,4.5-.2,1-1,1.1-1.8,1.1-3.2,.2-6.4-.4-9.6-1-1.1-.2-2.2-.4-3.4-.7-1-1-1.3-2.2-1.3-3.6v-3.1c-.4-1.5-.2-3-.2-4.5,0-1.1,.2-2.1,.3-3.2,.2-.4,.2-.9,.8-1.1Z"/><path class="cls-4" d="M100.45,148.76c.2-1.9-.3-3.9,.3-5.8l.1,.1c.5,.5,.4,1.1,.4,1.7,0,.7,.3,1.1,1.1,1.1,1.8,0,3.6,0,5.4-.4,.6,.9,.1,1.9,.3,2.8v4.1c-.2,.2-.5,.2-.8,.1-2-.8-4.2-1.4-6-2.7-.5-.2-1-.4-.8-1Z"/><path class="cls-29" d="M107.65,145.36c-.6,1-1.7,.6-2.5,.8-1.1,.2-2.2,0-3.3,.1-.8,0-1.2-.3-1.1-1.1,.1-.7,0-1.5,0-2.2,.5-.5,.9-.1,1.4,.1,1.8,.8,3.6,1.6,5.5,2.3Z"/><path class="cls-17" d="M133.05,171.46c.5,.3,.7,.8,.8,1.4,.2,3.8-.3,7.6-.3,11.5,0,.9,.2,1.2,1.2,1.3,4,.4,8,.3,11.9-.3,1.2-.2,2.5,0,3.7,0,0,2.9,.3,2.5-2.5,2.5h-12.4c-.9,0-1.7,.1-2.2,1.1-.3,.6-.9,1.1-1.5,1.1-3,0-6,.3-9.1-.2-.6-.1-.9-.4-1.2-.8,.4-.5,.9-.4,1.4-.3,2.4,.3,4.8,.1,7.2,.1,1.7,0,2.1-.5,1.9-2.1-.3-2.4,0-4.8,.2-7.1,0-1.5-.1-3.1,.1-4.6,.3-.7,.1-1.4,.2-2,.2-.8,.2-1.3,.6-1.6Z"/><path class="cls-26" d="M137.55,180.36c0,.7-.3,1-1,1.1-.6,0-.9-.3-.9-.8,0-.6,.3-1.1,1-1.1,.6-.1,.9,.3,.9,.8Z"/><path class="cls-7" d="M154.65,180.56c0,.7-.6,.9-1.1,1s-.8-.2-.8-.7c0-.6,.4-1,1-1.1,.6-.1,.8,.4,.9,.8Z"/><path class="cls-5" d="M145.55,180.26c0,.5-.3,1-.9,1.1-.4,0-.8-.2-.8-.8s.3-1.1,1-1.1c.5-.1,.7,.3,.7,.8Z"/><path class="cls-24" d="M164.55,179.86c-.2,.4-.3,.9-.8,.9-.4,0-.7-.2-.7-.7s.3-.8,.8-.9c.4,0,.7,.2,.7,.7Z"/><path class="cls-15" d="M47.75,278.86c-.7-1.2-.1-2.6-.8-3.8-.2-4.3,.3-8.6,.7-12.9,.3-2.7,.4-5.4,.6-8.1,.1-1.4,.2-2.8,.3-4.3,0-.5,.1-.8,.7-.8,2.3-.2,4.6-.5,6.9-.1,1.1,.2,2.2,.1,3.3,.1,.8,0,1.1,.3,1,1.1v.4c.1,5.2,.1,10.3,.3,15.5,.2,3.9,.4,7.8,1.3,11.6,.1,.3,0,.6,0,.8-4.7-.1-9.5,.7-14.3,.5Z"/><path class="cls-47" d="M132.75,179.46c-.1,1.6-.1,3.3-.2,4.9v1.7c.3,2.9,.1,3.1-2.7,3.1s-5.4,.1-8.1-.3c-.4-.4-.7-.8-.9-1.4v-2.5c-.3-.4-.3-.8,.1-1.1,.7,.1,1.3,.1,1.9-.2,.6-.3,1.2-.8,1.8-.1,.1,.3,.1,.6,.2,.9,.7,1.9,2.3,.5,3.4,.9,.8,.3,1-.3,1-1,0-1.1-.1-2.1,.1-3.2,0-.2,.1-.4,.2-.6,1-.5,2-1.1,3.2-1.1Z"/><path class="cls-26" d="M137.95,158.96c.6,.2,1,.5,.9,1.1s-.4,.9-1,.9-.9-.2-.8-.8c-.1-.7,.3-1,.9-1.2Z"/><path class="cls-26" d="M145.55,160.56c-.6,0-.8-.3-.8-.7,0-.6,.4-1,1-1.1,.5-.1,.8,.3,.8,.7,0,.7-.5,1-1,1.1Z"/><path class="cls-52" d="M154.95,159.26c-.1,.5-.3,.9-.8,.9s-.8-.3-.8-.9c0-.5,.2-.9,.8-.9,.5,.1,.8,.4,.8,.9Z"/><path class="cls-7" d="M162.25,158.16c.5,0,.8,.3,.8,.8,0,.6-.4,.9-1,.9-.4,0-.9-.1-.8-.7,0-.6,.3-1,1-1Z"/><path class="cls-23" d="M100.45,148.76c.8,.9,1.9,1.4,3,1.9,1.4,.7,3,1.2,4.5,1.7,3.1,1.4,6.3,2.5,9.8,2.3,1.6-.1,3.3-.3,4.9,.2,.6,.7,.4,1.5,.5,2.3,.1,1.1-.1,2.3-.1,3.4,.1,1.5,0,3.1-.6,4.5-.4,.4-1,.5-1.5,.5-2.1,0-4.2,.1-6.3-.3-1.7-.3-3.5-.2-5.2-.3-2.7,0-5.2-.7-7.4-2.3-.6-.4-1.2-.9-1.5-1.5-2.7-1.3-1.9-3.9-2.1-6-.2-1.7,.1-3.5,.2-5.2-.1-1.2,.8-1.3,1.8-1.2Z"/><path class="cls-47" d="M122.65,160.66v-5.8c.3-.6,.2-1.2,.3-1.8,.1-1.9,.5-2.6,2.3-2.8,2.7-.2,5.5-.6,8.2,.4,.7,1.9,1,3.8,.6,5.8-.9,.8-1.9,1.4-3.2,.8-.3-.4-.3-.9-.2-1.3,.4-1.8,.4-1.9-1.5-1.9q-2.7,0-3,2.7c-.1,.6,0,1.2-.2,1.8-.5,.8-1.8,.3-2.1,1.4-.3,.4-.6,.8-1.2,.7Z"/><path class="cls-18" d="M53.85,138.96c2.7,.1,4.2,1.5,4.8,4.5,.9,4.7-.1,8.9-2.5,13-.7,.1-1.3,0-2-.2-.7,.2-1.2-.1-1.6-.7-.7-.6-1.3-1.1-2-1.7-1.7-.8-2.4-2.3-2.5-4.1,0-.6-.1-1.2-.5-1.7-.2-1.7,.2-3.3,.6-5,.9-1.5,2.1-2.7,3.6-3.6,.6-.2,1.1-.4,1.7-.6,.1,0,.2,0,.4,.1Z"/><path class="cls-51" d="M52.55,155.66c.5,.2,1.1,.5,1.6,.7-.4,1.8-1.3,3.4-1.8,5.1-.8,2.1-1.5,4.2-2.3,6.4-.2-.1-.4-.2-.5-.2-.3-.1-.6-.2-.8-.3,0-1.3,.6-2.4,1-3.6,.7-2.3,1.5-4.5,2.3-6.8,0-.5,0-1,.5-1.3Z"/><path class="cls-23" d="M121.15,183.86c-.3,.3-.2,.7-.3,1.1-3.5-.3-6.9-.9-10.3-1.4-3.7-.6-6.4-3.1-9.7-4.5-.5-.2-1-.7-1.5,.1-.1-.4,.1-.9-.3-1.1-1.2-.5-1-1.4-1.1-2.4-.1-2.3-.2-4.6-.3-6.9-.1-1.8,.2-2.1,1.9-1.7,.5,.1,.6-.1,.8-.4,1.6,1.7,3.7,2.5,5.6,3.6,.6,.4,.9,.2,.9-.5,0-1-.1-1.9,.1-2.9,.1-.4,.2-.8,.7-.9,.4-.1,1-.2,1,.5-.8-.1-1.2,.2-1.1,1.1v.4c.1,1.2-.6,2.9,.3,3.6,1.2,1.1,2.9,1.7,4.6,2.1,2.7,.6,5.4,0,8.1,.6,.5,.1,.9-.1,.9-.7,0-.4-.1-.8,.2-1.2,.7,.7,.4,1.5,.4,2.3-.1,2-.6,4-.5,6,0,1,.4,2.2-.4,3.2Z"/><path class="cls-17" d="M108.75,166.46c-1-.6-1.4-.2-1.4,.9v4.1c-2.4-1.2-4.6-2.3-6.6-3.7-.3-.2-.3-.7-.4-1v-5.5c.6,.4,1.2,.8,1.8,1.2,2.4,1.6,5.1,2.2,7.9,2.2,4-.1,8,.9,12.1,.5l.3,.3c.1,.5,.1,.9-.3,1.3-4.4-.4-8.9-.3-13.4-.3Z"/><path class="cls-47" d="M121.25,180.56c-.2-2.8,.6-5.5,.5-8.3,.8-1.9,1.2-2.2,4-1.9,1.8,.2,3.7,.2,5.5,.2,.8,0,1.5,.1,1.9,.8-.1,1.1,.2,2.3-.3,3.4-1.2,.2-2.2,.6-2.3,2.1,0,.4-.3,.7-.7,.2-.4-.9-.1-1.8-.4-2.7-1.1-.6-2.3-.3-3.5-.2-.7,.1-.7,.6-.7,1.1-.1,1.2,.2,2.5-.2,3.7l-.3,.3c-1.2-.9-2.3-.6-3,.8-.1,.2-.2,.5-.5,.5Z"/><path class="cls-47" d="M122.25,166.76v-1.4c.8-.8,1.6-1.5,2.9-1.1,.4,.8,1.1,1.1,2,1,1-.1,2.2,.5,3.1-.4,.3-.9-.1-1.9,.4-2.7,.9-.7,1.9-1.3,3.2-.9-.3,1.9-.2,3.8-.2,5.6,0,1-.6,1.6-1.6,1.6-3-.1-6,.3-8.9-.3-.3-.5-.6-1-.9-1.4Z"/><path class="cls-18" d="M45.35,145.96c-1.1,4.7-2.1,9.4-6.6,12.3-.5,.3-1,.7-1.4,0-2-3.3-4-6.5-4.8-10.3,1.6-1.7,3.5-3.1,5.8-3.7,2.6-.6,5-.1,7,1.7Z"/><path class="cls-10" d="M53.85,138.96h-.5c.3-.5,.3-1.1,.3-1.6v-15.4c4.2,1.7,8.4,1.7,12.6-.1,.7-.3,1.4-.6,2.3-.5-3.3,5.1-6.7,10-9.6,15.3-.4,.8-.8,1.6-1.2,2.3-1.3,0-2.6-.6-3.9,0Z"/><path class="cls-45" d="M133.85,161.16c-1,.2-1.9,.8-3,.8-.5-.4-.4-1-.4-1.6v-1.5c0-.6-.1-1.2,.4-1.6,1-.3,2-.6,3-.8,.1,1.6,0,3.2,0,4.7Z"/><path class="cls-3" d="M48.05,149.86c.5,1.6,1.4,2.9,2.5,4.1-.7,.8-.9,1.9-1.4,2.9-.6-.7-1.3-1.3-1.9-2,.3-1.7,.5-3.3,.8-5Z"/><path class="cls-25" d="M51.15,74.26c.4-.2,.6-.6,1.1-.5,2.9,4,6.5,7.3,11.1,9.2,.5,.2,1.1,.4,1.6,.7-1.9,.1-3.7-.6-5.3-1.5-3.3-1.8-6-4.3-8.3-7.3-.2-.2-.2-.4-.2-.6Z"/><path class="cls-25" d="M47.85,77.26c.2-.2,.4-.4,.5-.6,.2,.1,.5,.2,.7,.4,3.5,3.6,7.5,6.6,12,9-1.7-.2-3.2-.9-4.6-1.7-2.9-1.6-5.6-3.5-7.9-5.9-.3-.4-.7-.6-.7-1.2Z"/><path class="cls-25" d="M58.05,70.96h.3c.4,0,.8-.1,1.2,.2,2.7,2.5,5.3,5,8.7,7.2-1.4-.1-2.1-.7-2.8-1.2-2.5-1.4-4.7-3.2-6.7-5.2-.4-.3-.7-.6-.7-1Z"/><path class="cls-22" d="M54.45,72.36c.2-.1,.4-.2,.5-.3,.7-.1,.9,.5,1.3,.9,1,1,1.7,2.4,3.1,3-2.3-.4-3.5-2.1-4.9-3.6Z"/><path class="cls-45" d="M130.05,177.26c.2-.3,.2-.6,.2-.9,.1-1.2,1.2-2,2.4-1.8l.1,.2c0,1.6-.1,3.1-.1,4.7-1,.4-1.8,1.2-2.9,1.1-.5-.5-.1-1-.2-1.6,.1-.6,0-1.2,.5-1.7Z"/><path class="cls-39" d="M129.75,181.06v4.1c0,.5-.1,.9-.8,.8-1.1-.3-2.3-.1-3.4-.1-1,0-1.5-.1-1.1-1.3,.1-.4,0-.8,0-1.2-.4-.4-.4-.9-.1-1.4,1.5-1,3.3-1,5-1.1,.1,0,.3,.1,.4,.2Z"/><path class="cls-34" d="M124.55,181.96c0,.5,0,.9-.1,1.4-.8,.4-1.6,.7-2.4,1.1-.7,.4-.9,.1-.9-.6,0-1.1,0-2.2,.1-3.3,.1-1.2,.9-1.8,2-2.3,1-.4,1.5-.3,1.3,.9-.3,.6-1,.3-1.4,.7,.4,.5,1.3,.2,1.6,.9,.2,.4,.1,.8-.2,1.2Z"/><path class="cls-11" d="M124.45,180.56c-.8-.1-2,.3-2.1-.7,0-1.2,1.4-.5,2.1-.8h.2c.5-.4,1.1-.4,1.7-.4,1.2,0,2.4-.4,3.5,.4-.1,.5-.1,.9-.2,1.4,0,.2-.1,.3-.1,.5h-.3c-.9-.5-1.9,0-2.8,0-.6,0-1.3,.2-2-.4Z"/><path class="cls-38" d="M125.05,164.26c-.9,.4-1.8,.7-2.7,1.1,0-.1,0-.2-.1-.3,.1-1.5,.3-3,.4-4.4,.3-.2,.8-.3,.8-.8,.7-.3,1.4-.2,2.1,.2,.3,.4,.3,.8,.3,1.2-.1,1,.2,2.2-.8,3Z"/><path class="cls-40" d="M119.45,159.26c.5,0,.8,.3,.8,.8s-.4,.8-.9,.8c-.5,.1-.8-.3-.7-.7,0-.5,.3-.9,.8-.9Z"/><path class="cls-23" d="M130.95,157.36c0,.5-.1,1.1-.1,1.6-1.3,.4-2.5,.5-3.7-.3-.6-1.3-.2-2.5,.2-3.7,.2-.8,1.7-1.1,3-.7,1,.3,.8,1,.6,1.8-.1,.3,0,.8,0,1.3Z"/><path class="cls-46" d="M130.85,155.96c.2-1.3-.6-1.5-1.6-1.4-.9,.1-1.9-.2-1.7,1.3,.1,.9-.4,1.9-.2,2.8-.6,.5-1.1,.5-1.7,0,.1-1.4,.2-2.8,.3-4.2,0-.6,.3-.8,.9-.8h2.6c1.9,0,2,.3,1.4,2.3Z"/><path class="cls-6" d="M125.55,158.66h1.7c1.2,.1,2.4-.1,3.5,.3v1.4c-.1,.1-.3,.1-.4,0-1.3-.3-2.5-.3-3.8-.2-.5,0-.9,.2-1.3-.2-.6,0-1.3,.1-1.9-.3,.2-1.4,1.4-.8,2.2-1Z"/><path class="cls-26" d="M118.65,179.26c-.1,.6-.3,1.1-1,1.1-.5,0-.7-.2-.7-.7,0-.6,.3-1.1,.9-1.2,.6-.1,.8,.3,.8,.8Z"/><path class="cls-23" d="M129.95,179.16h-3.5c-.9-1.5-.5-3-.3-4.5,.1-.6,.6-.7,1.2-.7h2.7c0,1.1,0,2.2,.1,3.3-.1,.6-.1,1.3-.2,1.9Z"/><path class="cls-13" d="M130.05,173.96c-.8,.4-1.7,.3-2.6,.3-.8,0-1.1,.3-1.1,1v4h-1.7c0-1.5,.1-2.9,0-4.4,0-.8,.2-1.2,1.1-1.1,1.5,.1,2.9-.5,4.3,.2Z"/><path class="cls-23" d="M130.55,160.36h.2c0,.5,0,1.1,.1,1.6v3.3c-1.2,.4-2.4-.1-3.6,0-.5,0-.8-.3-.8-.8,0-1.3-.2-2.6,.6-3.7,1.1-.7,2.3-.7,3.5-.4Z"/><path class="cls-46" d="M127.25,160.96c-.6,1.1-.1,2.4-.5,3.5-.2,.4,.3,.6,.7,.6,1.1,.1,2.3,.2,3.4,.3-1.7,.6-3.5,.2-5.2,.2-.7,0-.6-.8-.6-1.3,.4-1,.2-2,.3-3,.6-.6,1.2-.9,1.9-.3Z"/><path class="cls-42" d="M54.75,128.86c0-.9,.3-1.5,1.2-1.4,.9,0,1.4,.6,1.5,1.5,0,.8-.4,1.5-1.3,1.5-1-.1-1.4-.8-1.4-1.6Z"/><path class="cls-42" d="M55.45,134.06c.8,.2,1.4,.5,1.3,1.3-.1,.7-.5,1.2-1.3,1.2-.7-.1-1-.5-1-1.2,0-.8,.4-1.1,1-1.3Z"/><path class="cls-12" d="M124.45,180.56h3.9c.4,0,1-.2,1.1,.5-1.6,.3-3.3,.6-4.9,.9,0-.5,0-.9-.1-1.4Z"/><path class="cls-50" d="M127.25,160.96c-.6,.1-1.3,.2-1.9,.3,0-.4,0-.7-.1-1.1,1.4-.6,2.8-.3,4.2-.3,.4,0,1-.1,1.1,.5-1.1,.2-2.2,.4-3.3,.6Z"/><path class="cls-20" d="M137.25,73.16c3.7,.5,7.4,1,11,1.5,2,.3,4.1,.5,6.1,.7,4.1,.4,8.2,.8,12.3,1.3,3.9,.5,7.9,.9,11.9,1.5,4.2,.6,8.4,1.6,12.6,2.3,4,.7,8,1.2,12,1.8,3.8,.6,7.5,1.1,11.3,1.6,2.8,.4,5.6,.6,8.3,.9,3.3,.4,6.6,.8,10,1.2,3.8,.5,7.5,.9,11.3,1.6,4.4,.7,8.8,.9,13.3,1.3,1.9,.2,3.9-.1,5.8,.3,.3,.1,.5,.1,.7,.3,.1,.1,0,.2,0,.3-3.7,.9-6.3,3-7.3,6.7-.2,.8-.4,1.6,.2,2.4,.3,.8-.2,1.1-.9,1.4-4.1-1-7.3,.4-9.8,3.6-1,1.3-1.2,2.8-1,4.4,.2,.9-.3,1.6-1.1,2-8.5,1.2-16.9,0-25.3-1.5-6-1.1-12-1.6-18-2.3-14.4-1.7-28.6-4.4-42.3-9.3-9-3.2-17.8-6.6-26.3-10.9-7-3.5-12.9-8.5-18.4-14.1-.6-.4-1.1-.9-1.1-1.7,.1-.1,.2-.2,.4-.3,.8-.3,1.7-.2,2.5,0,3.9,1,8,1,12,1.5,2.7,.3,5.5,.6,8.2,.9,.5,0,1.2,.1,1.6,.6Z"/><path class="cls-30" d="M110.73,70.74c.04-.6-.13-1.21,.3-1.68,4.77-2.61,9.8-4.5,15-5.99,13.26-3.79,26.57-6.87,40.15-9.34,7.09-1.26,14.36-2.12,21.51-2.78,5.84-.44,11.58-.89,17.4-1.13,3.21-.1,6.31-.01,9.52-.01,7.52-.04,14.98,.83,22.47,1.19,3,.09,5.96,.77,9.13,1.47-1.85,.69-3.52,.18-5.23,.38-4.75,.71-9.51-.19-14.21-.28-5.01,0-9.89-.41-14.91-.32-4.92,.1-9.94,.29-14.87,.68-7.55,.54-15.1,1.17-22.58,2.21s-14.88,2.49-22.19,4.04c-9.14,1.94-18.09,4.19-27.06,6.64-.41,.08-.91,.14-1.34,.62,1.29,.18,2.42-.25,3.63-.38,7.99-1.21,15.96-2.12,23.92-2.83,4.24-.44,8.38-1.08,12.61-1.32,4.73-.31,9.46-.72,14.28-.92,5.23-.28,10.54-.35,15.77-.63,3.42-.19,6.91,.03,10.32,.04,5.41,.03,10.72,.06,16.12,.1,6.31,.09,12.59,.58,18.87,1.07,4.19,.36,8.46,.92,12.58,2.38l-1.3-.08c-7.41-.06-14.9-.42-22.39-.78-4.2-.16-8.5-.32-12.71-.28-4.71,0-9.43,.22-14.13,.13-2.91,.02-5.81,.04-8.72,.06-3.71,.07-7.42,.14-11.15,.41-2.81,.13-5.63,.25-8.34,.39-4.42,.23-8.75,.56-13.18,.89-5.03,.39-10.08,.98-15.02,1.48-6.04,.53-12,1.26-18.06,2.09-.91,.14-1.9-.12-2.83,.43,1.29,.28,2.61-.04,3.91-.06,3.61-.08,7.12-.16,10.73-.14,3.81-.06,7.63-.23,11.44-.29,2.71-.03,5.42-.17,8.12-.1,5.91,.06,11.73-.08,17.62,.19,1.9,.12,3.9,.04,5.8,.16,5.89,.36,11.88,.63,17.77,1.1,3.99,.35,7.96,.89,11.93,1.44,3.87,.54,7.84,1.19,11.7,1.93,7.53,1.37,14.95,2.83,22.23,5.08,1.48,.39,2.96,.68,4.4,1.77-1.5-.09-2.56-.66-3.66-.73-6.8-.22-13.18-2.32-19.73-3.42-4.36-.77-8.72-1.64-13.18-2.32-4.37-.67-8.85-1.15-13.22-1.72-6.56-.81-13.26-1.02-19.85-1.43-4.39-.27-8.8-.24-13.21-.32-4.4-.07-8.81-.04-13.22-.02-5.41,.07-10.83,.23-16.25,.3-3.11,0-6.21,.02-9.32,.03-2.31,.06-4.62,.12-6.83,.28,2.18,.34,4.46,.78,6.65,1.01,4.87,.6,9.64,1.3,14.4,1.99,4.17,.66,8.43,1.42,12.6,1.98,5.47,.64,11.03,1.48,16.48,2.42,3.87,.64,7.74,1.18,11.51,1.81,4.85,.9,9.71,1.7,14.56,2.7,5.24,1.13,10.58,2.26,15.81,3.58,5.43,1.34,10.86,2.67,16.27,4.21,1.97,.52,4.04,1.05,6,1.87-2.19-.24-4.48-.48-6.67-.71-.5-.03-.89-.26-1.38-.29-4.51,.02-8.73-1.34-12.98-2.31-5.53-1.24-11.06-2.59-16.6-3.73-4.75-.9-9.4-1.88-14.16-2.78-3.07-.59-6.25-.99-9.33-1.48-3.08-.49-6.15-1.08-9.22-1.57-2.48-.35-4.87-.7-7.35-1.06-3.47-.52-6.95-1.03-10.42-1.65-3.07-.59-6.24-1.09-9.33-1.48-.9-.06-1.85-.92-2.79-.27-2.78-.47-5.55-.94-8.33-1.42-2.28-.34-4.45-.88-6.74-1.12-1.99-.22-3.88-.44-5.74-1.16-1.4-.09-2.6-.16-3.79-.23Z"/><path class="cls-49" d="M250.38,176.13c1.27-.18,2.26-.36,3.26-.36,13.21-.36,26.33-.36,39.53-.18,5.61,.09,11.22,.09,16.92,.18,4.43,.09,8.87,.27,13.39,.54,5.43,.36,10.86,.81,16.28,1.27,.27,0,.63,0,.72,.36-.36,.45-.81,.27-1.27,.27-3.26,0-6.42,0-9.68,.09-8.14,.27-16.37,.36-24.52,.18-6.6-.09-13.21-.09-19.72-.27-5.43-.09-10.86-.27-16.19-.54-3.8-.18-7.69-.36-11.49-.54-1.99-.09-4.07-.27-6.06-.45-.45,.09-.81,0-1.18-.54Z"/></svg>